<?xml version="1.0" encoding="UTF-8"?>
<!DOCTYPE svg PUBLIC "-//W3C//DTD SVG 1.1//EN" "http://www.w3.org/Graphics/SVG/1.1/DTD/svg11.dtd">
<!-- Creator: CorelDRAW -->
<svg xmlns="http://www.w3.org/2000/svg" xml:space="preserve" width="5.63483in" height="1.19214in" version="1.1" style="shape-rendering:geometricPrecision; text-rendering:geometricPrecision; image-rendering:optimizeQuality; fill-rule:evenodd; clip-rule:evenodd"
viewBox="0 0 5583.26 1181.23"
 xmlns:xlink="http://www.w3.org/1999/xlink"
 xmlns:xodm="http://www.corel.com/coreldraw/odm/2003">
 <defs>
  <style type="text/css">
   <![CDATA[
    .str0 {stroke:#2B2A29;stroke-width:7.8;stroke-miterlimit:22.9256}
    .fil0 {fill:none}
    .fil3 {fill:#E31E24}
    .fil2 {fill:#FEFEFE;fill-rule:nonzero}
    .fil5 {fill:#2B2A29;fill-rule:nonzero}
    .fil4 {fill:#E31E24;fill-rule:nonzero}
    .fil1 {fill:#002366;fill-rule:nonzero}
   ]]>
  </style>
 </defs>
 <g id="Layer_x0020_1">
  <metadata id="CorelCorpID_0Corel-Layer"/>
  <g id="_1606926968592">
   <line class="fil0 str0" x1="3540.06" y1="4.35" x2="3540.06" y2= "1176.88" />
   <g>
    <path class="fil1" d="M3540.06 440.96c82.65,0 149.66,67 149.66,149.66 0,82.65 -67,149.66 -149.66,149.66 -82.65,0 -149.66,-67 -149.66,-149.66 0,-82.65 67,-149.66 149.66,-149.66z"/>
    <path class="fil2" d="M3476.99 636.94l9.96 0c6.23,0 10.59,-1.52 13.12,-4.59 2.52,-3.04 3.79,-8.35 3.79,-15.9 0,-7.84 -1.38,-13.23 -4.14,-16.22 -2.75,-2.96 -7.89,-4.45 -15.47,-4.45l-7.26 0 0 41.16zm0 -58.55l8.09 0c6.06,0 10.25,-1.32 12.57,-3.96 2.29,-2.61 3.44,-7.46 3.44,-14.52 0,-6.34 -1.18,-10.68 -3.5,-13 -2.32,-2.32 -6.72,-3.47 -13.2,-3.47l-7.4 0 0 34.96zm-23.42 76.97l0 -129.5 38.78 0c11.08,0 19.34,2.59 24.74,7.75 5.42,5.14 8.12,13.09 8.12,23.79 0,8.55 -1.32,15.21 -3.99,19.92 -2.67,4.7 -6.66,7.55 -11.97,8.5 6.03,0.83 10.76,3.84 14.15,9.04 3.39,5.2 5.08,12.03 5.08,20.55 0,13.75 -2.87,23.82 -8.61,30.28 -5.74,6.46 -14.69,9.67 -26.86,9.67l-39.43 0zm115.29 0l0 -54.9 -33.92 -74.59 26.69 0 19.58 48.68 19.34 -48.68 26 0 -33.4 74.59 0 54.9 -24.28 0z"/>
   </g>
  </g>
  <g id="_1606926967344">
   <path class="fil1" d="M-0 494.5l0 192.24c0,31.82 25.89,57.71 57.71,57.71l61.64 0 11.71 0 13.63 0 57.56 0 17.01 0c43.41,0 78.93,-35.52 78.93,-78.93l0 -0c0,-34.75 -22.76,-64.43 -54.1,-74.9 31.34,-10.47 54.1,-40.16 54.1,-74.91l0 -0c0,-43.41 -35.52,-78.93 -78.93,-78.93l-17.01 0 -57.56 0 -13.63 0 -11.71 0 -61.64 0c-31.82,0 -57.71,25.82 -57.71,57.72l0 0zm2779.45 96.12c-4.03,-4.41 -8.02,-8.86 -12.01,-13.29 -7.31,-8.13 -25.94,-29.82 -36.83,-38.02l-7.42 0 0 23 -154.7 0 -98.88 0 -38.69 0 0 0 -18.07 0 0 73.93c0,59.47 48.74,108.22 108.22,108.22l80.72 0 98.44 0 0 -57.45 -98.44 0 -80.72 0c-28.3,0 -51.47,-22.48 -51.47,-50.78l0 -7.21 0 0 0 0 0 -10.04 98.88 0 154.7 0 0 23 7.35 0c10.87,-8.15 29.58,-29.92 36.9,-38.09 3.99,-4.43 7.98,-8.87 12.01,-13.28zm-508.52 97.08c-28.3,0 -51.47,-23.17 -51.47,-51.47l0 -199.45 -56.76 0 0 199.45c0,59.47 48.74,108.22 108.22,108.22l104.61 0 36.8 0 0 -56.76 -36.8 0 -104.61 0 0 0zm-379.98 -135.48l0 -7.22c0,-28.29 23.17,-51.47 51.47,-51.47l80.72 0 98.44 0 0 -56.76 -98.44 0 -80.72 0c-59.48,0 -108.22,48.75 -108.22,108.22l0 32.79 0 166.66 56.76 0 0 -135.56 78.59 0 152.05 0 0 -56.67 -152.05 0 0 0 -78.59 0zm-97.64 192.23l0 -307.67 -56.76 0 0 307.67 56.76 0zm-97.56 -307.67l-310.8 0 0 56.76 126.98 0 0 250.91 56.76 0 0 -250.91 127.06 0 0 -56.76zm-570.37 307.67l0 -243.06c0,-4.25 3.44,-7.86 7.77,-7.86l142.69 0c23.48,0 37.19,26.3 24.53,45.38 0,0 -0.08,0.08 -0.08,0.08 -0.96,1.53 -2.09,2.89 -3.37,4.17 0,0.07 0,0.07 0,0.07 -4.57,4.74 -34.7,21.35 -41.61,25.34 -12.81,7.39 -17.13,22.93 -11.62,36.72l55.56 139.16 62.69 0 -52.99 -133.8c-2.9,-7.34 4.67,-10.2 9.3,-12.83 42.91,-24.38 58.66,-82.79 26.86,-125.93 -16.13,-21.88 -41.69,-35.12 -69.26,-35.12l-149.99 0c-31.42,0 -57.24,25.58 -57.24,57.24l0 250.43 56.76 0 0 0zm-411.56 0l99.88 -234.4c4.44,-10.42 14.51,-16.51 25.81,-16.51 11.39,0 21.45,6.1 25.89,16.51l99.88 234.4 62.68 0 -111.11 -258.45c-13.17,-30.64 -43.93,-49.22 -77.36,-49.22 -33.35,0 -64.1,18.59 -77.27,49.22l-111.11 258.45 62.69 0 0 0zm-145.55 -184.15l-102.21 0 -71.67 0 0 -123.52 -56.76 0 0 307.67 56.76 0 0 -123.51 71.67 0 102.21 0 0 123.51 56.76 0 0 -307.67 -56.76 0 0 123.52zm-437.21 -66.76l13.63 0 65.81 0c16.04,0 29.34,14.84 29.34,32.73 0,21.56 -14.59,27.81 -28.38,37.11 -8.81,5.91 -13.79,15.75 -13.79,27.19 0,11.45 4.97,21.29 13.79,27.28 13.79,9.3 28.38,15.56 28.38,37.11 0,17.89 -13.3,32.73 -29.34,32.73l-65.81 0 -13.63 0 -65.98 0c-4.57,0 -8.34,-4.2 -8.34,-9.3l0 -56.16 0 -63.23 0 -56.16c0,-5.1 3.76,-9.31 8.34,-9.31l65.98 0zm2902.56 97.08c4.03,-4.41 8.02,-8.86 12,-13.29 7.31,-8.13 25.95,-29.82 36.83,-38.02l7.42 0 0 102.68 -7.35 0c-10.87,-8.15 -29.58,-29.92 -36.9,-38.09 -3.98,-4.43 -7.97,-8.87 -12,-13.28z"/>
   <path class="fil3" d="M3073.87 494.28c-15.35,1.33 -38.55,27.14 -61.74,52.96 -13.83,15.39 -27.65,30.79 -42.14,43.37 14.49,12.59 28.31,27.98 42.14,43.37 23.19,25.82 46.39,51.64 61.74,52.96l0 57.49c-40.27,-0.7 -72.34,-36.39 -104.38,-72.08 -23.81,-26.5 -47.62,-53.02 -62.96,-53.02 -15.34,0 -39.15,26.52 -62.96,53.02 -15.95,17.78 -31.89,35.51 -48.84,48.94l-0.72 0.57 -0.1 0.07 -0.82 0.64 -0.69 0.53 -0.12 0.09 -0.82 0.63 -0.67 0.5 -0.16 0.12 -0.83 0.61 -0.64 0.47 -0.18 0.13 -1.3 0.93 -0.15 0.11 -0.21 0.14 -0.83 0.58 -0.6 0.41 -0.24 0.16 -0.84 0.56 -0.58 0.38 -0.27 0.18 -1.37 0.89 -0.02 0.01 -0.3 0.19 -0.84 0.53 -0.53 0.33 -0.32 0.2 -0.85 0.51 -0.5 0.3 -0.35 0.21 -0.85 0.5 -0.48 0.27 -0.38 0.21 -0.86 0.48 -0.45 0.24 -1.28 0.69 -0.42 0.23 -0.44 0.23 -0.87 0.44 -0.4 0.2 -0.47 0.23 -0.87 0.43 -0.37 0.18 -0.15 0.07 -1.24 0.58 -0.34 0.15 -0.53 0.24 -0.89 0.39 -0.32 0.14 -0.16 0.07 -1.29 0.53 -0.29 0.12 -0.6 0.24 -0.89 0.35 -0.26 0.1 -0.64 0.23 -0.9 0.32 -0.23 0.09 -0.25 0.09 -1.31 0.44 -0.21 0.07 -1.6 0.5 -0.18 0.05 -0.73 0.21 -0.91 0.26 -0.15 0.04 -0.1 0.03 -1.58 0.41 -0.12 0.02 -1.7 0.4 -0.03 0 -0.09 0.02 -0.18 0.04 -1.58 0.33 -0.06 0.01 -1.8 0.33 -0.03 0 -0.05 0 -1.8 0.28 -0.94 0.12 -0.92 0.11 -0.03 0 -0.32 0.04 -1.46 0.14 -0.07 0.01 -0.06 0 -0.96 0.07 -0.86 0.05 -0.09 0.01 -1.8 0.07 -0.12 0.01 -1.7 0.02 -0.08 0 -0.16 0 -9.89 0 0 -57.45 9.89 0 0.16 -0.01c0.48,-0.01 0.98,-0.04 1.47,-0.09l0.41 -0.05 0.34 -0.05 0.18 -0.03c1.4,-0.23 2.86,-0.67 4.37,-1.26l0.18 -0.07 0.02 -0.01 0.72 -0.3 0.09 -0.04 0.14 -0.06 0.58 -0.26 0.12 -0.06 0.85 -0.41 0.21 -0.1 0.6 -0.3 0.05 -0.03 0.54 -0.3 0.33 -0.18 0.28 -0.16 0.6 -0.35 0.01 -0 0.61 -0.37 0.27 -0.16 0.35 -0.21 0.54 -0.34 0.08 -0.05 0.63 -0.41 0.2 -0.13 0.43 -0.28 0.48 -0.33 0.15 -0.11 0.64 -0.44 0.13 -0.09 0.51 -0.37 0.42 -0.3 0.23 -0.17 0.65 -0.48 0.06 -0.05 0.59 -0.45 0.35 -0.27 0.3 -0.24 0.65 -0.51 0.01 -0.01 0.67 -0.53 0.28 -0.23 0.38 -0.31 0.59 -0.48 0.09 -0.07 0.67 -0.57 0.21 -0.18 0.47 -0.4 0.52 -0.44 0.16 -0.14 0.69 -0.59 0.14 -0.12 0.54 -0.48 0.45 -0.4 0.25 -0.22 0.69 -0.63 0.07 -0.05 0.64 -0.58 0.38 -0.34 0.32 -0.31 0.69 -0.64 0.01 -0.02 0.71 -0.66 0.3 -0.28 0.41 -0.39 0.62 -0.59 0.09 -0.09 0.72 -0.69 0.22 -0.21 0.5 -0.48 0.55 -0.53 0.18 -0.17 0.72 -0.71 0.15 -0.14 0.58 -0.58 0.47 -0.47 0.25 -0.26 0.73 -0.73 0.07 -0.06 0.67 -0.67 0.39 -0.4 0.34 -0.35 0.72 -0.74 0.02 -0.02 0.74 -0.76 0.32 -0.32 0.43 -0.44 0.64 -0.67 0.1 -0.11 0 0c7.12,-7.42 14.51,-15.64 21.88,-23.86 13.83,-15.39 27.65,-30.78 42.14,-43.37 -14.49,-12.59 -28.31,-27.98 -42.14,-43.37 -23.81,-26.51 -47.62,-53.03 -62.96,-53.03l-172.43 0 0 -0.02 -44.29 0c-24.69,0 -45.65,16.97 -50.55,40.26l-57.33 0c5.35,-54.59 51.78,-97.68 107.71,-97.68l44.46 0 36.26 0 98.44 0 37.73 0c40.85,0 73.23,36.05 105.6,72.1 23.81,26.51 47.62,53.02 62.96,53.02 15.34,0 39.15,-26.52 62.96,-53.03 32.04,-35.69 64.11,-71.38 104.38,-72.08l0 57.49z"/>
  </g>
  <g id="_1606926968112">
   <g>
    <path class="fil3" d="M4975.78 606.38l-40.03 40.03c-5.31,5.31 -12.51,8.29 -20.02,8.29l-217.62 0c-7.51,0 -14.71,-2.98 -20.02,-8.29l-153.88 -153.88 -2.47 -2.82 -77.04 0c3.53,20.4 13.27,39.38 28.11,54.22l153.88 153.88c18.94,18.94 44.63,29.58 71.42,29.58l217.62 0c26.79,0 52.48,-10.64 71.42,-29.58l153.88 -153.88c18.94,-18.94 29.58,-44.63 29.58,-71.42l0 -77.17c0,-37.39 -30.59,-67.99 -67.99,-67.99l-126.85 0 -337.72 0 0 -206.34 40.03 -40.03c5.31,-5.31 12.51,-8.3 20.02,-8.3l217.62 0c7.51,0 14.71,2.98 20.02,8.3l153.88 153.88 2.47 2.82 77.04 0c-3.53,-20.4 -13.27,-39.38 -28.11,-54.22l-153.88 -153.88c-18.94,-18.94 -44.63,-29.58 -71.42,-29.58l-217.62 0c-26.79,0 -52.48,10.64 -71.42,29.58l-153.88 153.88c-18.94,18.94 -29.58,44.63 -29.58,71.42l0 72.46 -0 0 0 4.7c0,37.39 30.6,67.99 67.99,67.99l126.85 0 337.72 0 0 206.34zm-410.11 -278.73l0 -134.67 36.62 -36.89 0 171.56 -36.62 0zm482.5 72.09l0 134.67 -36.62 36.89 0 -171.56 36.62 0z"/>
    <g>
     <path class="fil4" d="M4891.61 108.47c5.45,0 10.68,1.09 15.69,3.27 5.01,2.18 9.32,5.18 12.92,8.99 3.6,3.82 6.48,8.23 8.66,13.24 2.18,5.01 3.27,10.35 3.27,16.02l0 28.45c0,5.67 -1.09,11.06 -3.27,16.19 -2.18,5.12 -5.07,9.54 -8.66,13.24 -3.6,3.71 -7.9,6.65 -12.92,8.83 -5.01,2.18 -10.24,3.27 -15.69,3.27l-72.2 0 0 -36.62 72.2 0c1.09,0 2.02,-0.49 2.78,-1.47 0.76,-0.98 1.14,-2.12 1.14,-3.43l0 -28.45c0,-1.31 -0.38,-2.45 -1.14,-3.43 -0.76,-0.98 -1.69,-1.47 -2.78,-1.47l-100.05 0 0 146.48 -36.62 0 0 -183.1 136.67 0z"/>
     <polygon class="fil3" points="4681.7,108.47 4718.32,108.47 4718.32,291.57 4681.7,291.57 "/>
    </g>
    <g>
     <path class="fil4" d="M4891.61 435.82c5.45,0 10.68,1.09 15.69,3.27 5.01,2.18 9.32,5.18 12.92,8.99 3.6,3.82 6.48,8.23 8.66,13.24 2.18,5.01 3.27,10.35 3.27,16.02l0 28.45c0,5.67 -1.09,11.06 -3.27,16.19 -2.18,5.12 -5.07,9.54 -8.66,13.24 -3.6,3.71 -7.9,6.65 -12.92,8.83 -5.01,2.18 -10.24,3.27 -15.69,3.27l-72.2 0 0 -36.62 72.2 0c1.09,0 2.02,-0.49 2.78,-1.47 0.76,-0.98 1.14,-2.13 1.14,-3.43l0 -28.45c0,-1.31 -0.38,-2.45 -1.14,-3.43 -0.76,-0.98 -1.69,-1.47 -2.78,-1.47l-100.05 0 0 146.48 -36.62 0 0 -183.1 136.67 0z"/>
     <polygon class="fil3" points="4681.7,435.82 4718.32,435.82 4718.32,618.92 4681.7,618.92 "/>
    </g>
   </g>
   <g>
    <path class="fil1" d="M4083.59 903.34l105.97 0c6.62,0 13.01,1.34 19.16,4.02 6.15,2.68 11.43,6.23 15.85,10.65 4.42,4.41 7.96,9.62 10.64,15.61 2.68,5.99 4.02,12.46 4.02,19.4l0 67.17c0,6.94 -1.34,13.4 -4.02,19.4 -2.68,6 -6.23,11.28 -10.64,15.85 -4.42,4.57 -9.7,8.12 -15.85,10.65 -6.15,2.52 -12.54,3.78 -19.16,3.78l-153.28 0 0 -52.99 149.97 0 0 -60.55 -105.97 0c-6.94,0 -13.4,-1.26 -19.4,-3.78 -5.99,-2.52 -11.27,-6.07 -15.85,-10.64 -4.57,-4.57 -8.12,-9.86 -10.65,-15.85 -2.52,-5.99 -3.78,-12.46 -3.78,-19.4l0 -54.41c0,-6.94 1.26,-13.4 3.78,-19.4 2.45,-5.99 5.99,-11.2 10.49,-15.61 4.57,-4.41 9.78,-7.96 15.77,-10.64 5.91,-2.68 12.3,-4.02 19.16,-4.02l145.24 0 0 52.98 -141.45 0 0 47.78z"/>
    <polygon class="fil1" points="4281.81,1067.51 4281.81,802.58 4334.79,802.58 4334.79,922.27 4386.36,922.27 4443.13,922.27 4443.13,802.58 4496.11,802.58 4496.11,1067.51 4443.13,1067.51 4443.13,975.25 4386.36,975.25 4334.79,975.25 4334.79,1067.51 "/>
    <path class="fil1" d="M4800.78 903.82c0,13.56 -3.78,25.63 -11.35,36.19 -7.57,10.56 -17.35,17.74 -29.33,21.52 9.78,16.09 17.03,33.59 21.76,52.51 4.73,18.92 7.1,36.74 7.1,53.46l-52.98 0c0,-8.83 -1.18,-19.16 -3.55,-30.99 -2.36,-11.82 -5.91,-23.1 -10.65,-33.83 -4.73,-10.72 -10.56,-19.87 -17.5,-27.44 -6.94,-7.57 -14.83,-11.35 -23.66,-11.35l-30.28 0 0 -52.99 92.25 0c1.58,0 2.91,-0.71 4.02,-2.13 1.1,-1.42 1.66,-3.08 1.66,-4.97l0 -41.16c0,-1.9 -0.55,-3.55 -1.66,-4.97 -1.1,-1.42 -2.44,-2.13 -4.02,-2.13l-144.77 0 0 211.94 -52.98 0 0 -264.93 197.35 0c8.2,0 15.85,1.58 22.95,4.73 7.1,3.15 13.33,7.49 18.61,13.01 5.36,5.52 9.62,11.91 12.78,19.16 3.15,7.26 4.73,14.98 4.73,23.18l0 41.16 -0.47 0z"/>
    <path class="fil1" d="M4937.02 968.16l0 -52.99 52.04 0 0 52.99 -52.04 0zm99.35 -165.58c6.94,0 13.4,1.34 19.4,4.02 5.99,2.68 11.2,6.23 15.61,10.64 4.42,4.42 7.96,9.62 10.65,15.61 2.68,6 4.02,12.46 4.02,19.4l0 165.58c0,6.94 -1.34,13.4 -4.02,19.4 -2.68,5.99 -6.23,11.27 -10.65,15.85 -4.42,4.57 -9.62,8.12 -15.61,10.64 -5.99,2.52 -12.46,3.79 -19.4,3.79l-147.13 0c-6.62,0 -13.01,-1.26 -19.16,-3.79 -6.15,-2.52 -11.43,-6.07 -15.85,-10.64 -4.42,-4.58 -7.97,-9.86 -10.65,-15.85 -2.68,-5.99 -4.02,-12.46 -4.02,-19.4l0 -165.58c0,-6.94 1.34,-13.4 4.02,-19.4 2.68,-5.99 6.23,-11.2 10.65,-15.61 4.42,-4.41 9.7,-7.96 15.85,-10.64 6.15,-2.68 12.54,-4.02 19.16,-4.02l147.13 0zm-3.31 52.98l-140.51 0 0 158.96 140.51 0 0 -158.96z"/>
    <path class="fil1" d="M5583.26 803.05l0 52.99 -142.4 0c-3.47,0 -6.39,1.1 -8.75,3.31 -2.36,2.21 -3.55,5.05 -3.55,8.52l0 40.68 154.7 0 0 52.98 -154.7 0 0 105.97 -52.98 0 0 -199.64c0,-8.83 1.73,-17.19 5.2,-25.08 3.47,-7.88 8.12,-14.82 13.95,-20.82 5.84,-5.99 12.69,-10.65 20.58,-13.96 7.89,-3.31 16.4,-4.97 25.55,-4.97l142.4 0z"/>
    <path class="fil1" d="M5339.18 803.05l0 52.99 -142.4 0c-3.47,0 -6.39,1.1 -8.75,3.31 -2.36,2.21 -3.55,5.05 -3.55,8.52l0 40.68 154.7 0 0 52.98 -154.7 0 0 105.97 -52.99 0 0 -199.64c0,-8.83 1.74,-17.19 5.2,-25.08 3.47,-7.88 8.12,-14.82 13.96,-20.82 5.84,-5.99 12.69,-10.65 20.58,-13.96 7.89,-3.31 16.4,-4.97 25.55,-4.97l142.4 0z"/>
   </g>
   <path class="fil1" d="M4280.94 1130.95l0 -0.21c0,-3.87 -0.66,-7.39 -1.99,-10.58 -1.32,-3.18 -3.22,-5.93 -5.69,-8.22 -2.47,-2.29 -5.48,-4.06 -9.03,-5.32 -3.54,-1.25 -7.57,-1.88 -12.09,-1.88l-30.72 0 0 75.2 16.54 0 0 -22.56 12.57 0c4.22,0 8.18,-0.55 11.87,-1.67 3.69,-1.11 6.91,-2.77 9.67,-4.99 2.75,-2.22 4.92,-4.98 6.5,-8.27 1.58,-3.3 2.36,-7.13 2.36,-11.5zm-16.76 0.32c0,3.22 -1.15,5.93 -3.44,8.11 -2.29,2.18 -5.51,3.28 -9.67,3.28l-13.11 0 0 -22.99 12.78 0c4.15,0 7.43,0.97 9.83,2.9 2.4,1.93 3.6,4.76 3.6,8.49l0 0.21zm94 48.66l-18.37 -26.86c4.8,-1.79 8.68,-4.6 11.66,-8.43 2.97,-3.83 4.46,-8.79 4.46,-14.88l0 -0.21c0,-7.81 -2.49,-13.9 -7.47,-18.26 -4.98,-4.37 -11.94,-6.55 -20.89,-6.55l-34.38 0 0 75.2 16.54 0 0 -24.07 13 0 16.11 24.07 19.34 0zm-19.02 -49.31c0,3.22 -1.09,5.8 -3.28,7.73 -2.18,1.93 -5.32,2.9 -9.4,2.9l-16.76 0 0 -21.6 16.44 0c4.08,0 7.27,0.9 9.56,2.69 2.29,1.79 3.44,4.48 3.44,8.06l0 0.22zm108.29 11.71l0 -0.21c0,-5.37 -0.98,-10.4 -2.95,-15.09 -1.97,-4.69 -4.73,-8.77 -8.27,-12.25 -3.55,-3.48 -7.75,-6.23 -12.62,-8.27 -4.87,-2.04 -10.2,-3.06 -16.01,-3.06 -5.8,0 -11.16,1.02 -16.06,3.06 -4.91,2.04 -9.13,4.83 -12.68,8.38 -3.55,3.55 -6.32,7.67 -8.32,12.35 -2.01,4.69 -3.01,9.72 -3.01,15.09l0 0.22c0,5.37 0.98,10.4 2.95,15.09 1.97,4.69 4.73,8.77 8.27,12.25 3.54,3.48 7.75,6.23 12.62,8.27 4.87,2.04 10.21,3.06 16.01,3.06 5.8,0 11.16,-1.02 16.06,-3.06 4.91,-2.04 9.13,-4.83 12.68,-8.38 3.54,-3.55 6.32,-7.67 8.32,-12.35 2.01,-4.69 3.01,-9.73 3.01,-15.1zm-17.3 0.22c0,3.22 -0.55,6.25 -1.67,9.08 -1.11,2.83 -2.65,5.32 -4.62,7.47 -1.97,2.15 -4.35,3.83 -7.14,5.05 -2.79,1.22 -5.84,1.83 -9.13,1.83 -3.37,0 -6.43,-0.62 -9.19,-1.88 -2.76,-1.25 -5.16,-2.95 -7.2,-5.1 -2.04,-2.15 -3.62,-4.65 -4.73,-7.52 -1.11,-2.86 -1.66,-5.91 -1.66,-9.13l0 -0.21c0,-3.22 0.55,-6.25 1.66,-9.08 1.11,-2.83 2.65,-5.32 4.62,-7.47 1.97,-2.15 4.33,-3.83 7.09,-5.05 2.76,-1.22 5.82,-1.83 9.19,-1.83 3.29,0 6.34,0.62 9.13,1.88 2.79,1.25 5.21,2.95 7.25,5.1 2.04,2.15 3.62,4.65 4.72,7.52 1.11,2.86 1.67,5.91 1.67,9.13l0 0.22zm98.09 25.24l-10.53 -10.63c-2.94,2.72 -5.89,4.87 -8.86,6.44 -2.97,1.58 -6.61,2.36 -10.9,2.36 -3.22,0 -6.18,-0.62 -8.86,-1.88 -2.68,-1.25 -4.98,-2.95 -6.88,-5.1 -1.9,-2.15 -3.38,-4.65 -4.46,-7.52 -1.07,-2.86 -1.61,-5.91 -1.61,-9.13l0 -0.21c0,-3.22 0.54,-6.25 1.61,-9.08 1.08,-2.83 2.58,-5.32 4.51,-7.47 1.93,-2.15 4.24,-3.83 6.93,-5.05 2.69,-1.22 5.61,-1.83 8.76,-1.83 3.8,0 7.22,0.75 10.26,2.25 3.04,1.51 6.03,3.58 8.97,6.23l10.52 -12.14c-1.72,-1.72 -3.58,-3.3 -5.59,-4.73 -2.01,-1.44 -4.19,-2.65 -6.55,-3.66 -2.36,-1 -4.99,-1.79 -7.9,-2.36 -2.9,-0.57 -6.11,-0.86 -9.62,-0.86 -5.8,0 -11.1,1.02 -15.9,3.06 -4.8,2.04 -8.92,4.83 -12.36,8.38 -3.44,3.55 -6.12,7.67 -8.06,12.35 -1.93,4.69 -2.9,9.72 -2.9,15.09l0 0.22c0,5.37 0.96,10.42 2.9,15.15 1.93,4.72 4.62,8.83 8.06,12.3 3.44,3.47 7.52,6.21 12.25,8.22 4.73,2.01 9.85,3.01 15.36,3.01 3.66,0 6.95,-0.3 9.89,-0.91 2.93,-0.61 5.64,-1.51 8.11,-2.69 2.47,-1.18 4.75,-2.59 6.82,-4.24 2.08,-1.65 4.08,-3.51 6.02,-5.59zm70.37 12.14l0 -14.72 -40.83 0 0 -15.79 35.45 0 0 -14.72 -35.45 0 0 -15.26 40.29 0 0 -14.71 -56.62 0 0 75.2 57.16 0zm69.18 -22.24l0 -0.21c0,-3.3 -0.52,-6.12 -1.56,-8.49 -1.04,-2.36 -2.6,-4.42 -4.64,-6.18 -2.04,-1.75 -4.57,-3.26 -7.54,-4.51 -2.97,-1.25 -6.37,-2.38 -10.19,-3.39 -3.22,-0.86 -5.89,-1.61 -8.02,-2.25 -2.11,-0.64 -3.78,-1.33 -5.02,-2.04 -1.22,-0.72 -2.06,-1.53 -2.52,-2.42 -0.46,-0.89 -0.7,-1.95 -0.7,-3.17l0 -0.21c0,-1.86 0.81,-3.42 2.42,-4.68 1.61,-1.25 4.03,-1.88 7.25,-1.88 3.22,0 6.44,0.66 9.67,1.99 3.23,1.33 6.52,3.13 9.89,5.43l8.59 -12.46c-3.87,-3.08 -8.11,-5.44 -12.73,-7.09 -4.62,-1.65 -9.69,-2.47 -15.2,-2.47 -3.87,0 -7.41,0.54 -10.62,1.61 -3.2,1.08 -5.98,2.61 -8.29,4.62 -2.31,2.01 -4.1,4.39 -5.39,7.15 -1.27,2.76 -1.92,5.86 -1.92,9.29l0 0.21c0,3.73 0.59,6.84 1.77,9.35 1.19,2.51 2.87,4.6 5.02,6.28 2.15,1.69 4.78,3.1 7.86,4.24 3.1,1.15 6.53,2.18 10.35,3.12 3.15,0.79 5.73,1.54 7.7,2.25 1.97,0.72 3.51,1.43 4.63,2.15 1.11,0.71 1.86,1.49 2.26,2.31 0.39,0.82 0.59,1.77 0.59,2.85l0 0.21c0,2.22 -0.95,3.96 -2.85,5.21 -1.9,1.26 -4.56,1.88 -8,1.88 -4.29,0 -8.25,-0.82 -11.87,-2.47 -3.62,-1.65 -7.14,-3.87 -10.58,-6.66l-9.78 11.71c4.51,4.08 9.53,7.11 15.04,9.08 5.52,1.97 11.14,2.96 16.87,2.96 4.08,0 7.81,-0.52 11.16,-1.56 3.35,-1.04 6.25,-2.54 8.66,-4.51 2.42,-1.97 4.3,-4.4 5.66,-7.31 1.35,-2.9 2.02,-6.21 2.02,-9.94zm68.75 0l0 -0.21c0,-3.3 -0.52,-6.12 -1.56,-8.49 -1.04,-2.36 -2.6,-4.42 -4.64,-6.18 -2.04,-1.75 -4.56,-3.26 -7.54,-4.51 -2.97,-1.25 -6.37,-2.38 -10.19,-3.39 -3.22,-0.86 -5.89,-1.61 -8.02,-2.25 -2.11,-0.64 -3.78,-1.33 -5.01,-2.04 -1.22,-0.72 -2.06,-1.53 -2.53,-2.42 -0.46,-0.89 -0.7,-1.95 -0.7,-3.17l0 -0.21c0,-1.86 0.81,-3.42 2.42,-4.68 1.61,-1.25 4.03,-1.88 7.25,-1.88 3.22,0 6.44,0.66 9.67,1.99 3.22,1.33 6.51,3.13 9.88,5.43l8.59 -12.46c-3.87,-3.08 -8.11,-5.44 -12.73,-7.09 -4.62,-1.65 -9.69,-2.47 -15.2,-2.47 -3.87,0 -7.41,0.54 -10.62,1.61 -3.2,1.08 -5.98,2.61 -8.29,4.62 -2.31,2.01 -4.1,4.39 -5.39,7.15 -1.27,2.76 -1.92,5.86 -1.92,9.29l0 0.21c0,3.73 0.59,6.84 1.77,9.35 1.18,2.51 2.86,4.6 5.01,6.28 2.15,1.69 4.78,3.1 7.86,4.24 3.1,1.15 6.53,2.18 10.35,3.12 3.15,0.79 5.73,1.54 7.7,2.25 1.97,0.72 3.51,1.43 4.63,2.15 1.11,0.71 1.86,1.49 2.26,2.31 0.39,0.82 0.59,1.77 0.59,2.85l0 0.21c0,2.22 -0.95,3.96 -2.85,5.21 -1.9,1.26 -4.56,1.88 -8,1.88 -4.3,0 -8.25,-0.82 -11.87,-2.47 -3.61,-1.65 -7.14,-3.87 -10.58,-6.66l-9.78 11.71c4.51,4.08 9.53,7.11 15.04,9.08 5.52,1.97 11.14,2.96 16.87,2.96 4.08,0 7.81,-0.52 11.16,-1.56 3.35,-1.04 6.25,-2.54 8.66,-4.51 2.42,-1.97 4.3,-4.4 5.66,-7.31 1.35,-2.9 2.02,-6.21 2.02,-9.94zm106.14 -26.75l0 -0.21c0,-3.87 -0.66,-7.39 -1.99,-10.58 -1.33,-3.18 -3.23,-5.93 -5.7,-8.22 -2.47,-2.29 -5.48,-4.06 -9.02,-5.32 -3.55,-1.25 -7.58,-1.88 -12.09,-1.88l-30.73 0 0 75.2 16.54 0 0 -22.56 12.57 0c4.22,0 8.18,-0.55 11.87,-1.67 3.69,-1.11 6.91,-2.77 9.67,-4.99 2.76,-2.22 4.92,-4.98 6.5,-8.27 1.58,-3.3 2.36,-7.13 2.36,-11.5zm-16.76 0.32c0,3.22 -1.15,5.93 -3.44,8.11 -2.29,2.18 -5.52,3.28 -9.67,3.28l-13.11 0 0 -22.99 12.79 0c4.15,0 7.43,0.97 9.83,2.9 2.4,1.93 3.6,4.76 3.6,8.49l0 0.21zm94 48.66l-18.37 -26.86c4.8,-1.79 8.68,-4.6 11.66,-8.43 2.97,-3.83 4.46,-8.79 4.46,-14.88l0 -0.21c0,-7.81 -2.49,-13.9 -7.47,-18.26 -4.98,-4.37 -11.94,-6.55 -20.9,-6.55l-34.38 0 0 75.2 16.54 0 0 -24.07 13 0 16.11 24.07 19.34 0zm-19.02 -49.31c0,3.22 -1.09,5.8 -3.28,7.73 -2.18,1.93 -5.31,2.9 -9.4,2.9l-16.76 0 0 -21.6 16.43 0c4.08,0 7.27,0.9 9.56,2.69 2.29,1.79 3.44,4.48 3.44,8.06l0 0.22zm108.29 11.71l0 -0.21c0,-5.37 -0.99,-10.4 -2.96,-15.09 -1.97,-4.69 -4.73,-8.77 -8.27,-12.25 -3.55,-3.48 -7.76,-6.23 -12.62,-8.27 -4.87,-2.04 -10.2,-3.06 -16.01,-3.06 -5.8,0 -11.15,1.02 -16.06,3.06 -4.9,2.04 -9.13,4.83 -12.67,8.38 -3.55,3.55 -6.32,7.67 -8.33,12.35 -2.01,4.69 -3.01,9.72 -3.01,15.09l0 0.22c0,5.37 0.98,10.4 2.95,15.09 1.97,4.69 4.73,8.77 8.27,12.25 3.55,3.48 7.75,6.23 12.62,8.27 4.87,2.04 10.2,3.06 16.01,3.06 5.8,0 11.16,-1.02 16.06,-3.06 4.9,-2.04 9.13,-4.83 12.67,-8.38 3.55,-3.55 6.32,-7.67 8.33,-12.35 2.01,-4.69 3.01,-9.73 3.01,-15.1zm-17.3 0.22c0,3.22 -0.56,6.25 -1.67,9.08 -1.11,2.83 -2.65,5.32 -4.62,7.47 -1.97,2.15 -4.35,3.83 -7.15,5.05 -2.79,1.22 -5.84,1.83 -9.13,1.83 -3.37,0 -6.42,-0.62 -9.18,-1.88 -2.76,-1.25 -5.16,-2.95 -7.2,-5.1 -2.04,-2.15 -3.62,-4.65 -4.73,-7.52 -1.11,-2.86 -1.67,-5.91 -1.67,-9.13l0 -0.21c0,-3.22 0.55,-6.25 1.67,-9.08 1.11,-2.83 2.65,-5.32 4.62,-7.47 1.97,-2.15 4.33,-3.83 7.09,-5.05 2.76,-1.22 5.82,-1.83 9.18,-1.83 3.3,0 6.34,0.62 9.13,1.88 2.79,1.25 5.21,2.95 7.25,5.1 2.04,2.15 3.62,4.65 4.73,7.52 1.11,2.86 1.67,5.91 1.67,9.13l0 0.22zm101.31 -0.22l0 -0.21c0,-5.3 -0.97,-10.22 -2.9,-14.77 -1.93,-4.55 -4.67,-8.51 -8.22,-11.87 -3.54,-3.37 -7.77,-6 -12.67,-7.9 -4.91,-1.9 -10.3,-2.84 -16.17,-2.84l-29.33 0 0 75.2 29.33 0c5.87,0 11.26,-0.97 16.17,-2.9 4.9,-1.93 9.13,-4.58 12.67,-7.95 3.55,-3.37 6.28,-7.34 8.22,-11.93 1.93,-4.58 2.9,-9.53 2.9,-14.83zm-17.3 0.22c0,3.36 -0.56,6.41 -1.67,9.13 -1.11,2.72 -2.65,5.09 -4.62,7.09 -1.97,2.01 -4.35,3.55 -7.15,4.62 -2.79,1.08 -5.87,1.61 -9.24,1.61l-12.78 0 0 -45.34 12.78 0c3.37,0 6.44,0.56 9.24,1.67 2.8,1.11 5.18,2.67 7.15,4.67 1.97,2.01 3.51,4.4 4.62,7.2 1.11,2.79 1.67,5.84 1.67,9.13l0 0.22zm96.37 4.62l0 -42.43 -16.54 0 0 43.08c0,6.02 -1.43,10.53 -4.3,13.54 -2.86,3.01 -6.84,4.51 -11.93,4.51 -5.08,0 -9.06,-1.56 -11.93,-4.67 -2.86,-3.12 -4.29,-7.76 -4.29,-13.91l0 -42.54 -16.54 0 0 42.97c0,11.1 2.9,19.45 8.7,25.03 5.8,5.59 13.75,8.38 23.85,8.38 5.01,0 9.56,-0.7 13.65,-2.09 4.08,-1.4 7.56,-3.51 10.42,-6.34 2.86,-2.83 5.07,-6.35 6.61,-10.58 1.54,-4.23 2.31,-9.21 2.31,-14.93zm82.93 20.62l-10.53 -10.63c-2.93,2.72 -5.89,4.87 -8.86,6.44 -2.98,1.58 -6.61,2.36 -10.91,2.36 -3.22,0 -6.18,-0.62 -8.86,-1.88 -2.68,-1.25 -4.98,-2.95 -6.87,-5.1 -1.9,-2.15 -3.39,-4.65 -4.46,-7.52 -1.08,-2.86 -1.61,-5.91 -1.61,-9.13l0 -0.21c0,-3.22 0.53,-6.25 1.61,-9.08 1.07,-2.83 2.58,-5.32 4.51,-7.47 1.93,-2.15 4.24,-3.83 6.93,-5.05 2.68,-1.22 5.6,-1.83 8.75,-1.83 3.8,0 7.22,0.75 10.26,2.25 3.05,1.51 6.03,3.58 8.97,6.23l10.53 -12.14c-1.72,-1.72 -3.58,-3.3 -5.59,-4.73 -2.01,-1.44 -4.19,-2.65 -6.55,-3.66 -2.36,-1 -5,-1.79 -7.9,-2.36 -2.9,-0.57 -6.11,-0.86 -9.61,-0.86 -5.8,0 -11.1,1.02 -15.9,3.06 -4.8,2.04 -8.92,4.83 -12.35,8.38 -3.44,3.55 -6.12,7.67 -8.06,12.35 -1.93,4.69 -2.9,9.72 -2.9,15.09l0 0.22c0,5.37 0.97,10.42 2.9,15.15 1.93,4.72 4.62,8.83 8.06,12.3 3.44,3.47 7.52,6.21 12.25,8.22 4.73,2.01 9.85,3.01 15.36,3.01 3.66,0 6.95,-0.3 9.89,-0.91 2.94,-0.61 5.64,-1.51 8.11,-2.69 2.47,-1.18 4.75,-2.59 6.82,-4.24 2.08,-1.65 4.08,-3.51 6.02,-5.59zm70.16 -47.81l0 -15.25 -62.31 0 0 15.25 22.88 0 0 59.95 16.54 0 0 -59.95 22.88 0zm67.03 37.71l0 -0.21c0,-3.3 -0.52,-6.12 -1.56,-8.49 -1.04,-2.36 -2.59,-4.42 -4.64,-6.18 -2.04,-1.75 -4.56,-3.26 -7.54,-4.51 -2.97,-1.25 -6.37,-2.38 -10.19,-3.39 -3.22,-0.86 -5.89,-1.61 -8.02,-2.25 -2.11,-0.64 -3.78,-1.33 -5.01,-2.04 -1.22,-0.72 -2.06,-1.53 -2.53,-2.42 -0.46,-0.89 -0.69,-1.95 -0.69,-3.17l0 -0.21c0,-1.86 0.8,-3.42 2.41,-4.68 1.61,-1.25 4.03,-1.88 7.25,-1.88 3.22,0 6.44,0.66 9.67,1.99 3.22,1.33 6.51,3.13 9.88,5.43l8.59 -12.46c-3.87,-3.08 -8.11,-5.44 -12.73,-7.09 -4.62,-1.65 -9.69,-2.47 -15.2,-2.47 -3.87,0 -7.41,0.54 -10.62,1.61 -3.2,1.08 -5.98,2.61 -8.29,4.62 -2.31,2.01 -4.1,4.39 -5.39,7.15 -1.27,2.76 -1.92,5.86 -1.92,9.29l0 0.21c0,3.73 0.59,6.84 1.77,9.35 1.18,2.51 2.86,4.6 5.01,6.28 2.15,1.69 4.78,3.1 7.86,4.24 3.1,1.15 6.53,2.18 10.35,3.12 3.15,0.79 5.73,1.54 7.7,2.25 1.97,0.72 3.51,1.43 4.64,2.15 1.11,0.71 1.86,1.49 2.25,2.31 0.39,0.82 0.59,1.77 0.59,2.85l0 0.21c0,2.22 -0.95,3.96 -2.84,5.21 -1.9,1.26 -4.57,1.88 -8,1.88 -4.3,0 -8.25,-0.82 -11.87,-2.47 -3.61,-1.65 -7.14,-3.87 -10.58,-6.66l-9.78 11.71c4.51,4.08 9.53,7.11 15.04,9.08 5.52,1.97 11.14,2.96 16.87,2.96 4.08,0 7.81,-0.52 11.16,-1.56 3.35,-1.04 6.25,-2.54 8.66,-4.51 2.42,-1.97 4.3,-4.4 5.66,-7.31 1.34,-2.9 2.02,-6.21 2.02,-9.94z"/>
   <path class="fil3" d="M4185.9 1119.98l-146.11 0 -9.18 19.96 155.3 0 0 -19.96zm0 44.72l-146.11 0 -9.18 -19.97 155.3 0 0 19.97z"/>
   <path class="fil3" d="M5427.96 1119.98l146.11 0 9.18 19.96 -155.3 0 0 -19.96zm0 44.72l146.11 0 9.18 -19.97 -155.3 0 0 19.97z"/>
  </g>
  <path class="fil5" d="M5259.87 0c11.91,0 23.53,3.05 34.9,9.18 11.34,6.1 20.2,14.87 26.53,26.23 6.32,11.4 9.5,23.28 9.5,35.61 0,12.23 -3.11,24.02 -9.38,35.29 -6.23,11.31 -14.96,20.07 -26.23,26.3 -11.27,6.26 -23.05,9.38 -35.32,9.38 -12.3,0 -24.08,-3.12 -35.35,-9.38 -11.27,-6.23 -20.04,-15 -26.3,-26.3 -6.26,-11.27 -9.41,-23.05 -9.41,-35.29 0,-12.33 3.18,-24.21 9.54,-35.61 6.39,-11.37 15.25,-20.13 26.59,-26.23 11.37,-6.13 22.99,-9.18 34.94,-9.18zm0 11.75c-9.99,0 -19.72,2.57 -29.16,7.67 -9.44,5.11 -16.82,12.42 -22.15,21.93 -5.33,9.51 -8,19.4 -8,29.67 0,10.24 2.63,20.04 7.87,29.41 5.24,9.38 12.55,16.7 21.96,21.93 9.41,5.24 19.24,7.87 29.48,7.87 10.21,0 20.04,-2.63 29.44,-7.87 9.41,-5.24 16.73,-12.55 21.93,-21.93 5.2,-9.38 7.8,-19.17 7.8,-29.41 0,-10.28 -2.66,-20.16 -7.96,-29.67 -5.3,-9.51 -12.69,-16.82 -22.16,-21.93 -9.47,-5.11 -19.17,-7.67 -29.06,-7.67zm-31.18 98.45l0 -76.3 26.27 0c8.99,0 15.48,0.71 19.49,2.12 4.05,1.41 7.22,3.85 9.63,7.38 2.38,3.5 3.57,7.22 3.57,11.17 0,5.55 -1.99,10.44 -6,14.55 -3.98,4.14 -9.28,6.46 -15.9,6.97 2.7,1.13 4.88,2.47 6.49,4.05 3.08,2.98 6.84,8.03 11.3,15.12l9.31 14.93 -14.96 0 -6.81 -12.01c-5.33,-9.48 -9.66,-15.41 -12.94,-17.79 -2.25,-1.73 -5.52,-2.6 -9.86,-2.57l-7.26 0 0 32.37 -12.33 0zm12.33 -42.96l14.96 0c7.16,0 12.04,-1.06 14.64,-3.18 2.6,-2.12 3.92,-4.95 3.92,-8.41 0,-2.25 -0.64,-4.27 -1.89,-6.04 -1.25,-1.79 -2.99,-3.11 -5.2,-3.98 -2.25,-0.87 -6.36,-1.32 -12.39,-1.32l-14.03 0 0 22.93z"/>
 </g>
</svg>
