<?xml version="1.0" encoding="UTF-8"?>
<!DOCTYPE svg PUBLIC "-//W3C//DTD SVG 1.1//EN" "http://www.w3.org/Graphics/SVG/1.1/DTD/svg11.dtd">
<!-- Creator: CorelDRAW X8 -->
<svg xmlns="http://www.w3.org/2000/svg" xml:space="preserve" width="143.125mm" height="30.2804mm" version="1.1" style="shape-rendering:geometricPrecision; text-rendering:geometricPrecision; image-rendering:optimizeQuality; fill-rule:evenodd; clip-rule:evenodd"
viewBox="0 0 14181 3000"
 xmlns:xlink="http://www.w3.org/1999/xlink">
 <defs>
  <style type="text/css">
   <![CDATA[
    .str0 {stroke:#2B2A29;stroke-width:19.8169}
    .fil0 {fill:none}
    .fil3 {fill:#E31E24}
    .fil2 {fill:#FEFEFE;fill-rule:nonzero}
    .fil4 {fill:#E31E24;fill-rule:nonzero}
    .fil1 {fill:#002366;fill-rule:nonzero}
   ]]>
  </style>
 </defs>
 <g id="Layer_x0020_1">
  <metadata id="CorelCorpID_0Corel-Layer"/>
  <g id="_2507925807120">
   <g>
    <line class="fil0 str0" x1="8992" y1="11" x2="8992" y2= "2989" />
    <g>
     <path class="fil1" d="M8992 1120c210,0 380,170 380,380 0,210 -170,380 -380,380 -210,0 -380,-170 -380,-380 0,-210 170,-380 380,-380z"/>
     <path class="fil2" d="M8832 1618l25 0c16,0 27,-4 33,-12 7,-8 10,-21 10,-40 0,-20 -4,-34 -11,-41 -7,-8 -20,-12 -39,-12l-18 0 0 105zm0 -149l20 0c15,0 26,-3 32,-10 6,-7 9,-19 9,-37 0,-16 -3,-27 -9,-33 -6,-6 -17,-9 -34,-9l-18 0 0 89zm-60 196l0 -329 99 0c28,0 49,6 62,19 14,13 21,34 21,61 0,22 -3,38 -10,50 -7,12 -17,20 -31,22 16,2 28,10 36,23 9,13 13,31 13,52 0,35 -7,61 -22,77 -14,16 -37,25 -68,25l-100 0zm293 0l0 -140 -86 -189 68 0 49 123 49 -123 66 0 -84 189 0 140 -62 0z"/>
    </g>
   </g>
   <g>
    <path class="fil1" d="M0 1256l0 488c0,81 66,147 147,147l156 0 30 0 35 0 146 0 43 0c110,0 200,-90 200,-201l0 0c0,-88 -57,-163 -137,-190 80,-26 137,-102 137,-190l0 0c0,-110 -90,-201 -200,-201l-43 0 -146 0 -35 0 -30 0 -156 0c-81,0 -147,66 -147,147l0 0zm7060 244c-10,-11 -21,-22 -31,-34 -18,-20 -66,-75 -93,-96l-19 0 0 58 -393 0 -251 0 -98 0 0 0 -46 0 0 188c0,151 123,275 275,275l205 0 250 0 0 -146 -250 0 -205 0c-72,0 -131,-57 -131,-129l0 -18 0 0 0 0 0 -26 251 0 393 0 0 59 19 0c27,-21 75,-76 93,-97 10,-11 21,-23 31,-34zm-1292 247c-72,0 -131,-59 -131,-131l0 -507 -144 0 0 507c0,151 124,275 275,275l266 0 93 0 0 -144 -93 0 -266 0 0 0zm-965 -344l0 -19c0,-72 59,-130 131,-130l205 0 250 0 0 -145 -250 0 -205 0c-151,0 -275,124 -275,275l0 84 0 423 144 0 0 -344 200 0 386 0 0 -144 -386 0 0 0 -200 0zm-248 488l0 -782 -144 0 0 782 144 0zm-248 -782l-789 0 0 145 322 0 0 637 144 0 0 -637 323 0 0 -145zm-1449 782l0 -617c0,-11 9,-20 20,-20l363 0c59,0 94,66 62,115 0,0 0,0 0,0 -3,4 -6,7 -9,11 0,0 0,0 0,0 -11,12 -88,54 -105,64 -33,19 -44,58 -30,93l141 354 159 0 -134 -340c-8,-19 12,-26 23,-33 109,-61 149,-210 69,-319 -41,-56 -106,-90 -176,-90l-381 0c-80,0 -146,65 -146,146l0 636 144 0 0 0zm-1045 0l254 -595c11,-27 37,-42 65,-42 29,0 55,15 66,42l254 595 159 0 -282 -657c-34,-77 -112,-125 -197,-125 -84,0 -162,48 -196,125l-282 657 159 0 0 0zm-370 -468l-259 0 -182 0 0 -314 -144 0 0 782 144 0 0 -314 182 0 259 0 0 314 145 0 0 -782 -145 0 0 314zm-1110 -169l35 0 167 0c40,0 74,37 74,83 0,54 -37,70 -72,94 -22,15 -35,40 -35,69 0,29 13,54 35,69 35,24 72,40 72,95 0,45 -34,83 -74,83l-167 0 -35 0 -168 0c-11,0 -21,-11 -21,-24l0 -143 0 -160 0 -143c0,-13 10,-23 21,-23l168 0zm7372 246c11,-11 21,-22 31,-34 18,-20 66,-75 93,-96l19 0 0 261 -18 0c-28,-21 -75,-76 -94,-97 -10,-11 -20,-23 -31,-34z"/>
    <path class="fil3" d="M7808 1255c-39,4 -98,69 -157,135 -35,39 -70,78 -107,110 37,32 72,71 107,110 59,66 118,131 157,135l0 146c-103,-2 -184,-93 -265,-183 -61,-68 -121,-135 -160,-135 -39,0 -100,67 -160,135 -41,45 -81,90 -124,124l-2 2 0 0 -3 1 -1 2 -1 0 -2 2 -1 1 -1 0 -2 2 -2 1 0 0 -3 3 -1 0 0 0 -2 2 -2 1 0 0 -3 2 -1 1 -1 0 -3 2 0 0 -1 1 -2 1 -2 1 0 0 -3 2 -1 1 -1 0 -2 1 -1 1 -1 1 -2 1 -1 0 -4 2 -1 1 -1 0 -2 1 -1 1 -1 1 -2 1 -1 0 -1 0 -3 2 -1 0 -1 1 -2 1 -1 0 -1 0 -3 2 -1 0 -1 0 -2 1 -1 1 -2 0 -2 1 -1 0 0 0 -3 2 -1 0 -4 1 -1 0 -1 1 -3 0 0 0 0 1 -4 1 -1 0 -4 1 0 0 0 0 -1 0 -4 1 0 0 -4 1 -1 0 0 0 -4 0 -3 1 -2 0 0 0 -1 0 -4 0 0 0 0 0 -2 0 -2 1 -1 0 -4 0 -1 0 -4 0 0 0 -1 0 -25 0 0 -146 25 0 1 0c1,0 2,0 4,0l1 0 0 -1 1 0c4,0 7,-1 11,-3l1 0 0 0 1 -1 1 0 0 0 1 -1 1 0 2 -1 0 0 2 -1 0 0 1 -1 1 0 1 -1 2 0 0 0 1 -1 1 -1 1 0 1 -1 0 0 2 -1 0 -1 1 0 2 -1 0 -1 2 -1 0 0 1 -1 1 -1 1 0 2 -1 0 0 1 -2 1 0 1 -1 2 -1 0 0 1 -2 1 0 1 -1 1 -1 1 0 1 -2 1 0 1 -1 1 -1 1 -1 2 -1 0 0 1 -2 2 -1 0 0 2 -2 0 0 2 -1 1 -1 0 -1 2 -2 0 0 2 -1 1 -1 1 -1 1 -2 1 0 2 -2 0 0 1 -1 2 -2 0 0 2 -2 0 0 2 -2 1 -1 1 -1 2 -2 0 0 1 -1 1 -1 1 -1 2 -2 0 0 2 -2 1 -1 1 -1 2 -2 0 0 0 0c18,-19 37,-40 55,-61 36,-39 71,-78 107,-110 -36,-32 -71,-71 -107,-110 -60,-67 -121,-135 -160,-135l-438 0 0 0 -112 0c-63,0 -116,43 -128,103l-146 0c14,-139 132,-249 274,-249l112 0 93 0 250 0 95 0c104,0 186,92 269,184 60,67 121,134 160,134 39,0 99,-67 160,-134 81,-91 162,-182 265,-184l0 146z"/>
   </g>
   <g>
    <g>
     <path class="fil3" d="M12638 1540l-101 102c-14,13 -32,21 -51,21l-553 0c-19,0 -37,-8 -51,-21l-390 -391 -7 -7 -195 0c9,52 33,100 71,138l391 390c48,49 113,76 181,76l553 0c68,0 133,-27 181,-76l391 -390c48,-49 75,-114 75,-182l0 -196c0,-95 -77,-173 -172,-173l-323 0 -857 0 0 -524 101 -101c14,-14 32,-21 51,-21l553 0c19,0 37,7 51,21l391 391 6 7 196 0c-9,-52 -34,-100 -72,-138l-391 -391c-48,-48 -113,-75 -181,-75l-553 0c-68,0 -133,27 -181,75l-391 391c-48,48 -75,113 -75,181l0 184 0 0 0 12c0,95 78,173 172,173l323 0 857 0 0 524zm-1041 -708l0 -342 93 -94 0 436 -93 0zm1225 183l0 342 -93 94 0 -436 93 0z"/>
     <g>
      <path class="fil4" d="M12425 276c14,0 27,2 40,8 12,5 23,13 32,23 9,9 17,21 22,33 6,13 9,27 9,41l0 72c0,15 -3,28 -9,41 -5,13 -13,25 -22,34 -9,9 -20,17 -32,22 -13,6 -26,9 -40,9l-184 0 0 -93 184 0c2,0 5,-2 7,-4 2,-3 3,-5 3,-9l0 -72c0,-3 -1,-6 -3,-9 -2,-2 -5,-3 -7,-3l-254 0 0 372 -93 0 0 -465 347 0z"/>
      <polygon class="fil3" points="11892,276 11985,276 11985,741 11892,741 "/>
     </g>
     <g>
      <path class="fil4" d="M12425 1107c14,0 27,3 40,8 12,6 23,13 32,23 9,10 17,21 22,34 6,12 9,26 9,40l0 73c0,14 -3,28 -9,41 -5,13 -13,24 -22,33 -9,10 -20,17 -32,23 -13,5 -26,8 -40,8l-184 0 0 -93 184 0c2,0 5,-1 7,-4 2,-2 3,-5 3,-8l0 -73c0,-3 -1,-6 -3,-8 -2,-3 -5,-4 -7,-4l-254 0 0 372 -93 0 0 -465 347 0z"/>
      <polygon class="fil3" points="11892,1107 11985,1107 11985,1572 11892,1572 "/>
     </g>
    </g>
    <g>
     <path class="fil1" d="M10372 2294l269 0c17,0 34,4 49,11 16,7 29,16 40,27 12,11 21,24 27,39 7,16 11,32 11,50l0 170c0,18 -4,34 -11,50 -6,15 -15,28 -27,40 -11,11 -24,20 -40,27 -15,6 -32,9 -49,9l-389 0 0 -134 381 0 0 -154 -269 0c-18,0 -34,-3 -49,-10 -16,-6 -29,-15 -41,-27 -11,-11 -20,-25 -27,-40 -6,-15 -9,-31 -9,-49l0 -138c0,-18 3,-34 9,-50 7,-15 16,-28 27,-39 12,-11 25,-20 40,-27 15,-7 31,-10 49,-10l369 0 0 134 -360 0 0 121z"/>
     <polygon class="fil1" points="10876,2711 10876,2039 11010,2039 11010,2343 11141,2343 11286,2343 11286,2039 11420,2039 11420,2711 11286,2711 11286,2477 11141,2477 11010,2477 11010,2711 "/>
     <path class="fil1" d="M12194 2296c0,34 -10,65 -29,92 -19,26 -44,45 -74,54 24,41 43,86 55,134 12,48 18,93 18,135l-135 0c0,-22 -3,-48 -9,-78 -6,-30 -15,-59 -27,-86 -12,-27 -27,-51 -44,-70 -18,-19 -38,-29 -60,-29l-77 0 0 -134 234 0c4,0 8,-2 10,-6 3,-3 5,-8 5,-12l0 -105c0,-5 -2,-9 -5,-12 -2,-4 -6,-6 -10,-6l-368 0 0 538 -134 0 0 -672 501 0c21,0 40,4 58,12 18,8 34,19 48,33 13,14 24,30 32,48 8,19 12,38 12,59l0 105 -1 0z"/>
     <path class="fil1" d="M12540 2459l0 -134 132 0 0 134 -132 0zm252 -420c18,0 34,3 50,10 15,7 28,16 39,27 12,11 21,24 27,39 7,16 11,32 11,50l0 420c0,18 -4,34 -11,50 -6,15 -15,28 -27,40 -11,11 -24,20 -39,27 -16,6 -32,9 -50,9l-373 0c-17,0 -33,-3 -49,-9 -16,-7 -29,-16 -40,-27 -11,-12 -20,-25 -27,-40 -7,-16 -10,-32 -10,-50l0 -420c0,-18 3,-34 10,-50 7,-15 16,-28 27,-39 11,-11 24,-20 40,-27 16,-7 32,-10 49,-10l373 0zm-8 134l-357 0 0 404 357 0 0 -404z"/>
     <path class="fil1" d="M14181 2040l0 134 -361 0c-9,0 -16,3 -22,9 -6,5 -9,13 -9,21l0 104 392 0 0 134 -392 0 0 269 -135 0 0 -507c0,-22 4,-43 13,-63 9,-20 21,-38 36,-53 14,-15 32,-27 52,-36 20,-8 42,-12 65,-12l361 0z"/>
     <path class="fil1" d="M13562 2040l0 134 -362 0c-9,0 -16,3 -22,9 -6,5 -9,13 -9,21l0 104 393 0 0 134 -393 0 0 269 -135 0 0 -507c0,-22 4,-43 13,-63 9,-20 21,-38 36,-53 15,-15 32,-27 52,-36 20,-8 42,-12 65,-12l362 0z"/>
    </g>
    <path class="fil1" d="M10874 2873l0 -1c0,-10 -2,-19 -5,-27 -4,-8 -9,-15 -15,-21 -6,-6 -14,-10 -23,-13 -9,-3 -19,-5 -31,-5l-78 0 0 191 42 0 0 -57 32 0c11,0 21,-2 31,-4 9,-3 17,-8 24,-13 7,-6 13,-13 17,-21 4,-9 6,-18 6,-29zm-43 0c0,9 -3,15 -9,21 -6,6 -14,8 -24,8l-34 0 0 -58 33 0c10,0 19,2 25,7 6,5 9,12 9,22l0 0zm239 124l-47 -68c12,-5 22,-12 30,-22 7,-9 11,-22 11,-37l0 -1c0,-20 -6,-35 -19,-46 -13,-11 -30,-17 -53,-17l-87 0 0 191 42 0 0 -61 33 0 41 61 49 0zm-49 -125c0,8 -2,15 -8,19 -5,5 -13,8 -24,8l-42 0 0 -55 41 0c11,0 19,2 25,7 6,4 8,11 8,20l0 1zm276 30l0 -1c0,-14 -3,-26 -8,-38 -5,-12 -12,-23 -21,-31 -9,-9 -20,-16 -32,-21 -12,-6 -26,-8 -41,-8 -14,0 -28,2 -40,8 -13,5 -24,12 -33,21 -9,9 -16,19 -21,31 -5,12 -7,25 -7,39l0 0c0,14 2,27 7,38 5,12 12,23 21,32 9,8 20,15 32,21 12,5 26,7 41,7 15,0 28,-2 41,-7 12,-6 23,-13 32,-22 9,-9 16,-19 21,-31 5,-12 8,-25 8,-38zm-44 0c0,8 -2,16 -5,23 -2,7 -6,14 -11,19 -5,6 -11,10 -18,13 -8,3 -15,5 -24,5 -8,0 -16,-2 -23,-5 -7,-3 -13,-8 -18,-13 -5,-6 -9,-12 -12,-19 -3,-8 -5,-15 -5,-23l0 -1c0,-8 2,-16 5,-23 3,-7 6,-14 11,-19 5,-5 11,-10 18,-13 7,-3 15,-4 24,-4 8,0 16,1 23,4 7,3 13,8 18,13 6,6 10,12 12,19 3,8 5,15 5,24l0 0zm249 64l-27 -27c-7,7 -15,13 -23,17 -7,4 -16,6 -27,6 -8,0 -16,-2 -23,-5 -7,-3 -12,-8 -17,-13 -5,-6 -9,-12 -12,-19 -2,-8 -4,-15 -4,-23l0 -1c0,-8 2,-16 4,-23 3,-7 7,-14 12,-19 5,-5 11,-10 18,-13 6,-3 14,-4 22,-4 9,0 18,1 26,5 8,4 15,9 23,16l26 -31c-4,-4 -9,-8 -14,-12 -5,-3 -10,-7 -16,-9 -6,-3 -13,-5 -21,-6 -7,-2 -15,-2 -24,-2 -15,0 -28,2 -40,8 -12,5 -23,12 -32,21 -8,9 -15,19 -20,31 -5,12 -8,25 -8,39l0 0c0,14 3,27 8,39 5,12 12,22 20,31 9,9 19,16 31,21 12,5 25,7 39,7 10,0 18,0 26,-2 7,-2 14,-4 20,-7 6,-3 12,-6 17,-11 6,-4 11,-9 16,-14zm178 31l0 -37 -103 0 0 -40 90 0 0 -38 -90 0 0 -39 102 0 0 -37 -144 0 0 191 145 0zm176 -56l0 -1c0,-8 -1,-16 -4,-22 -2,-6 -6,-11 -12,-15 -5,-5 -11,-9 -19,-12 -7,-3 -16,-6 -26,-8 -8,-2 -15,-4 -20,-6 -5,-2 -10,-3 -13,-5 -3,-2 -5,-4 -6,-6 -1,-3 -2,-5 -2,-8l0 -1c0,-5 2,-9 6,-12 4,-3 11,-5 19,-5 8,0 16,2 24,5 8,4 17,8 25,14l22 -31c-10,-8 -20,-14 -32,-18 -12,-5 -25,-7 -39,-7 -10,0 -19,2 -27,4 -8,3 -15,7 -21,12 -6,5 -10,11 -13,18 -4,7 -5,15 -5,24l0 0c0,10 1,18 4,24 3,7 7,12 13,16 5,4 12,8 20,11 8,3 16,5 26,8 8,2 15,4 20,6 5,1 9,3 12,5 2,2 4,4 5,6 1,2 2,4 2,7l0 1c0,5 -3,10 -7,13 -5,3 -12,5 -21,5 -11,0 -21,-2 -30,-7 -9,-4 -18,-9 -27,-17l-25 30c12,11 25,18 39,23 14,5 28,8 42,8 11,0 20,-2 29,-4 8,-3 16,-7 22,-12 6,-5 11,-11 14,-18 3,-8 5,-16 5,-25zm175 0l0 -1c0,-8 -1,-16 -4,-22 -3,-6 -7,-11 -12,-15 -5,-5 -11,-9 -19,-12 -8,-3 -16,-6 -26,-8 -8,-2 -15,-4 -20,-6 -6,-2 -10,-3 -13,-5 -3,-2 -5,-4 -6,-6 -2,-3 -2,-5 -2,-8l0 -1c0,-5 2,-9 6,-12 4,-3 10,-5 18,-5 9,0 17,2 25,5 8,4 16,8 25,14l22 -31c-10,-8 -21,-14 -32,-18 -12,-5 -25,-7 -39,-7 -10,0 -19,2 -27,4 -8,3 -15,7 -21,12 -6,5 -11,11 -14,18 -3,7 -5,15 -5,24l0 0c0,10 2,18 5,24 3,7 7,12 13,16 5,4 12,8 20,11 7,3 16,5 26,8 8,2 14,4 19,6 5,1 9,3 12,5 3,2 5,4 6,6 1,2 1,4 1,7l0 1c0,5 -2,10 -7,13 -5,3 -11,5 -20,5 -11,0 -21,-2 -30,-7 -10,-4 -18,-9 -27,-17l-25 30c11,11 24,18 38,23 14,5 28,8 43,8 10,0 20,-2 28,-4 9,-3 16,-7 22,-12 6,-5 11,-11 15,-18 3,-8 5,-16 5,-25zm269 -68l0 -1c0,-10 -1,-19 -5,-27 -3,-8 -8,-15 -14,-21 -6,-6 -14,-10 -23,-13 -9,-3 -19,-5 -31,-5l-78 0 0 191 42 0 0 -57 32 0c11,0 21,-2 30,-4 10,-3 18,-8 25,-13 7,-6 12,-13 16,-21 4,-9 6,-18 6,-29zm-42 0c0,9 -3,15 -9,21 -6,6 -14,8 -24,8l-34 0 0 -58 33 0c10,0 19,2 25,7 6,5 9,12 9,22l0 0zm239 124l-47 -68c12,-5 22,-12 30,-22 7,-9 11,-22 11,-37l0 -1c0,-20 -6,-35 -19,-46 -13,-11 -30,-17 -53,-17l-87 0 0 191 42 0 0 -61 33 0 41 61 49 0zm-49 -125c0,8 -2,15 -8,19 -6,5 -13,8 -24,8l-42 0 0 -55 41 0c11,0 19,2 25,7 5,4 8,11 8,20l0 1zm275 30l0 -1c0,-14 -2,-26 -7,-38 -5,-12 -12,-23 -21,-31 -9,-9 -20,-16 -32,-21 -13,-6 -26,-8 -41,-8 -15,0 -28,2 -41,8 -12,5 -23,12 -32,21 -9,9 -16,19 -21,31 -5,12 -8,25 -8,39l0 0c0,14 3,27 8,38 5,12 12,23 21,32 9,8 20,15 32,21 12,5 26,7 41,7 14,0 28,-2 40,-7 13,-6 24,-13 33,-22 9,-9 16,-19 21,-31 5,-12 7,-25 7,-38zm-44 0c0,8 -1,16 -4,23 -3,7 -6,14 -11,19 -5,6 -12,10 -19,13 -7,3 -14,5 -23,5 -8,0 -16,-2 -23,-5 -7,-3 -13,-8 -18,-13 -6,-6 -10,-12 -12,-19 -3,-8 -5,-15 -5,-23l0 -1c0,-8 2,-16 5,-23 2,-7 6,-14 11,-19 5,-5 11,-10 18,-13 7,-3 15,-4 24,-4 8,0 16,1 23,4 7,3 13,8 18,13 5,6 9,12 12,19 3,8 4,15 4,24l0 0zm258 0l0 -1c0,-13 -3,-26 -8,-38 -4,-11 -11,-21 -20,-30 -9,-8 -20,-15 -33,-20 -12,-5 -26,-7 -41,-7l-74 0 0 191 74 0c15,0 29,-2 41,-7 13,-5 24,-12 33,-21 9,-8 16,-18 20,-30 5,-11 8,-24 8,-37zm-44 0c0,9 -2,16 -4,23 -3,7 -7,13 -12,18 -5,5 -11,9 -18,12 -7,3 -15,4 -24,4l-32 0 0 -115 32 0c9,0 17,1 24,4 7,3 13,7 18,12 5,5 9,11 12,18 2,7 4,15 4,24l0 0zm245 12l0 -108 -42 0 0 109c0,16 -4,27 -11,35 -8,7 -18,11 -31,11 -12,0 -23,-4 -30,-12 -7,-7 -11,-19 -11,-35l0 -108 -42 0 0 109c0,28 8,50 22,64 15,14 35,21 61,21 13,0 24,-2 35,-5 10,-4 19,-9 26,-16 7,-8 13,-17 17,-27 4,-11 6,-24 6,-38zm210 52l-26 -27c-8,7 -15,13 -23,17 -8,4 -17,6 -28,6 -8,0 -15,-2 -22,-5 -7,-3 -13,-8 -18,-13 -4,-6 -8,-12 -11,-19 -3,-8 -4,-15 -4,-23l0 -1c0,-8 1,-16 4,-23 3,-7 7,-14 12,-19 4,-5 10,-10 17,-13 7,-3 14,-4 22,-4 10,0 19,1 26,5 8,4 16,9 23,16l27 -31c-4,-4 -9,-8 -14,-12 -5,-3 -11,-7 -17,-9 -6,-3 -13,-5 -20,-6 -7,-2 -15,-2 -24,-2 -15,0 -29,2 -41,8 -12,5 -22,12 -31,21 -9,9 -16,19 -21,31 -5,12 -7,25 -7,39l0 0c0,14 2,27 7,39 5,12 12,22 21,31 9,9 19,16 31,21 12,5 25,7 39,7 9,0 18,0 25,-2 8,-2 14,-4 21,-7 6,-3 12,-6 17,-11 5,-4 10,-9 15,-14zm178 -121l0 -39 -158 0 0 39 58 0 0 152 42 0 0 -152 58 0zm171 96l0 -1c0,-8 -2,-16 -4,-22 -3,-6 -7,-11 -12,-15 -5,-5 -12,-9 -19,-12 -8,-3 -16,-6 -26,-8 -8,-2 -15,-4 -20,-6 -6,-2 -10,-3 -13,-5 -3,-2 -5,-4 -7,-6 -1,-3 -1,-5 -1,-8l0 -1c0,-5 2,-9 6,-12 4,-3 10,-5 18,-5 8,0 17,2 25,5 8,4 16,8 25,14l22 -31c-10,-8 -21,-14 -33,-18 -11,-5 -24,-7 -38,-7 -10,0 -19,2 -27,4 -8,3 -15,7 -21,12 -6,5 -11,11 -14,18 -3,7 -5,15 -5,24l0 0c0,10 2,18 5,24 3,7 7,12 12,16 6,4 13,8 20,11 8,3 17,5 27,8 8,2 14,4 19,6 5,1 9,3 12,5 3,2 5,4 6,6 1,2 1,4 1,7l0 1c0,5 -2,10 -7,13 -5,3 -12,5 -20,5 -11,0 -21,-2 -30,-7 -10,-4 -19,-9 -27,-17l-25 30c11,11 24,18 38,23 14,5 28,8 43,8 10,0 20,-2 28,-4 9,-3 16,-7 22,-12 6,-5 11,-11 15,-18 3,-8 5,-16 5,-25z"/>
    <path class="fil3" d="M10632 2845l-371 0 -23 50 394 0 0 -50zm0 113l-371 0 -23 -50 394 0 0 50z"/>
    <path class="fil3" d="M13787 2845l371 0 23 50 -394 0 0 -50zm0 113l371 0 23 -50 -394 0 0 50z"/>
   </g>
  </g>
 </g>
</svg>
