<?xml version="1.0" encoding="UTF-8"?>
<!DOCTYPE svg PUBLIC "-//W3C//DTD SVG 1.1//EN" "http://www.w3.org/Graphics/SVG/1.1/DTD/svg11.dtd">
<!-- Creator: CorelDRAW -->
<svg xmlns="http://www.w3.org/2000/svg" xml:space="preserve" width="10.6519in" height="2.25359in" version="1.1" style="shape-rendering:geometricPrecision; text-rendering:geometricPrecision; image-rendering:optimizeQuality; fill-rule:evenodd; clip-rule:evenodd"
viewBox="0 0 10600.14 2242.63"
 xmlns:xlink="http://www.w3.org/1999/xlink"
 xmlns:xodm="http://www.corel.com/coreldraw/odm/2003">
 <defs>
  <style type="text/css">
   <![CDATA[
    .str0 {stroke:#2B2A29;stroke-width:7.84;stroke-miterlimit:22.9256}
    .fil0 {fill:none}
    .fil3 {fill:#E31E24}
    .fil2 {fill:#E31E24;fill-rule:nonzero}
    .fil1 {fill:white;fill-rule:nonzero}
   ]]>
  </style>
 </defs>
 <g id="Layer_x0020_1">
  <metadata id="CorelCorpID_0Corel-Layer"/>
  <g id="_2731379981488">
   <line class="fil0 str0" x1="6721.01" y1="8.25" x2="6721.01" y2= "2234.37" />
   <g>
    <path class="fil1" d="M6721.01 837.18c156.93,0 284.14,127.21 284.14,284.13 0,156.92 -127.21,284.13 -284.14,284.13 -156.92,0 -284.13,-127.21 -284.13,-284.13 0,-156.92 127.21,-284.13 284.13,-284.13z"/>
    <path class="fil2" d="M6601.27 1209.26l18.91 0c11.82,0 20.1,-2.89 24.9,-8.72 4.79,-5.77 7.19,-15.86 7.19,-30.19 0,-14.88 -2.61,-25.12 -7.85,-30.79 -5.23,-5.61 -14.98,-8.44 -29.36,-8.44l-13.78 0 0 78.13zm0 -111.16l15.36 0c11.5,0 19.46,-2.5 23.87,-7.52 4.36,-4.96 6.54,-14.17 6.54,-27.57 0,-12.04 -2.24,-20.27 -6.65,-24.69 -4.42,-4.41 -12.75,-6.59 -25.06,-6.59l-14.06 0 0 66.37zm-44.47 146.14l0 -245.85 73.62 0c21.03,0 36.72,4.91 46.97,14.72 10.3,9.75 15.42,24.85 15.42,45.17 0,16.24 -2.51,28.88 -7.58,37.82 -5.07,8.93 -12.64,14.33 -22.72,16.13 11.44,1.57 20.44,7.3 26.86,17.16 6.43,9.87 9.64,22.83 9.64,39.01 0,26.1 -5.44,45.22 -16.35,57.49 -10.9,12.26 -27.9,18.36 -51,18.36l-74.87 0zm218.88 0l0 -104.23 -64.4 -141.62 50.67 0 37.16 92.41 36.73 -92.41 49.36 0 -63.42 141.62 0 104.23 -46.11 0z"/>
   </g>
  </g>
  <g id="_2731379984752">
   <path class="fil1" d="M-0 938.83l0 364.98c0,60.41 49.16,109.58 109.58,109.58l117.02 0 22.25 0 25.87 0 109.28 0 32.29 0c82.42,0 149.85,-67.43 149.85,-149.85l0 -0.01c0,-65.97 -43.21,-122.32 -102.71,-142.2 59.5,-19.88 102.71,-76.24 102.71,-142.21l0 -0.01c0,-82.42 -67.44,-149.85 -149.85,-149.85l-32.29 0 -109.28 0 -25.87 0 -22.25 0 -117.02 0c-60.41,0 -109.58,49.01 -109.58,109.58l0 0zm5276.94 182.48c-7.65,-8.38 -15.24,-16.81 -22.79,-25.24 -13.87,-15.44 -49.26,-56.62 -69.91,-72.19l-14.1 0 0 43.68 -293.7 0 -187.72 0 -73.45 0 0 0 -34.3 0 0 140.35c0,112.91 92.54,205.47 205.47,205.47l153.26 0 186.89 0 0 -109.07 -186.89 0 -153.26 0c-53.72,0 -97.71,-42.67 -97.71,-96.4l0 -13.69 0 0 0 0 0 -19.06 187.72 0 293.7 0 0 43.67 13.96 0c20.64,-15.48 56.15,-56.81 70.06,-72.3 7.57,-8.42 15.14,-16.85 22.79,-25.22zm-965.44 184.32c-53.73,0 -97.72,-43.99 -97.72,-97.72l0 -378.67 -107.75 0 0 378.67c0,112.92 92.53,205.47 205.47,205.47l198.6 0 69.86 0 0 -107.75 -69.86 0 -198.6 0 0 0zm-721.42 -257.21l0 -13.7c0,-53.72 43.99,-97.72 97.72,-97.72l153.25 0 186.9 0 0 -107.75 -186.9 0 -153.25 0c-112.92,0 -205.47,92.55 -205.47,205.47l0 62.25 0 316.42 107.75 0 0 -257.36 149.2 0 288.67 0 0 -107.6 -288.67 0 0 0 -149.2 0zm-185.37 364.96l0 -584.13 -107.75 0 0 584.13 107.75 0zm-185.21 -584.13l-590.07 0 0 107.75 241.07 0 0 476.38 107.75 0 0 -476.38 241.24 0 0 -107.75zm-1082.89 584.13l0 -461.46c0,-8.07 6.54,-14.92 14.76,-14.92l270.91 0c44.59,0 70.61,49.93 46.57,86.15 0,0 -0.15,0.15 -0.15,0.15 -1.83,2.9 -3.96,5.48 -6.4,7.92 0,0.14 0,0.14 0,0.14 -8.67,8.99 -65.87,40.53 -78.99,48.1 -24.32,14.04 -32.51,43.54 -22.07,69.71l105.47 264.21 119.02 0 -100.6 -254.02c-5.51,-13.94 8.87,-19.37 17.65,-24.35 81.47,-46.3 111.37,-157.19 50.99,-239.09 -30.62,-41.53 -79.15,-66.67 -131.49,-66.67l-284.76 0c-59.65,0 -108.67,48.56 -108.67,108.67l0 475.46 107.76 0 0 0zm-781.37 0l189.63 -445.03c8.43,-19.79 27.55,-31.35 49,-31.35 21.62,0 40.73,11.58 49.17,31.35l189.63 445.03 119.02 0 -210.95 -490.68c-25,-58.17 -83.4,-93.45 -146.87,-93.45 -63.31,0 -121.7,35.29 -146.71,93.45l-210.95 490.68 119.02 0 0 0zm-276.32 -349.63l-194.05 0 -136.07 0 0 -234.51 -107.75 0 0 584.13 107.75 0 0 -234.5 136.07 0 194.05 0 0 234.5 107.75 0 0 -584.13 -107.75 0 0 234.51zm-830.07 -126.75l25.87 0 124.96 0c30.44,0 55.7,28.19 55.7,62.15 0,40.93 -27.69,52.8 -53.88,70.46 -16.73,11.22 -26.18,29.9 -26.18,51.63 0,21.73 9.44,40.42 26.18,51.79 26.19,17.65 53.88,29.55 53.88,70.47 0,33.95 -25.26,62.14 -55.7,62.14l-124.96 0 -25.87 0 -125.26 0c-8.68,0 -15.83,-7.97 -15.83,-17.65l0 -106.63 0 -120.04 0 -106.62c0,-9.68 7.15,-17.67 15.83,-17.67l125.26 0zm5510.67 184.31c7.65,-8.38 15.24,-16.81 22.79,-25.24 13.87,-15.44 49.26,-56.62 69.91,-72.19l14.1 0 0 194.95 -13.95 0c-20.64,-15.48 -56.15,-56.81 -70.06,-72.3 -7.57,-8.42 -15.14,-16.85 -22.79,-25.22z"/>
   <path class="fil3" d="M5835.93 938.41c-29.15,2.52 -73.19,51.53 -117.21,100.56 -26.25,29.23 -52.5,58.45 -80,82.35 27.51,23.91 53.75,53.11 80,82.34 44.02,49.03 88.06,98.04 117.21,100.56l0 109.15c-76.45,-1.34 -137.33,-69.1 -198.17,-136.85 -45.2,-50.32 -90.4,-100.66 -119.53,-100.66 -29.13,0 -74.33,50.34 -119.53,100.66 -30.28,33.75 -60.54,67.42 -92.72,92.92l-1.36 1.09 -0.19 0.14 -1.56 1.21 -1.32 1.01 -0.24 0.18 -1.57 1.19 -1.28 0.96 -0.3 0.22 -1.57 1.16 -1.23 0.89 -0.35 0.25 -2.46 1.77 -0.29 0.2 -0.4 0.28 -1.59 1.1 -1.13 0.78 -0.45 0.31 -1.59 1.07 -1.09 0.72 -0.51 0.34 -2.61 1.69 -0.03 0.02 -0.56 0.36 -1.6 1.01 -1 0.62 -0.62 0.38 -1.61 0.98 -0.95 0.57 -0.67 0.4 -1.63 0.95 -0.9 0.52 -0.72 0.41 -1.63 0.92 -0.85 0.46 -2.43 1.3 -0.8 0.43 -0.84 0.43 -1.64 0.85 -0.76 0.38 -0.9 0.44 -1.66 0.8 -0.7 0.34 -0.28 0.13 -2.35 1.1 -0.65 0.29 -1.01 0.45 -1.68 0.73 -0.6 0.26 -0.3 0.13 -2.46 1.01 -0.55 0.22 -1.14 0.45 -1.69 0.66 -0.49 0.18 -1.21 0.44 -1.7 0.61 -0.44 0.16 -0.49 0.16 -2.48 0.84 -0.4 0.13 -3.04 0.96 -0.34 0.1 -1.39 0.4 -1.73 0.49 -0.28 0.08 -0.19 0.05 -3 0.78 -0.22 0.05 -3.23 0.76 -0.05 0.01 -0.16 0.04 -0.35 0.07 -3 0.63 -0.11 0.02 -3.42 0.62 -0.06 0.01 -0.09 0.01 -3.42 0.52 -1.79 0.23 -1.74 0.21 -0.05 0 -0.6 0.07 -2.77 0.27 -0.13 0.01 -0.11 0.01 -1.82 0.14 -1.64 0.11 -0.18 0.01 -3.42 0.14 -0.23 0.01 -3.24 0.05 -0.14 0 -0.3 0 -18.77 0 0 -109.07 18.77 0 0.3 -0.01c0.91,-0.02 1.85,-0.07 2.78,-0.17l0.78 -0.1 0.65 -0.1 0.35 -0.05c2.66,-0.45 5.43,-1.27 8.3,-2.4l0.34 -0.14 0.04 -0.02 1.36 -0.57 0.17 -0.07 0.26 -0.12 1.1 -0.49 0.23 -0.11 1.61 -0.78 0.4 -0.19 1.13 -0.58 0.11 -0.06 1.03 -0.56 0.62 -0.34 0.53 -0.3 1.14 -0.66 0.02 -0.01 1.16 -0.7 0.5 -0.31 0.67 -0.4 1.03 -0.66 0.15 -0.1 1.19 -0.77 0.38 -0.25 0.81 -0.54 0.92 -0.63 0.29 -0.2 1.22 -0.85 0.24 -0.17 0.98 -0.7 0.8 -0.58 0.43 -0.32 1.23 -0.92 0.12 -0.09 1.12 -0.85 0.68 -0.51 0.58 -0.45 1.23 -0.97 0.02 -0.02 1.27 -1 0.54 -0.43 0.72 -0.6 1.11 -0.91 0.16 -0.13 1.29 -1.07 0.41 -0.34 0.89 -0.75 0.99 -0.84 0.31 -0.27 1.3 -1.13 0.27 -0.23 1.03 -0.92 0.86 -0.75 0.47 -0.42 1.31 -1.19 0.13 -0.11 1.21 -1.1 0.72 -0.65 0.62 -0.58 1.31 -1.21 0.02 -0.03 1.34 -1.26 0.58 -0.54 0.77 -0.74 1.18 -1.12 0.17 -0.17 1.36 -1.3 0.43 -0.41 0.94 -0.91 1.03 -1.01 0.34 -0.33 1.37 -1.35 0.28 -0.27 1.09 -1.09 0.9 -0.89 0.48 -0.49 1.39 -1.39 0.13 -0.12 1.27 -1.29 0.74 -0.75 0.65 -0.67 1.37 -1.4 0.03 -0.03 1.4 -1.45 0.6 -0.61 0.81 -0.84 1.23 -1.27 0.18 -0.2 0.01 0c13.52,-14.1 27.54,-29.7 41.55,-45.3 26.25,-29.22 52.5,-58.43 80,-82.34 -27.51,-23.9 -53.75,-53.12 -80,-82.34 -45.2,-50.33 -90.41,-100.67 -119.53,-100.67l-327.37 0 0 -0.04 -84.08 0c-46.88,0 -86.67,32.21 -95.98,76.43l-108.85 0c10.16,-103.65 98.3,-185.46 204.48,-185.46l84.42 0 68.83 0 186.9 0 71.64 0c77.55,0 139.03,68.45 200.48,136.89 45.2,50.32 90.41,100.66 119.53,100.66 29.12,0 74.33,-50.35 119.53,-100.67 60.83,-67.75 121.72,-135.51 198.17,-136.85l0 109.14z"/>
  </g>
  <g id="_2731379958880">
   <g>
    <path class="fil3" d="M9446.82 1151.24l-75.99 75.99c-10.08,10.08 -23.75,15.75 -38.02,15.75l-413.16 0c-14.26,0 -27.93,-5.67 -38.02,-15.75l-292.15 -292.15 -4.69 -5.36 -146.26 0c6.7,38.74 25.2,74.77 53.37,102.94l292.15 292.15c35.97,35.96 84.74,56.17 135.6,56.17l413.16 0c50.86,0 99.64,-20.2 135.6,-56.17l292.15 -292.15c35.96,-35.97 56.16,-84.74 56.16,-135.6l0 -146.51c0,-70.99 -58.08,-129.07 -129.07,-129.07l-240.83 0 -641.18 0 0 -391.75 75.99 -75.99c10.08,-10.08 23.76,-15.75 38.02,-15.75l413.16 0c14.26,0 27.93,5.66 38.01,15.75l292.15 292.15 4.69 5.36 146.26 0c-6.7,-38.74 -25.19,-74.77 -53.37,-102.94l-292.15 -292.15c-35.96,-35.96 -84.74,-56.17 -135.6,-56.17l-413.16 0c-50.86,0 -99.64,20.2 -135.6,56.17l-292.15 292.15c-35.96,35.96 -56.17,84.74 -56.17,135.6l0 137.58 0 0 0 8.93c0,70.99 58.08,129.07 129.07,129.07l240.83 0 641.18 0 0 391.75zm-778.62 -529.18l0 -255.68 69.53 -70.03 0 325.72 -69.53 0zm916.05 136.87l0 255.68 -69.53 70.03 0 -325.72 69.53 0z"/>
    <g>
     <path class="fil2" d="M9287 205.93c10.35,0 20.28,2.07 29.8,6.21 9.52,4.14 17.69,9.83 24.52,17.07 6.83,7.24 12.31,15.62 16.45,25.14 4.14,9.52 6.21,19.66 6.21,30.42l0 54.01c0,10.76 -2.07,21 -6.21,30.73 -4.14,9.72 -9.62,18.1 -16.45,25.14 -6.83,7.03 -15,12.62 -24.52,16.76 -9.52,4.14 -19.45,6.21 -29.8,6.21l-137.07 0 0 -69.53 137.07 0c2.07,0 3.83,-0.93 5.28,-2.79 1.45,-1.86 2.17,-4.04 2.17,-6.52l0 -54.01c0,-2.48 -0.72,-4.65 -2.17,-6.52 -1.45,-1.86 -3.21,-2.79 -5.28,-2.79l-189.95 0 0 278.1 -69.52 0 0 -347.62 259.48 0z"/>
     <polygon class="fil3" points="8888.48,205.93 8958,205.93 8958,553.56 8888.48,553.56 "/>
    </g>
    <g>
     <path class="fil2" d="M9287 827.42c10.35,0 20.28,2.07 29.8,6.21 9.52,4.14 17.69,9.83 24.52,17.07 6.83,7.24 12.31,15.62 16.45,25.14 4.14,9.52 6.21,19.66 6.21,30.42l0 54.01c0,10.76 -2.07,21 -6.21,30.73 -4.14,9.72 -9.62,18.1 -16.45,25.14 -6.83,7.03 -15,12.62 -24.52,16.76 -9.52,4.14 -19.45,6.21 -29.8,6.21l-137.07 0 0 -69.53 137.07 0c2.07,0 3.83,-0.93 5.28,-2.79 1.45,-1.86 2.17,-4.04 2.17,-6.52l0 -54.01c0,-2.48 -0.72,-4.65 -2.17,-6.52 -1.45,-1.86 -3.21,-2.79 -5.28,-2.79l-189.95 0 0 278.1 -69.52 0 0 -347.62 259.48 0z"/>
     <polygon class="fil3" points="8888.48,827.42 8958,827.42 8958,1175.05 8888.48,1175.05 "/>
    </g>
   </g>
   <g>
    <path class="fil1" d="M7752.92 1715.05l201.19 0c12.58,0 24.7,2.54 36.38,7.63 11.68,5.09 21.7,11.83 30.09,20.21 8.38,8.38 15.12,18.26 20.21,29.64 5.09,11.37 7.64,23.65 7.64,36.82l0 127.54c0,13.18 -2.55,25.45 -7.64,36.82 -5.09,11.38 -11.83,21.41 -20.21,30.09 -8.38,8.68 -18.41,15.42 -30.09,20.21 -11.68,4.79 -23.8,7.19 -36.38,7.19l-291.01 0 0 -100.6 284.72 0 0 -114.97 -201.19 0c-13.18,0 -25.45,-2.4 -36.83,-7.19 -11.37,-4.79 -21.41,-11.53 -30.09,-20.21 -8.68,-8.68 -15.42,-18.72 -20.21,-30.09 -4.79,-11.37 -7.18,-23.65 -7.18,-36.82l0 -103.29c0,-13.17 2.39,-25.44 7.18,-36.82 4.64,-11.38 11.38,-21.25 19.91,-29.64 8.68,-8.38 18.56,-15.12 29.94,-20.21 11.22,-5.09 23.35,-7.64 36.37,-7.64l275.74 0 0 100.6 -268.55 0 0 90.72z"/>
    <polygon class="fil1" points="8129.25,2026.72 8129.25,1523.74 8229.85,1523.74 8229.85,1750.97 8327.75,1750.97 8435.53,1750.97 8435.53,1523.74 8536.13,1523.74 8536.13,2026.72 8435.53,2026.72 8435.53,1851.57 8327.75,1851.57 8229.85,1851.57 8229.85,2026.72 "/>
    <path class="fil1" d="M9114.55 1715.95c0,25.75 -7.18,48.65 -21.55,68.71 -14.37,20.06 -32.93,33.69 -55.69,40.87 18.56,30.54 32.33,63.77 41.31,99.7 8.98,35.93 13.47,69.76 13.47,101.5l-100.59 0c0,-16.77 -2.25,-36.38 -6.74,-58.83 -4.49,-22.45 -11.22,-43.86 -20.21,-64.22 -8.98,-20.36 -20.06,-37.73 -33.23,-52.09 -13.18,-14.37 -28.15,-21.56 -44.91,-21.56l-57.48 0 0 -100.59 175.14 0c2.99,0 5.54,-1.35 7.63,-4.04 2.1,-2.7 3.15,-5.84 3.15,-9.43l0 -78.14c0,-3.59 -1.05,-6.73 -3.15,-9.43 -2.1,-2.69 -4.64,-4.04 -7.63,-4.04l-274.84 0 0 402.38 -100.6 0 0 -502.98 374.69 0c15.57,0 30.09,3 43.56,8.98 13.47,5.99 25.3,14.22 35.33,24.7 10.18,10.48 18.27,22.61 24.25,36.38 5.99,13.77 8.98,28.44 8.98,44.01l0 78.14 -0.9 0z"/>
    <path class="fil1" d="M9373.23 1838.1l0 -100.6 98.8 0 0 100.6 -98.8 0zm188.62 -314.36c13.17,0 25.45,2.55 36.82,7.64 11.38,5.09 21.26,11.83 29.64,20.21 8.38,8.38 15.12,18.26 20.21,29.64 5.09,11.38 7.63,23.65 7.63,36.82l0 314.36c0,13.17 -2.55,25.45 -7.63,36.82 -5.09,11.38 -11.83,21.41 -20.21,30.09 -8.38,8.68 -18.26,15.42 -29.64,20.2 -11.37,4.79 -23.65,7.19 -36.82,7.19l-279.33 0c-12.57,0 -24.7,-2.4 -36.38,-7.19 -11.68,-4.79 -21.7,-11.53 -30.09,-20.2 -8.38,-8.69 -15.12,-18.72 -20.21,-30.09 -5.09,-11.37 -7.63,-23.65 -7.63,-36.82l0 -314.36c0,-13.17 2.54,-25.44 7.63,-36.82 5.09,-11.38 11.83,-21.25 20.21,-29.64 8.38,-8.38 18.41,-15.12 30.09,-20.21 11.68,-5.09 23.8,-7.64 36.38,-7.64l279.33 0zm-6.29 100.6l-266.76 0 0 301.79 266.76 0 0 -301.79z"/>
    <path class="fil1" d="M10600.14 1524.64l0 100.6 -270.35 0c-6.59,0 -12.13,2.1 -16.62,6.29 -4.49,4.19 -6.74,9.58 -6.74,16.17l0 77.24 293.71 0 0 100.6 -293.71 0 0 201.19 -100.59 0 0 -379.03c0,-16.76 3.29,-32.64 9.88,-47.61 6.59,-14.97 15.42,-28.14 26.5,-39.52 11.08,-11.38 24.1,-20.21 39.07,-26.5 14.97,-6.29 31.14,-9.43 48.5,-9.43l270.35 0z"/>
    <path class="fil1" d="M10136.75 1524.64l0 100.6 -270.35 0c-6.59,0 -12.13,2.1 -16.62,6.29 -4.49,4.19 -6.73,9.58 -6.73,16.17l0 77.24 293.7 0 0 100.6 -293.7 0 0 201.19 -100.6 0 0 -379.03c0,-16.76 3.29,-32.64 9.88,-47.61 6.59,-14.97 15.42,-28.14 26.5,-39.52 11.08,-11.38 24.1,-20.21 39.07,-26.5 14.97,-6.29 31.14,-9.43 48.5,-9.43l270.35 0z"/>
   </g>
   <path class="fil1" d="M8127.62 2147.18l0 -0.41c0,-7.34 -1.26,-14.04 -3.77,-20.09 -2.52,-6.05 -6.12,-11.25 -10.81,-15.6 -4.69,-4.35 -10.4,-7.71 -17.13,-10.1 -6.73,-2.38 -14.38,-3.57 -22.94,-3.57l-58.34 0 0 142.77 31.41 0 0 -42.83 23.86 0c8.02,0 15.54,-1.05 22.54,-3.16 7,-2.11 13.12,-5.27 18.36,-9.49 5.23,-4.22 9.34,-9.45 12.34,-15.71 2.99,-6.25 4.49,-13.53 4.49,-21.82zm-31.82 0.61c0,6.12 -2.17,11.25 -6.53,15.4 -4.35,4.15 -10.47,6.22 -18.36,6.22l-24.89 0 0 -43.65 24.27 0c7.89,0 14.11,1.84 18.66,5.51 4.56,3.67 6.83,9.04 6.83,16.11l0 0.41zm178.47 92.39l-34.88 -50.99c9.11,-3.4 16.49,-8.74 22.13,-16.01 5.65,-7.28 8.47,-16.69 8.47,-28.25l0 -0.41c0,-14.82 -4.72,-26.38 -14.17,-34.67 -9.45,-8.29 -22.67,-12.44 -39.67,-12.44l-65.27 0 0 142.77 31.41 0 0 -45.69 24.68 0 30.6 45.69 36.71 0zm-36.1 -93.62c0,6.12 -2.07,11.01 -6.22,14.68 -4.15,3.67 -10.1,5.5 -17.85,5.5l-31.82 0 0 -41 31.21 0c7.75,0 13.8,1.7 18.16,5.1 4.35,3.4 6.53,8.5 6.53,15.3l0 0.41zm205.6 22.23l0 -0.41c0,-10.2 -1.87,-19.75 -5.61,-28.66 -3.74,-8.9 -8.98,-16.65 -15.7,-23.25 -6.73,-6.6 -14.72,-11.83 -23.97,-15.71 -9.25,-3.87 -19.37,-5.81 -30.39,-5.81 -11.01,0 -21.18,1.94 -30.49,5.81 -9.31,3.87 -17.33,9.18 -24.07,15.91 -6.73,6.73 -12,14.55 -15.8,23.46 -3.81,8.91 -5.71,18.46 -5.71,28.66l0 0.41c0,10.2 1.87,19.75 5.61,28.66 3.74,8.91 8.98,16.66 15.71,23.25 6.73,6.6 14.72,11.83 23.97,15.71 9.25,3.88 19.38,5.81 30.39,5.81 11.02,0 21.18,-1.94 30.49,-5.81 9.32,-3.87 17.34,-9.18 24.07,-15.91 6.73,-6.73 12,-14.55 15.8,-23.46 3.81,-8.9 5.71,-18.46 5.71,-28.66zm-32.84 0.41c0,6.12 -1.05,11.87 -3.16,17.24 -2.11,5.37 -5.03,10.09 -8.77,14.17 -3.74,4.08 -8.26,7.28 -13.56,9.59 -5.3,2.31 -11.08,3.47 -17.34,3.47 -6.39,0 -12.2,-1.19 -17.44,-3.57 -5.23,-2.38 -9.79,-5.61 -13.67,-9.68 -3.87,-4.08 -6.86,-8.84 -8.97,-14.28 -2.11,-5.44 -3.16,-11.22 -3.16,-17.34l0 -0.41c0,-6.12 1.05,-11.86 3.16,-17.23 2.11,-5.37 5.03,-10.1 8.77,-14.17 3.74,-4.08 8.23,-7.28 13.46,-9.59 5.24,-2.31 11.05,-3.47 17.44,-3.47 6.26,0 12.04,1.19 17.34,3.57 5.3,2.38 9.89,5.61 13.77,9.69 3.88,4.08 6.87,8.84 8.98,14.28 2.11,5.44 3.16,11.22 3.16,17.34l0 0.41zm186.22 47.94l-19.99 -20.19c-5.58,5.16 -11.18,9.25 -16.82,12.24 -5.65,2.99 -12.55,4.49 -20.71,4.49 -6.12,0 -11.73,-1.19 -16.83,-3.57 -5.1,-2.38 -9.45,-5.61 -13.05,-9.68 -3.6,-4.08 -6.43,-8.84 -8.46,-14.28 -2.04,-5.44 -3.06,-11.22 -3.06,-17.34l0 -0.41c0,-6.12 1.02,-11.86 3.06,-17.23 2.04,-5.37 4.89,-10.1 8.57,-14.17 3.67,-4.08 8.06,-7.28 13.15,-9.59 5.1,-2.31 10.64,-3.47 16.62,-3.47 7.21,0 13.7,1.43 19.48,4.28 5.78,2.86 11.46,6.8 17.03,11.83l19.99 -23.05c-3.26,-3.26 -6.8,-6.26 -10.61,-8.98 -3.81,-2.72 -7.96,-5.03 -12.44,-6.93 -4.49,-1.9 -9.49,-3.4 -14.99,-4.49 -5.5,-1.09 -11.59,-1.63 -18.25,-1.63 -11.01,0 -21.07,1.94 -30.18,5.81 -9.11,3.87 -16.93,9.18 -23.46,15.91 -6.52,6.73 -11.62,14.55 -15.3,23.46 -3.67,8.91 -5.51,18.46 -5.51,28.66l0 0.41c0,10.2 1.84,19.79 5.51,28.76 3.67,8.97 8.77,16.76 15.3,23.35 6.53,6.6 14.28,11.8 23.26,15.6 8.97,3.81 18.7,5.71 29.16,5.71 6.93,0 13.19,-0.58 18.76,-1.73 5.58,-1.16 10.71,-2.86 15.4,-5.1 4.69,-2.24 9.01,-4.93 12.95,-8.06 3.94,-3.12 7.75,-6.66 11.42,-10.6zm133.6 23.04l0 -27.94 -77.51 0 0 -29.98 67.3 0 0 -27.94 -67.3 0 0 -28.96 76.48 0 0 -27.94 -107.49 0 0 142.77 108.51 0zm131.35 -42.22l0 -0.41c0,-6.26 -0.98,-11.63 -2.95,-16.11 -1.97,-4.49 -4.93,-8.4 -8.81,-11.73 -3.87,-3.33 -8.67,-6.19 -14.31,-8.56 -5.64,-2.38 -12.1,-4.52 -19.34,-6.43 -6.12,-1.63 -11.18,-3.06 -15.23,-4.28 -4.01,-1.23 -7.17,-2.52 -9.52,-3.87 -2.31,-1.36 -3.91,-2.89 -4.8,-4.59 -0.89,-1.7 -1.32,-3.71 -1.32,-6.02l0 -0.41c0,-3.54 1.53,-6.5 4.59,-8.87 3.06,-2.38 7.65,-3.57 13.77,-3.57 6.12,0 12.24,1.26 18.36,3.77 6.12,2.52 12.37,5.95 18.76,10.3l16.32 -23.66c-7.34,-5.85 -15.4,-10.34 -24.17,-13.46 -8.77,-3.13 -18.39,-4.69 -28.86,-4.69 -7.34,0 -14.07,1.02 -20.16,3.06 -6.08,2.04 -11.35,4.96 -15.74,8.77 -4.38,3.81 -7.78,8.33 -10.23,13.56 -2.41,5.23 -3.64,11.12 -3.64,17.64l0 0.41c0,7.07 1.12,12.99 3.36,17.75 2.25,4.76 5.44,8.73 9.52,11.93 4.08,3.2 9.08,5.88 14.92,8.06 5.88,2.17 12.41,4.15 19.65,5.91 5.98,1.5 10.88,2.92 14.62,4.28 3.74,1.36 6.66,2.72 8.8,4.08 2.11,1.36 3.53,2.82 4.28,4.39 0.74,1.56 1.12,3.37 1.12,5.41l0 0.41c0,4.22 -1.8,7.51 -5.4,9.89 -3.6,2.38 -8.67,3.57 -15.2,3.57 -8.16,0 -15.67,-1.57 -22.54,-4.69 -6.86,-3.13 -13.56,-7.35 -20.09,-12.65l-18.56 22.23c8.57,7.75 18.08,13.5 28.55,17.23 10.47,3.74 21.14,5.61 32.02,5.61 7.75,0 14.82,-0.99 21.18,-2.96 6.35,-1.97 11.86,-4.83 16.45,-8.57 4.59,-3.74 8.16,-8.36 10.74,-13.87 2.55,-5.5 3.84,-11.79 3.84,-18.86zm130.54 0l0 -0.41c0,-6.26 -0.99,-11.63 -2.96,-16.11 -1.97,-4.49 -4.93,-8.4 -8.8,-11.73 -3.88,-3.33 -8.67,-6.19 -14.32,-8.56 -5.64,-2.38 -12.1,-4.52 -19.34,-6.43 -6.12,-1.63 -11.18,-3.06 -15.23,-4.28 -4.01,-1.23 -7.17,-2.52 -9.52,-3.87 -2.31,-1.36 -3.91,-2.89 -4.8,-4.59 -0.88,-1.7 -1.32,-3.71 -1.32,-6.02l0 -0.41c0,-3.54 1.53,-6.5 4.59,-8.87 3.06,-2.38 7.64,-3.57 13.77,-3.57 6.12,0 12.24,1.26 18.36,3.77 6.12,2.52 12.37,5.95 18.77,10.3l16.31 -23.66c-7.34,-5.85 -15.4,-10.34 -24.17,-13.46 -8.77,-3.13 -18.39,-4.69 -28.86,-4.69 -7.34,0 -14.08,1.02 -20.16,3.06 -6.09,2.04 -11.36,4.96 -15.74,8.77 -4.38,3.81 -7.78,8.33 -10.23,13.56 -2.42,5.23 -3.64,11.12 -3.64,17.64l0 0.41c0,7.07 1.12,12.99 3.37,17.75 2.24,4.76 5.44,8.73 9.52,11.93 4.08,3.2 9.08,5.88 14.92,8.06 5.88,2.17 12.41,4.15 19.65,5.91 5.98,1.5 10.88,2.92 14.62,4.28 3.74,1.36 6.66,2.72 8.8,4.08 2.11,1.36 3.53,2.82 4.28,4.39 0.75,1.56 1.12,3.37 1.12,5.41l0 0.41c0,4.22 -1.8,7.51 -5.4,9.89 -3.6,2.38 -8.67,3.57 -15.2,3.57 -8.16,0 -15.67,-1.57 -22.54,-4.69 -6.86,-3.13 -13.56,-7.35 -20.09,-12.65l-18.56 22.23c8.57,7.75 18.08,13.5 28.55,17.23 10.47,3.74 21.15,5.61 32.02,5.61 7.75,0 14.82,-0.99 21.18,-2.96 6.36,-1.97 11.86,-4.83 16.46,-8.57 4.59,-3.74 8.16,-8.36 10.74,-13.87 2.55,-5.5 3.84,-11.79 3.84,-18.86zm201.52 -50.79l0 -0.41c0,-7.34 -1.26,-14.04 -3.77,-20.09 -2.52,-6.05 -6.12,-11.25 -10.81,-15.6 -4.69,-4.35 -10.41,-7.71 -17.13,-10.1 -6.73,-2.38 -14.38,-3.57 -22.95,-3.57l-58.34 0 0 142.77 31.41 0 0 -42.83 23.86 0c8.02,0 15.53,-1.05 22.54,-3.16 7,-2.11 13.12,-5.27 18.36,-9.49 5.23,-4.22 9.35,-9.45 12.34,-15.71 2.99,-6.25 4.49,-13.53 4.49,-21.82zm-31.82 0.61c0,6.12 -2.17,11.25 -6.52,15.4 -4.35,4.15 -10.47,6.22 -18.36,6.22l-24.88 0 0 -43.65 24.27 0c7.89,0 14.1,1.84 18.66,5.51 4.56,3.67 6.83,9.04 6.83,16.11l0 0.41zm178.47 92.39l-34.88 -50.99c9.11,-3.4 16.49,-8.74 22.13,-16.01 5.64,-7.28 8.46,-16.69 8.46,-28.25l0 -0.41c0,-14.82 -4.72,-26.38 -14.17,-34.67 -9.45,-8.29 -22.67,-12.44 -39.67,-12.44l-65.27 0 0 142.77 31.41 0 0 -45.69 24.68 0 30.59 45.69 36.71 0zm-36.1 -93.62c0,6.12 -2.07,11.01 -6.22,14.68 -4.15,3.67 -10.09,5.5 -17.85,5.5l-31.82 0 0 -41 31.21 0c7.75,0 13.8,1.7 18.15,5.1 4.35,3.4 6.53,8.5 6.53,15.3l0 0.41zm205.6 22.23l0 -0.41c0,-10.2 -1.87,-19.75 -5.61,-28.66 -3.74,-8.9 -8.98,-16.65 -15.7,-23.25 -6.73,-6.6 -14.72,-11.83 -23.97,-15.71 -9.25,-3.87 -19.37,-5.81 -30.39,-5.81 -11.02,0 -21.18,1.94 -30.49,5.81 -9.32,3.87 -17.34,9.18 -24.07,15.91 -6.73,6.73 -12,14.55 -15.81,23.46 -3.81,8.91 -5.71,18.46 -5.71,28.66l0 0.41c0,10.2 1.87,19.75 5.61,28.66 3.74,8.91 8.97,16.66 15.71,23.25 6.73,6.6 14.72,11.83 23.96,15.71 9.25,3.88 19.38,5.81 30.39,5.81 11.01,0 21.18,-1.94 30.49,-5.81 9.31,-3.87 17.34,-9.18 24.07,-15.91 6.73,-6.73 12,-14.55 15.8,-23.46 3.81,-8.9 5.71,-18.46 5.71,-28.66zm-32.84 0.41c0,6.12 -1.05,11.87 -3.16,17.24 -2.1,5.37 -5.03,10.09 -8.77,14.17 -3.74,4.08 -8.26,7.28 -13.56,9.59 -5.3,2.31 -11.08,3.47 -17.34,3.47 -6.39,0 -12.2,-1.19 -17.44,-3.57 -5.24,-2.38 -9.79,-5.61 -13.67,-9.68 -3.88,-4.08 -6.87,-8.84 -8.98,-14.28 -2.11,-5.44 -3.16,-11.22 -3.16,-17.34l0 -0.41c0,-6.12 1.05,-11.86 3.16,-17.23 2.11,-5.37 5.03,-10.1 8.77,-14.17 3.74,-4.08 8.23,-7.28 13.47,-9.59 5.23,-2.31 11.04,-3.47 17.44,-3.47 6.25,0 12.03,1.19 17.34,3.57 5.3,2.38 9.89,5.61 13.77,9.69 3.87,4.08 6.87,8.84 8.97,14.28 2.11,5.44 3.16,11.22 3.16,17.34l0 0.41zm192.34 -0.41l0 -0.41c0,-10.06 -1.83,-19.41 -5.51,-28.04 -3.67,-8.63 -8.87,-16.15 -15.6,-22.54 -6.73,-6.39 -14.75,-11.39 -24.07,-14.99 -9.32,-3.6 -19.55,-5.4 -30.7,-5.4l-55.68 0 0 142.77 55.68 0c11.15,0 21.38,-1.83 30.7,-5.5 9.31,-3.67 17.34,-8.71 24.07,-15.1 6.73,-6.39 11.93,-13.94 15.6,-22.64 3.67,-8.71 5.51,-18.08 5.51,-28.15zm-32.84 0.41c0,6.39 -1.05,12.17 -3.16,17.34 -2.1,5.17 -5.03,9.65 -8.77,13.46 -3.74,3.81 -8.26,6.73 -13.56,8.77 -5.3,2.04 -11.15,3.06 -17.54,3.06l-24.27 0 0 -86.08 24.27 0c6.39,0 12.24,1.05 17.54,3.16 5.3,2.11 9.83,5.07 13.56,8.87 3.74,3.81 6.66,8.36 8.77,13.67 2.11,5.3 3.16,11.08 3.16,17.34l0 0.41zm182.96 8.77l0 -80.57 -31.41 0 0 81.79c0,11.42 -2.72,19.99 -8.16,25.7 -5.44,5.71 -12.99,8.57 -22.64,8.57 -9.65,0 -17.2,-2.96 -22.64,-8.87 -5.44,-5.92 -8.16,-14.72 -8.16,-26.41l0 -80.77 -31.41 0 0 81.59c0,21.08 5.5,36.92 16.52,47.52 11.01,10.61 26.1,15.91 45.28,15.91 9.52,0 18.15,-1.32 25.9,-3.98 7.75,-2.65 14.35,-6.66 19.79,-12.04 5.44,-5.37 9.62,-12.07 12.54,-20.09 2.92,-8.02 4.38,-17.47 4.38,-28.35zm157.46 39.16l-19.99 -20.19c-5.58,5.16 -11.18,9.25 -16.83,12.24 -5.65,2.99 -12.54,4.49 -20.7,4.49 -6.12,0 -11.73,-1.19 -16.83,-3.57 -5.1,-2.38 -9.45,-5.61 -13.05,-9.68 -3.6,-4.08 -6.43,-8.84 -8.47,-14.28 -2.04,-5.44 -3.06,-11.22 -3.06,-17.34l0 -0.41c0,-6.12 1.02,-11.86 3.06,-17.23 2.04,-5.37 4.9,-10.1 8.57,-14.17 3.67,-4.08 8.06,-7.28 13.16,-9.59 5.1,-2.31 10.64,-3.47 16.62,-3.47 7.2,0 13.7,1.43 19.48,4.28 5.78,2.86 11.46,6.8 17.03,11.83l19.99 -23.05c-3.26,-3.26 -6.8,-6.26 -10.6,-8.98 -3.81,-2.72 -7.96,-5.03 -12.44,-6.93 -4.49,-1.9 -9.49,-3.4 -14.99,-4.49 -5.51,-1.09 -11.59,-1.63 -18.25,-1.63 -11.01,0 -21.07,1.94 -30.19,5.81 -9.11,3.87 -16.93,9.18 -23.46,15.91 -6.53,6.73 -11.62,14.55 -15.3,23.46 -3.67,8.91 -5.51,18.46 -5.51,28.66l0 0.41c0,10.2 1.84,19.79 5.51,28.76 3.67,8.97 8.77,16.76 15.3,23.35 6.53,6.6 14.28,11.8 23.25,15.6 8.97,3.81 18.7,5.71 29.16,5.71 6.94,0 13.19,-0.58 18.77,-1.73 5.58,-1.16 10.71,-2.86 15.4,-5.1 4.69,-2.24 9.01,-4.93 12.96,-8.06 3.94,-3.12 7.75,-6.66 11.42,-10.6zm133.19 -90.77l0 -28.96 -118.3 0 0 28.96 43.45 0 0 113.81 31.41 0 0 -113.81 43.45 0zm127.27 71.59l0 -0.41c0,-6.26 -0.98,-11.63 -2.95,-16.11 -1.97,-4.49 -4.93,-8.4 -8.81,-11.73 -3.87,-3.33 -8.67,-6.19 -14.31,-8.56 -5.64,-2.38 -12.1,-4.52 -19.34,-6.43 -6.12,-1.63 -11.18,-3.06 -15.23,-4.28 -4.01,-1.23 -7.17,-2.52 -9.52,-3.87 -2.31,-1.36 -3.91,-2.89 -4.8,-4.59 -0.89,-1.7 -1.32,-3.71 -1.32,-6.02l0 -0.41c0,-3.54 1.53,-6.5 4.59,-8.87 3.06,-2.38 7.65,-3.57 13.77,-3.57 6.12,0 12.24,1.26 18.36,3.77 6.12,2.52 12.37,5.95 18.76,10.3l16.32 -23.66c-7.34,-5.85 -15.4,-10.34 -24.17,-13.46 -8.77,-3.13 -18.39,-4.69 -28.86,-4.69 -7.34,0 -14.07,1.02 -20.16,3.06 -6.08,2.04 -11.35,4.96 -15.74,8.77 -4.38,3.81 -7.78,8.33 -10.23,13.56 -2.41,5.23 -3.64,11.12 -3.64,17.64l0 0.41c0,7.07 1.12,12.99 3.36,17.75 2.25,4.76 5.44,8.73 9.52,11.93 4.08,3.2 9.08,5.88 14.92,8.06 5.88,2.17 12.41,4.15 19.65,5.91 5.98,1.5 10.88,2.92 14.62,4.28 3.74,1.36 6.66,2.72 8.8,4.08 2.11,1.36 3.53,2.82 4.28,4.39 0.74,1.56 1.12,3.37 1.12,5.41l0 0.41c0,4.22 -1.8,7.51 -5.4,9.89 -3.6,2.38 -8.67,3.57 -15.2,3.57 -8.16,0 -15.67,-1.57 -22.54,-4.69 -6.86,-3.13 -13.56,-7.35 -20.09,-12.65l-18.56 22.23c8.57,7.75 18.08,13.5 28.55,17.23 10.47,3.74 21.14,5.61 32.02,5.61 7.75,0 14.82,-0.99 21.18,-2.96 6.35,-1.97 11.86,-4.83 16.45,-8.57 4.59,-3.74 8.16,-8.36 10.74,-13.87 2.55,-5.5 3.84,-11.79 3.84,-18.86z"/>
   <path class="fil3" d="M7947.17 2126.35l-277.41 0 -17.43 37.9 294.84 0 0 -37.9zm0 84.89l-277.41 0 -17.43 -37.9 294.84 0 0 37.9z"/>
   <path class="fil3" d="M10305.29 2126.35l277.41 0 17.44 37.9 -294.85 0 0 -37.9zm0 84.89l277.41 0 17.44 -37.9 -294.85 0 0 37.9z"/>
  </g>
 </g>
</svg>
