<?xml version="1.0" encoding="UTF-8"?>
<!DOCTYPE svg PUBLIC "-//W3C//DTD SVG 1.1//EN" "http://www.w3.org/Graphics/SVG/1.1/DTD/svg11.dtd">
<!-- Creator: CorelDRAW -->
<svg xmlns="http://www.w3.org/2000/svg" xml:space="preserve" width="2.71666in" height="2.58307in" version="1.1" style="shape-rendering:geometricPrecision; text-rendering:geometricPrecision; image-rendering:optimizeQuality; fill-rule:evenodd; clip-rule:evenodd"
viewBox="0 0 4645.82 4417.36"
 xmlns:xlink="http://www.w3.org/1999/xlink"
 xmlns:xodm="http://www.corel.com/coreldraw/odm/2003">
 <defs>
  <style type="text/css">
   <![CDATA[
    .str0 {stroke:#2B2A29;stroke-width:13.47;stroke-miterlimit:22.9256}
    .fil0 {fill:none}
    .fil3 {fill:#E31E24}
    .fil1 {fill:#FEFEFE;fill-rule:nonzero}
    .fil2 {fill:#E31E24;fill-rule:nonzero}
   ]]>
  </style>
 </defs>
 <g id="Layer_x0020_1">
  <metadata id="CorelCorpID_0Corel-Layer"/>
  <g id="_2696036527376">
   <g>
    <line class="fil0 str0" x1="4252.25" y1="1066.41" x2="393.56" y2= "1066.41" />
    <g>
     <path class="fil1" d="M2322.91 734.16c183.49,0 332.24,148.75 332.24,332.25 0,183.49 -148.75,332.24 -332.24,332.24 -183.49,0 -332.24,-148.75 -332.24,-332.24 0,-183.49 148.75,-332.25 332.24,-332.25z"/>
     <path class="fil2" d="M2182.89 1169.25l22.11 0c13.82,0 23.5,-3.38 29.12,-10.19 5.6,-6.76 8.41,-18.54 8.41,-35.3 0,-17.4 -3.06,-29.38 -9.18,-36.01 -6.11,-6.56 -17.52,-9.87 -34.34,-9.87l-16.12 0 0 91.37zm0 -129.98l17.96 0c13.45,0 22.75,-2.93 27.91,-8.79 5.09,-5.8 7.65,-16.57 7.65,-32.24 0,-14.08 -2.62,-23.71 -7.78,-28.86 -5.16,-5.16 -14.91,-7.71 -29.31,-7.71l-16.44 0 0 77.61zm-51.99 170.88l0 -287.49 86.08 0c24.59,0 42.94,5.74 54.93,17.21 12.04,11.41 18.03,29.05 18.03,52.82 0,18.98 -2.94,33.76 -8.86,44.22 -5.92,10.44 -14.78,16.76 -26.57,18.86 13.38,1.84 23.89,8.53 31.41,20.07 7.52,11.53 11.28,26.7 11.28,45.62 0,30.52 -6.36,52.88 -19.11,67.22 -12.74,14.33 -32.62,21.47 -59.63,21.47l-87.55 0zm255.93 0l0 -121.89 -75.31 -165.6 59.26 0 43.45 108.06 42.95 -108.06 57.72 0 -74.15 165.6 0 121.89 -53.92 0z"/>
    </g>
   </g>
   <g>
    <path class="fil1" d="M-0 86.8l0 289.04c0,47.84 38.94,86.78 86.79,86.78l92.67 0 17.62 0 20.48 0 86.55 0 25.56 0c65.27,0 118.68,-53.4 118.68,-118.68l0 -0.01c0,-52.24 -34.22,-96.87 -81.34,-112.61 47.12,-15.74 81.34,-60.38 81.34,-112.63l0 -0.01c0,-65.27 -53.4,-118.67 -118.68,-118.67l-25.56 0 -86.55 0 -20.48 0 -17.62 0 -92.67 0c-47.84,0 -86.79,38.81 -86.79,86.78l0 0zm4179.05 144.52c-6.06,-6.64 -12.07,-13.32 -18.04,-19.99 -10.99,-12.23 -39.01,-44.84 -55.38,-57.17l-11.16 0 0 34.59 -232.59 0 -148.67 0 -58.17 0 0 0 -27.17 0 0 111.16c0,89.42 73.29,162.72 162.72,162.72l121.37 0 148.01 0 0 -86.37 -148.01 0 -121.37 0c-42.54,0 -77.38,-33.79 -77.38,-76.34l0 -10.85 0 0 0 0 0 -15.09 148.67 0 232.59 0 0 34.59 11.06 0c16.34,-12.26 44.47,-45 55.48,-57.26 5.99,-6.67 11.98,-13.34 18.04,-19.97zm-764.58 145.97c-42.55,0 -77.38,-34.83 -77.38,-77.38l0 -299.88 -85.34 0 0 299.88c0,89.42 73.28,162.72 162.72,162.72l157.29 0 55.32 0 0 -85.34 -55.32 0 -157.29 0 0 0zm-571.32 -203.69l0 -10.85c0,-42.54 34.84,-77.39 77.39,-77.39l121.37 0 148.01 0 0 -85.33 -148.01 0 -121.37 0c-89.43,0 -162.72,73.29 -162.72,162.72l0 49.3 0 250.59 85.34 0 0 -203.82 118.15 0 228.62 0 0 -85.21 -228.62 0 0 0 -118.15 0zm-146.8 289.03l0 -462.6 -85.34 0 0 462.6 85.34 0zm-146.68 -462.6l-467.3 0 0 85.33 190.91 0 0 377.27 85.34 0 0 -377.27 191.05 0 0 -85.33zm-857.59 462.6l0 -365.45c0,-6.39 5.18,-11.82 11.69,-11.82l214.55 0c35.31,0 55.92,39.54 36.88,68.23 0,0 -0.12,0.12 -0.12,0.12 -1.45,2.29 -3.14,4.34 -5.07,6.27 0,0.11 0,0.11 0,0.11 -6.87,7.12 -52.17,32.1 -62.55,38.09 -19.26,11.12 -25.75,34.49 -17.48,55.21l83.53 209.24 94.26 0 -79.67 -201.17c-4.36,-11.04 7.02,-15.34 13.98,-19.29 64.52,-36.67 88.2,-124.49 40.38,-189.35 -24.25,-32.89 -62.69,-52.8 -104.14,-52.8l-225.51 0c-47.24,0 -86.06,38.46 -86.06,86.06l0 376.54 85.34 0 0 0zm-618.8 0l150.17 -352.44c6.68,-15.67 21.82,-24.83 38.81,-24.83 17.12,0 32.26,9.17 38.94,24.83l150.17 352.44 94.26 0 -167.06 -388.6c-19.8,-46.07 -66.06,-74.01 -116.32,-74.01 -50.14,0 -96.38,27.95 -116.19,74.01l-167.05 388.6 94.26 0 0 0zm-218.84 -276.88l-153.68 0 -107.76 0 0 -185.72 -85.33 0 0 462.6 85.33 0 0 -185.71 107.76 0 153.68 0 0 185.71 85.34 0 0 -462.6 -85.34 0 0 185.72zm-657.37 -100.39l20.48 0 98.96 0c24.11,0 44.11,22.32 44.11,49.22 0,32.42 -21.93,41.82 -42.67,55.8 -13.26,8.89 -20.74,23.68 -20.74,40.89 0,17.21 7.48,32.01 20.74,41.01 20.74,13.98 42.67,23.4 42.67,55.81 0,26.89 -20,49.21 -44.11,49.21l-98.96 0 -20.48 0 -99.21 0c-6.87,0 -12.53,-6.32 -12.53,-13.98l0 -84.45 0 -95.07 0 -84.44c0,-7.67 5.66,-14 12.53,-14l99.21 0zm4364.16 145.97c6.06,-6.64 12.07,-13.32 18.05,-19.99 10.99,-12.23 39.01,-44.84 55.37,-57.17l11.16 0 0 154.39 -11.05 0c-16.35,-12.26 -44.48,-45 -55.48,-57.26 -5.99,-6.67 -11.99,-13.34 -18.05,-19.97z"/>
    <path class="fil3" d="M4621.74 86.46c-23.08,2 -57.96,40.81 -92.82,79.64 -20.79,23.15 -41.58,46.29 -63.36,65.22 21.78,18.93 42.56,42.06 63.36,65.21 34.86,38.83 69.74,77.64 92.82,79.64l0 86.44c-60.54,-1.05 -108.75,-54.72 -156.93,-108.37 -35.79,-39.85 -71.59,-79.72 -94.66,-79.72 -23.06,0 -58.86,39.87 -94.66,79.72 -23.98,26.73 -47.94,53.39 -73.43,73.59l-1.08 0.86 -0.15 0.11 -1.24 0.96 -1.04 0.81 -0.19 0.14 -1.24 0.94 -1.01 0.76 -0.24 0.18 -1.25 0.92 -0.97 0.71 -0.28 0.2 -1.95 1.4 -0.23 0.16 -0.32 0.22 -1.25 0.88 -0.9 0.62 -0.36 0.24 -1.27 0.85 -0.86 0.57 -0.41 0.27 -2.07 1.34 -0.02 0.01 -0.44 0.28 -1.27 0.81 -0.79 0.48 -0.48 0.3 -1.28 0.77 -0.75 0.45 -0.54 0.31 -1.29 0.75 -0.71 0.41 -0.57 0.32 -1.29 0.73 -0.67 0.36 -1.92 1.04 -0.64 0.34 -0.66 0.34 -1.31 0.67 -0.59 0.3 -0.71 0.35 -1.32 0.64 -0.55 0.27 -0.22 0.09 -1.86 0.88 -0.52 0.23 -0.8 0.36 -1.33 0.59 -0.47 0.21 -0.24 0.09 -1.95 0.81 -0.44 0.18 -0.9 0.36 -1.34 0.52 -0.39 0.15 -0.96 0.35 -1.35 0.48 -0.35 0.13 -0.38 0.13 -1.97 0.66 -0.32 0.1 -2.41 0.76 -0.27 0.07 -1.1 0.32 -1.37 0.39 -0.22 0.06 -0.15 0.04 -2.38 0.62 -0.18 0.03 -2.56 0.6 -0.03 0.01 -0.13 0.03 -0.27 0.05 -2.38 0.49 -0.09 0.02 -2.71 0.48 -0.05 0.01 -0.07 0.01 -2.71 0.41 -1.42 0.18 -1.37 0.17 -0.05 0 -0.47 0.05 -2.19 0.22 -0.1 0.01 -0.09 0.01 -1.44 0.11 -1.3 0.09 -0.13 0.01 -2.71 0.11 -0.18 0.01 -2.57 0.04 -0.11 0 -0.24 0 -14.86 0 0 -86.37 14.86 0 0.24 -0.01c0.72,-0.02 1.46,-0.05 2.21,-0.14l0.61 -0.07 0.51 -0.08 0.28 -0.04c2.1,-0.36 4.3,-1 6.57,-1.9l0.27 -0.11 0.03 -0.01 1.08 -0.46 0.13 -0.05 0.21 -0.09 0.87 -0.39 0.19 -0.09 1.27 -0.62 0.32 -0.15 0.9 -0.46 0.08 -0.05 0.81 -0.44 0.49 -0.27 0.42 -0.24 0.9 -0.53 0.01 -0.01 0.92 -0.55 0.4 -0.24 0.53 -0.32 0.82 -0.52 0.12 -0.07 0.94 -0.61 0.3 -0.2 0.65 -0.43 0.73 -0.49 0.23 -0.15 0.96 -0.67 0.19 -0.14 0.77 -0.55 0.63 -0.46 0.35 -0.25 0.98 -0.73 0.09 -0.07 0.88 -0.67 0.54 -0.41 0.46 -0.36 0.98 -0.77 0.01 -0.01 1 -0.79 0.42 -0.34 0.58 -0.48 0.88 -0.72 0.13 -0.11 1.02 -0.85 0.32 -0.26 0.7 -0.6 0.78 -0.67 0.25 -0.22 1.03 -0.9 0.22 -0.18 0.81 -0.73 0.69 -0.6 0.36 -0.33 1.04 -0.94 0.09 -0.09 0.96 -0.87 0.57 -0.52 0.48 -0.46 1.04 -0.96 0.01 -0.02 1.06 -1 0.46 -0.43 0.61 -0.58 0.94 -0.89 0.13 -0.13 1.08 -1.04 0.34 -0.32 0.74 -0.72 0.81 -0.81 0.27 -0.26 1.09 -1.07 0.22 -0.22 0.86 -0.87 0.71 -0.7 0.38 -0.39 1.1 -1.1 0.1 -0.09 1 -1.02 0.59 -0.59 0.52 -0.53 1.08 -1.11 0.02 -0.02 1.11 -1.14 0.48 -0.48 0.64 -0.67 0.97 -1 0.15 -0.16 0.01 0c10.71,-11.16 21.81,-23.52 32.9,-35.87 20.79,-23.14 41.57,-46.27 63.36,-65.21 -21.79,-18.93 -42.57,-42.07 -63.36,-65.21 -35.79,-39.86 -71.6,-79.72 -94.66,-79.72l-259.26 0 0 -0.03 -66.59 0c-37.12,0 -68.64,25.51 -76.01,60.53l-86.2 0c8.04,-82.09 77.85,-146.88 161.94,-146.88l66.86 0 54.52 0 148.01 0 56.73 0c61.42,0 110.11,54.21 158.77,108.41 35.8,39.85 71.6,79.72 94.66,79.72 23.07,0 58.87,-39.87 94.66,-79.72 48.18,-53.66 96.39,-107.32 156.93,-108.38l0 86.44z"/>
   </g>
   <g>
    <g>
     <path class="fil3" d="M2697.79 3141.17l-88.86 88.86c-11.8,11.79 -27.78,18.41 -44.46,18.41l-483.12 0c-16.67,0 -32.66,-6.63 -44.45,-18.41l-341.62 -341.62 -5.49 -6.26 -171.02 0c7.83,45.3 29.46,87.43 62.4,120.38l341.62 341.61c42.05,42.05 99.09,65.68 158.56,65.68l483.12 0c59.48,0 116.51,-23.63 158.56,-65.68l341.61 -341.61c42.05,-42.05 65.68,-99.09 65.68,-158.56l0 -171.32c0,-83.01 -67.92,-150.93 -150.94,-150.93l-281.6 0 -749.75 0 0 -458.08 88.86 -88.87c11.8,-11.79 27.78,-18.41 44.46,-18.41l483.12 0c16.67,0 32.66,6.63 44.45,18.41l341.62 341.61 5.49 6.27 171.02 0c-7.83,-45.3 -29.46,-87.43 -62.4,-120.38l-341.62 -341.61c-42.05,-42.05 -99.09,-65.68 -158.56,-65.68l-483.12 0c-59.48,0 -116.51,23.63 -158.56,65.68l-341.61 341.61c-42.05,42.05 -65.68,99.09 -65.68,158.56l0 160.87 0 0 0 10.44c0,83.01 67.92,150.93 150.93,150.93l281.61 0 749.75 0 0 458.08zm-910.46 -618.79l0 -298.98 81.3 -81.88 0 380.87 -81.3 0zm1071.17 160.04l0 298.98 -81.3 81.89 0 -380.87 81.3 0z"/>
     <g>
      <path class="fil2" d="M2510.91 2035.79c12.1,0 23.71,2.42 34.84,7.26 11.13,4.84 20.69,11.49 28.67,19.96 7.99,8.47 14.39,18.27 19.24,29.4 4.84,11.13 7.26,22.99 7.26,35.56l0 63.15c0,12.58 -2.42,24.56 -7.26,35.93 -4.84,11.37 -11.25,21.17 -19.24,29.4 -7.99,8.23 -17.55,14.76 -28.67,19.6 -11.13,4.84 -22.74,7.26 -34.84,7.26l-160.28 0 0 -81.3 160.28 0c2.42,0 4.48,-1.08 6.17,-3.27 1.69,-2.17 2.54,-4.72 2.54,-7.62l0 -63.15c0,-2.9 -0.85,-5.44 -2.54,-7.62 -1.7,-2.17 -3.75,-3.27 -6.17,-3.27l-222.11 0 0 325.19 -81.3 0 0 -406.49 303.41 0z"/>
      <polygon class="fil3" points="2044.9,2035.79 2126.2,2035.79 2126.2,2442.28 2044.9,2442.28 "/>
     </g>
     <g>
      <path class="fil2" d="M2510.91 2762.51c12.1,0 23.71,2.42 34.84,7.26 11.13,4.84 20.69,11.49 28.67,19.96 7.99,8.47 14.39,18.27 19.24,29.4 4.84,11.13 7.26,22.99 7.26,35.57l0 63.15c0,12.58 -2.42,24.56 -7.26,35.93 -4.84,11.37 -11.25,21.17 -19.24,29.4 -7.99,8.23 -17.55,14.76 -28.67,19.6 -11.13,4.84 -22.74,7.26 -34.84,7.26l-160.28 0 0 -81.3 160.28 0c2.42,0 4.48,-1.09 6.17,-3.27 1.69,-2.18 2.54,-4.72 2.54,-7.62l0 -63.15c0,-2.9 -0.85,-5.44 -2.54,-7.62 -1.7,-2.17 -3.75,-3.27 -6.17,-3.27l-222.11 0 0 325.19 -81.3 0 0 -406.49 303.41 0z"/>
      <polygon class="fil3" points="2044.9,2762.51 2126.2,2762.51 2126.2,3169.01 2044.9,3169.01 "/>
     </g>
    </g>
    <g>
     <path class="fil1" d="M717.06 3800.44l235.26 0c14.7,0 28.88,2.98 42.54,8.93 13.65,5.95 25.38,13.83 35.18,23.63 9.8,9.8 17.68,21.35 23.63,34.65 5.95,13.3 8.93,27.66 8.93,43.06l0 149.14c0,15.4 -2.98,29.76 -8.93,43.06 -5.95,13.3 -13.83,25.03 -23.63,35.19 -9.8,10.15 -21.53,18.03 -35.18,23.63 -13.65,5.6 -27.83,8.4 -42.54,8.4l-340.29 0 0 -117.63 332.94 0 0 -134.43 -235.26 0c-15.4,0 -29.76,-2.8 -43.06,-8.4 -13.3,-5.6 -25.03,-13.48 -35.19,-23.63 -10.15,-10.15 -18.03,-21.88 -23.63,-35.19 -5.6,-13.3 -8.4,-27.65 -8.4,-43.06l0 -120.79c0,-15.4 2.79,-29.75 8.4,-43.06 5.43,-13.3 13.3,-24.86 23.28,-34.66 10.15,-9.8 21.71,-17.68 35.01,-23.63 13.13,-5.95 27.31,-8.93 42.53,-8.93l322.43 0 0 117.63 -314.03 0 0 106.08z"/>
     <polygon class="fil1" points="1157.12,4164.88 1157.12,3576.73 1274.75,3576.73 1274.75,3842.45 1389.23,3842.45 1515.26,3842.45 1515.26,3576.73 1632.89,3576.73 1632.89,4164.88 1515.26,4164.88 1515.26,3960.08 1389.23,3960.08 1274.75,3960.08 1274.75,4164.88 "/>
     <path class="fil1" d="M2309.26 3801.49c0,30.1 -8.4,56.89 -25.21,80.34 -16.8,23.46 -38.51,39.39 -65.11,47.79 21.7,35.71 37.8,74.57 48.31,116.58 10.5,42.01 15.75,81.57 15.75,118.68l-117.63 0c0,-19.61 -2.63,-42.54 -7.88,-68.8 -5.25,-26.25 -13.13,-51.28 -23.63,-75.09 -10.5,-23.81 -23.46,-44.11 -38.85,-60.92 -15.4,-16.8 -32.91,-25.21 -52.52,-25.21l-67.22 0 0 -117.62 204.8 0c3.5,0 6.48,-1.58 8.93,-4.73 2.45,-3.15 3.68,-6.83 3.68,-11.03l0 -91.38c0,-4.2 -1.23,-7.88 -3.68,-11.02 -2.45,-3.15 -5.43,-4.73 -8.93,-4.73l-321.38 0 0 470.52 -117.63 0 0 -588.15 438.13 0c18.21,0 35.19,3.51 50.93,10.51 15.75,7 29.58,16.62 41.31,28.88 11.9,12.25 21.36,26.43 28.36,42.54 7,16.1 10.5,33.25 10.5,51.46l0 91.38 -1.05 0z"/>
     <path class="fil1" d="M2611.74 3944.33l0 -117.63 115.53 0 0 117.63 -115.53 0zm220.55 -367.6c15.4,0 29.76,2.98 43.06,8.93 13.3,5.95 24.86,13.83 34.65,23.63 9.8,9.8 17.68,21.36 23.63,34.66 5.95,13.3 8.93,27.66 8.93,43.06l0 367.6c0,15.4 -2.98,29.76 -8.93,43.06 -5.95,13.3 -13.83,25.03 -23.63,35.19 -9.8,10.15 -21.35,18.03 -34.65,23.63 -13.3,5.6 -27.66,8.4 -43.06,8.4l-326.63 0c-14.7,0 -28.88,-2.8 -42.54,-8.4 -13.65,-5.6 -25.38,-13.48 -35.19,-23.63 -9.8,-10.15 -17.68,-21.88 -23.63,-35.19 -5.95,-13.3 -8.92,-27.65 -8.92,-43.06l0 -367.6c0,-15.4 2.97,-29.75 8.92,-43.06 5.95,-13.3 13.83,-24.86 23.63,-34.66 9.8,-9.8 21.53,-17.68 35.19,-23.63 13.65,-5.95 27.83,-8.93 42.54,-8.93l326.63 0zm-7.35 117.63l-311.93 0 0 352.89 311.93 0 0 -352.89z"/>
     <path class="fil1" d="M4046.4 3577.78l0 117.63 -316.13 0c-7.7,0 -14.18,2.45 -19.43,7.35 -5.25,4.9 -7.88,11.2 -7.88,18.91l0 90.32 343.44 0 0 117.63 -343.44 0 0 235.26 -117.63 0 0 -443.21c0,-19.6 3.85,-38.15 11.55,-55.67 7.7,-17.51 18.02,-32.9 30.98,-46.21 12.95,-13.3 28.18,-23.63 45.68,-30.98 17.51,-7.35 36.41,-11.03 56.72,-11.03l316.13 0z"/>
     <path class="fil1" d="M3504.55 3577.78l0 117.63 -316.13 0c-7.7,0 -14.18,2.45 -19.43,7.35 -5.25,4.9 -7.88,11.2 -7.88,18.91l0 90.32 343.44 0 0 117.63 -343.44 0 0 235.26 -117.63 0 0 -443.21c0,-19.6 3.85,-38.15 11.55,-55.67 7.7,-17.51 18.03,-32.9 30.98,-46.21 12.95,-13.3 28.18,-23.63 45.69,-30.98 17.51,-7.35 36.4,-11.03 56.71,-11.03l316.13 0z"/>
    </g>
    <path class="fil1" d="M1155.21 4305.74l0 -0.48c0,-8.58 -1.47,-16.41 -4.41,-23.49 -2.94,-7.08 -7.16,-13.16 -12.64,-18.25 -5.49,-5.09 -12.17,-9.02 -20.03,-11.81 -7.87,-2.78 -16.82,-4.17 -26.84,-4.17l-68.21 0 0 166.95 36.73 0 0 -50.09 27.91 0c9.38,0 18.17,-1.23 26.35,-3.7 8.19,-2.46 15.34,-6.16 21.47,-11.09 6.11,-4.93 10.93,-11.05 14.43,-18.36 3.49,-7.32 5.24,-15.82 5.24,-25.52zm-37.21 0.71c0,7.16 -2.54,13.16 -7.63,18.01 -5.09,4.85 -12.24,7.27 -21.46,7.27l-29.1 0 0 -51.04 28.39 0c9.22,0 16.5,2.15 21.82,6.44 5.33,4.3 7.99,10.57 7.99,18.85l0 0.47zm208.69 108.04l-40.79 -59.63c10.65,-3.97 19.28,-10.21 25.87,-18.72 6.6,-8.5 9.9,-19.51 9.9,-33.02l0 -0.48c0,-17.33 -5.52,-30.84 -16.57,-40.54 -11.06,-9.7 -26.51,-14.55 -46.39,-14.55l-76.32 0 0 166.95 36.73 0 0 -53.42 28.86 0 35.78 53.42 42.93 0zm-42.22 -109.47c0,7.16 -2.42,12.88 -7.27,17.17 -4.85,4.3 -11.8,6.44 -20.87,6.44l-37.21 0 0 -47.94 36.49 0c9.06,0 16.14,1.99 21.23,5.97 5.09,3.98 7.63,9.94 7.63,17.89l0 0.48zm240.41 26l0 -0.48c0,-11.92 -2.19,-23.09 -6.56,-33.51 -4.38,-10.42 -10.5,-19.48 -18.37,-27.19 -7.87,-7.72 -17.21,-13.84 -28.02,-18.37 -10.81,-4.53 -22.66,-6.79 -35.54,-6.79 -12.88,0 -24.76,2.26 -35.66,6.79 -10.89,4.53 -20.27,10.73 -28.14,18.6 -7.87,7.87 -14.03,17.01 -18.48,27.43 -4.46,10.42 -6.68,21.59 -6.68,33.51l0 0.48c0,11.92 2.18,23.09 6.56,33.51 4.37,10.42 10.49,19.48 18.37,27.19 7.86,7.72 17.21,13.84 28.02,18.37 10.81,4.53 22.66,6.79 35.54,6.79 12.88,0 24.76,-2.26 35.66,-6.79 10.89,-4.53 20.27,-10.73 28.14,-18.6 7.87,-7.87 14.03,-17.01 18.48,-27.43 4.46,-10.42 6.68,-21.59 6.68,-33.51zm-38.4 0.48c0,7.16 -1.23,13.88 -3.7,20.15 -2.46,6.28 -5.88,11.81 -10.25,16.58 -4.38,4.77 -9.66,8.51 -15.86,11.21 -6.2,2.71 -12.96,4.05 -20.27,4.05 -7.47,0 -14.27,-1.39 -20.39,-4.17 -6.12,-2.78 -11.45,-6.56 -15.98,-11.32 -4.54,-4.77 -8.03,-10.33 -10.5,-16.7 -2.46,-6.36 -3.7,-13.12 -3.7,-20.27l0 -0.48c0,-7.16 1.23,-13.87 3.7,-20.15 2.46,-6.28 5.88,-11.8 10.25,-16.58 4.37,-4.77 9.62,-8.51 15.74,-11.21 6.13,-2.7 12.92,-4.05 20.39,-4.05 7.31,0 14.07,1.39 20.27,4.17 6.2,2.78 11.57,6.56 16.1,11.32 4.53,4.77 8.03,10.33 10.5,16.7 2.46,6.36 3.7,13.12 3.7,20.27l0 0.48zm217.75 56.05l-23.37 -23.61c-6.52,6.04 -13.08,10.81 -19.68,14.31 -6.6,3.5 -14.67,5.24 -24.2,5.24 -7.16,0 -13.71,-1.39 -19.68,-4.17 -5.96,-2.78 -11.05,-6.56 -15.26,-11.32 -4.21,-4.77 -7.51,-10.33 -9.9,-16.7 -2.38,-6.36 -3.58,-13.12 -3.58,-20.27l0 -0.48c0,-7.16 1.19,-13.87 3.58,-20.15 2.38,-6.28 5.72,-11.8 10.02,-16.58 4.29,-4.77 9.42,-8.51 15.38,-11.21 5.97,-2.7 12.45,-4.05 19.44,-4.05 8.42,0 16.02,1.67 22.78,5.01 6.75,3.34 13.39,7.94 19.92,13.83l23.37 -26.94c-3.82,-3.82 -7.95,-7.32 -12.4,-10.5 -4.45,-3.18 -9.3,-5.88 -14.55,-8.11 -5.24,-2.22 -11.09,-3.97 -17.53,-5.24 -6.44,-1.27 -13.55,-1.91 -21.34,-1.91 -12.88,0 -24.64,2.26 -35.3,6.79 -10.65,4.53 -19.79,10.73 -27.43,18.6 -7.63,7.87 -13.59,17.01 -17.88,27.43 -4.3,10.42 -6.44,21.59 -6.44,33.51l0 0.48c0,11.92 2.15,23.13 6.44,33.63 4.29,10.49 10.25,19.59 17.88,27.31 7.63,7.71 16.7,13.79 27.19,18.25 10.49,4.45 21.86,6.67 34.1,6.67 8.11,0 15.42,-0.67 21.94,-2.03 6.52,-1.35 12.52,-3.34 18.01,-5.96 5.49,-2.63 10.54,-5.76 15.15,-9.43 4.61,-3.65 9.06,-7.78 13.35,-12.4zm156.22 26.94l0 -32.67 -90.63 0 0 -35.06 78.7 0 0 -32.67 -78.7 0 0 -33.87 89.44 0 0 -32.67 -125.69 0 0 166.95 126.89 0zm153.59 -49.36l0 -0.48c0,-7.31 -1.15,-13.59 -3.46,-18.85 -2.3,-5.24 -5.76,-9.82 -10.29,-13.71 -4.53,-3.89 -10.14,-7.23 -16.74,-10.01 -6.6,-2.78 -14.15,-5.29 -22.62,-7.51 -7.16,-1.91 -13.08,-3.58 -17.81,-5.01 -4.69,-1.43 -8.38,-2.94 -11.13,-4.53 -2.7,-1.59 -4.57,-3.38 -5.6,-5.37 -1.04,-1.99 -1.56,-4.34 -1.56,-7.04l0 -0.48c0,-4.13 1.79,-7.59 5.37,-10.38 3.58,-2.78 8.94,-4.17 16.1,-4.17 7.15,0 14.31,1.47 21.46,4.41 7.15,2.94 14.47,6.96 21.94,12.04l19.07 -27.66c-8.58,-6.83 -18,-12.09 -28.26,-15.74 -10.25,-3.66 -21.5,-5.49 -33.75,-5.49 -8.58,0 -16.45,1.19 -23.56,3.58 -7.12,2.38 -13.28,5.8 -18.41,10.25 -5.13,4.45 -9.1,9.74 -11.96,15.86 -2.82,6.12 -4.26,12.99 -4.26,20.63l0 0.48c0,8.27 1.31,15.18 3.93,20.75 2.63,5.56 6.36,10.21 11.13,13.95 4.77,3.74 10.62,6.87 17.45,9.42 6.88,2.54 14.51,4.85 22.98,6.91 7,1.75 12.72,3.42 17.09,5.01 4.37,1.6 7.79,3.18 10.29,4.77 2.46,1.59 4.13,3.3 5.01,5.12 0.87,1.83 1.31,3.94 1.31,6.32l0 0.48c0,4.93 -2.1,8.79 -6.32,11.57 -4.21,2.78 -10.14,4.17 -17.77,4.17 -9.54,0 -18.33,-1.83 -26.36,-5.49 -8.03,-3.66 -15.86,-8.58 -23.49,-14.79l-21.71 26c10.02,9.06 21.15,15.78 33.39,20.16 12.24,4.37 24.72,6.56 37.45,6.56 9.06,0 17.33,-1.16 24.76,-3.46 7.43,-2.3 13.87,-5.65 19.24,-10.02 5.37,-4.37 9.54,-9.78 12.56,-16.22 2.98,-6.44 4.49,-13.79 4.49,-22.06zm152.64 0l0 -0.48c0,-7.31 -1.15,-13.59 -3.45,-18.85 -2.31,-5.24 -5.76,-9.82 -10.29,-13.71 -4.54,-3.89 -10.14,-7.23 -16.74,-10.01 -6.6,-2.78 -14.15,-5.29 -22.62,-7.51 -7.15,-1.91 -13.08,-3.58 -17.81,-5.01 -4.69,-1.43 -8.38,-2.94 -11.13,-4.53 -2.7,-1.59 -4.57,-3.38 -5.6,-5.37 -1.04,-1.99 -1.55,-4.34 -1.55,-7.04l0 -0.48c0,-4.13 1.78,-7.59 5.37,-10.38 3.58,-2.78 8.94,-4.17 16.1,-4.17 7.15,0 14.31,1.47 21.46,4.41 7.16,2.94 14.47,6.96 21.94,12.04l19.08 -27.66c-8.58,-6.83 -18.01,-12.09 -28.26,-15.74 -10.25,-3.66 -21.5,-5.49 -33.74,-5.49 -8.59,0 -16.46,1.19 -23.57,3.58 -7.12,2.38 -13.28,5.8 -18.41,10.25 -5.13,4.45 -9.1,9.74 -11.96,15.86 -2.82,6.12 -4.26,12.99 -4.26,20.63l0 0.48c0,8.27 1.31,15.18 3.93,20.75 2.63,5.56 6.36,10.21 11.14,13.95 4.77,3.74 10.61,6.87 17.45,9.42 6.87,2.54 14.5,4.85 22.97,6.91 7,1.75 12.72,3.42 17.09,5.01 4.37,1.6 7.79,3.18 10.29,4.77 2.46,1.59 4.13,3.3 5.01,5.12 0.88,1.83 1.31,3.94 1.31,6.32l0 0.48c0,4.93 -2.11,8.79 -6.32,11.57 -4.21,2.78 -10.13,4.17 -17.77,4.17 -9.54,0 -18.33,-1.83 -26.36,-5.49 -8.03,-3.66 -15.86,-8.58 -23.49,-14.79l-21.7 26c10.02,9.06 21.15,15.78 33.39,20.16 12.24,4.37 24.72,6.56 37.45,6.56 9.06,0 17.33,-1.16 24.76,-3.46 7.43,-2.3 13.87,-5.65 19.24,-10.02 5.37,-4.37 9.53,-9.78 12.56,-16.22 2.98,-6.44 4.49,-13.79 4.49,-22.06zm235.64 -59.39l0 -0.48c0,-8.58 -1.47,-16.41 -4.41,-23.49 -2.94,-7.08 -7.16,-13.16 -12.64,-18.25 -5.49,-5.09 -12.17,-9.02 -20.03,-11.81 -7.88,-2.78 -16.82,-4.17 -26.84,-4.17l-68.21 0 0 166.95 36.73 0 0 -50.09 27.91 0c9.38,0 18.17,-1.23 26.35,-3.7 8.19,-2.46 15.34,-6.16 21.47,-11.09 6.11,-4.93 10.93,-11.05 14.43,-18.36 3.49,-7.32 5.24,-15.82 5.24,-25.52zm-37.21 0.71c0,7.16 -2.54,13.16 -7.63,18.01 -5.09,4.85 -12.24,7.27 -21.46,7.27l-29.1 0 0 -51.04 28.39 0c9.22,0 16.5,2.15 21.82,6.44 5.33,4.3 7.99,10.57 7.99,18.85l0 0.47zm208.69 108.04l-40.79 -59.63c10.65,-3.97 19.28,-10.21 25.87,-18.72 6.6,-8.5 9.9,-19.51 9.9,-33.02l0 -0.48c0,-17.33 -5.52,-30.84 -16.57,-40.54 -11.06,-9.7 -26.51,-14.55 -46.39,-14.55l-76.32 0 0 166.95 36.73 0 0 -53.42 28.86 0 35.78 53.42 42.93 0zm-42.22 -109.47c0,7.16 -2.42,12.88 -7.27,17.17 -4.85,4.3 -11.8,6.44 -20.87,6.44l-37.21 0 0 -47.94 36.49 0c9.06,0 16.14,1.99 21.23,5.97 5.09,3.98 7.63,9.94 7.63,17.89l0 0.48zm240.41 26l0 -0.48c0,-11.92 -2.19,-23.09 -6.56,-33.51 -4.38,-10.42 -10.5,-19.48 -18.37,-27.19 -7.87,-7.72 -17.21,-13.84 -28.02,-18.37 -10.81,-4.53 -22.66,-6.79 -35.54,-6.79 -12.88,0 -24.76,2.26 -35.66,6.79 -10.89,4.53 -20.27,10.73 -28.14,18.6 -7.87,7.87 -14.03,17.01 -18.48,27.43 -4.46,10.42 -6.68,21.59 -6.68,33.51l0 0.48c0,11.92 2.18,23.09 6.56,33.51 4.37,10.42 10.49,19.48 18.36,27.19 7.87,7.72 17.22,13.84 28.03,18.37 10.81,4.53 22.66,6.79 35.54,6.79 12.88,0 24.76,-2.26 35.66,-6.79 10.89,-4.53 20.27,-10.73 28.14,-18.6 7.87,-7.87 14.03,-17.01 18.48,-27.43 4.46,-10.42 6.68,-21.59 6.68,-33.51zm-38.4 0.48c0,7.16 -1.23,13.88 -3.7,20.15 -2.46,6.28 -5.88,11.81 -10.26,16.58 -4.37,4.77 -9.65,8.51 -15.86,11.21 -6.2,2.71 -12.96,4.05 -20.27,4.05 -7.47,0 -14.27,-1.39 -20.39,-4.17 -6.12,-2.78 -11.45,-6.56 -15.98,-11.32 -4.54,-4.77 -8.03,-10.33 -10.5,-16.7 -2.46,-6.36 -3.7,-13.12 -3.7,-20.27l0 -0.48c0,-7.16 1.23,-13.87 3.7,-20.15 2.46,-6.28 5.88,-11.8 10.25,-16.58 4.37,-4.77 9.62,-8.51 15.74,-11.21 6.13,-2.7 12.92,-4.05 20.39,-4.05 7.31,0 14.07,1.39 20.27,4.17 6.2,2.78 11.57,6.56 16.1,11.32 4.53,4.77 8.03,10.33 10.5,16.7 2.46,6.36 3.7,13.12 3.7,20.27l0 0.48zm224.91 -0.48l0 -0.48c0,-11.76 -2.15,-22.7 -6.44,-32.79 -4.29,-10.1 -10.38,-18.89 -18.25,-26.36 -7.86,-7.47 -17.25,-13.32 -28.14,-17.53 -10.89,-4.21 -22.85,-6.32 -35.89,-6.32l-65.11 0 0 166.95 65.11 0c13.04,0 25.01,-2.14 35.89,-6.44 10.89,-4.3 20.28,-10.18 28.14,-17.65 7.87,-7.48 13.96,-16.3 18.25,-26.47 4.3,-10.18 6.44,-21.15 6.44,-32.92zm-38.4 0.48c0,7.47 -1.23,14.23 -3.7,20.27 -2.46,6.04 -5.88,11.29 -10.25,15.74 -4.37,4.45 -9.65,7.87 -15.86,10.25 -6.2,2.38 -13.04,3.58 -20.51,3.58l-28.38 0 0 -100.65 28.38 0c7.47,0 14.31,1.23 20.51,3.7 6.2,2.47 11.49,5.92 15.86,10.38 4.38,4.45 7.79,9.78 10.25,15.98 2.46,6.2 3.7,12.96 3.7,20.27l0 0.48zm213.94 10.25l0 -94.2 -36.73 0 0 95.64c0,13.35 -3.18,23.37 -9.54,30.05 -6.36,6.68 -15.19,10.02 -26.47,10.02 -11.29,0 -20.12,-3.46 -26.48,-10.38 -6.36,-6.91 -9.53,-17.21 -9.53,-30.88l0 -94.45 -36.73 0 0 95.4c0,24.65 6.44,43.17 19.32,55.57 12.88,12.4 30.53,18.6 52.95,18.6 11.13,0 21.22,-1.55 30.28,-4.65 9.07,-3.1 16.78,-7.79 23.14,-14.07 6.36,-6.28 11.25,-14.11 14.66,-23.49 3.42,-9.38 5.13,-20.43 5.13,-33.15zm184.12 45.8l-23.37 -23.61c-6.52,6.04 -13.08,10.81 -19.68,14.31 -6.6,3.5 -14.67,5.24 -24.2,5.24 -7.16,0 -13.71,-1.39 -19.68,-4.17 -5.96,-2.78 -11.05,-6.56 -15.26,-11.32 -4.21,-4.77 -7.51,-10.33 -9.9,-16.7 -2.38,-6.36 -3.58,-13.12 -3.58,-20.27l0 -0.48c0,-7.16 1.19,-13.87 3.58,-20.15 2.38,-6.28 5.72,-11.8 10.02,-16.58 4.29,-4.77 9.42,-8.51 15.38,-11.21 5.97,-2.7 12.45,-4.05 19.44,-4.05 8.42,0 16.02,1.67 22.78,5.01 6.75,3.34 13.39,7.94 19.92,13.83l23.37 -26.94c-3.82,-3.82 -7.95,-7.32 -12.4,-10.5 -4.45,-3.18 -9.3,-5.88 -14.55,-8.11 -5.24,-2.22 -11.09,-3.97 -17.53,-5.24 -6.44,-1.27 -13.55,-1.91 -21.34,-1.91 -12.88,0 -24.64,2.26 -35.3,6.79 -10.65,4.53 -19.79,10.73 -27.43,18.6 -7.63,7.87 -13.59,17.01 -17.88,27.43 -4.3,10.42 -6.44,21.59 -6.44,33.51l0 0.48c0,11.92 2.15,23.13 6.44,33.63 4.29,10.49 10.25,19.59 17.88,27.31 7.63,7.71 16.7,13.79 27.19,18.25 10.49,4.45 21.86,6.67 34.1,6.67 8.11,0 15.42,-0.67 21.94,-2.03 6.52,-1.35 12.52,-3.34 18.01,-5.96 5.49,-2.63 10.54,-5.76 15.15,-9.43 4.61,-3.65 9.06,-7.78 13.35,-12.4zm155.74 -106.14l0 -33.87 -138.33 0 0 33.87 50.8 0 0 133.08 36.73 0 0 -133.08 50.8 0zm148.82 83.72l0 -0.48c0,-7.31 -1.15,-13.59 -3.45,-18.85 -2.31,-5.24 -5.76,-9.82 -10.29,-13.71 -4.54,-3.89 -10.14,-7.23 -16.74,-10.01 -6.6,-2.78 -14.15,-5.29 -22.62,-7.51 -7.15,-1.91 -13.08,-3.58 -17.8,-5.01 -4.69,-1.43 -8.39,-2.94 -11.13,-4.53 -2.71,-1.59 -4.58,-3.38 -5.61,-5.37 -1.04,-1.99 -1.55,-4.34 -1.55,-7.04l0 -0.48c0,-4.13 1.78,-7.59 5.37,-10.38 3.58,-2.78 8.94,-4.17 16.1,-4.17 7.16,0 14.31,1.47 21.46,4.41 7.16,2.94 14.47,6.96 21.94,12.04l19.08 -27.66c-8.58,-6.83 -18,-12.09 -28.26,-15.74 -10.25,-3.66 -21.5,-5.49 -33.74,-5.49 -8.58,0 -16.46,1.19 -23.57,3.58 -7.12,2.38 -13.28,5.8 -18.41,10.25 -5.12,4.45 -9.1,9.74 -11.96,15.86 -2.82,6.12 -4.26,12.99 -4.26,20.63l0 0.48c0,8.27 1.31,15.18 3.94,20.75 2.63,5.56 6.36,10.21 11.13,13.95 4.77,3.74 10.61,6.87 17.45,9.42 6.87,2.54 14.51,4.85 22.97,6.91 7,1.75 12.72,3.42 17.09,5.01 4.38,1.6 7.79,3.18 10.29,4.77 2.46,1.59 4.13,3.3 5.01,5.12 0.88,1.83 1.31,3.94 1.31,6.32l0 0.48c0,4.93 -2.11,8.79 -6.32,11.57 -4.21,2.78 -10.13,4.17 -17.77,4.17 -9.54,0 -18.33,-1.83 -26.35,-5.49 -8.03,-3.66 -15.86,-8.58 -23.5,-14.79l-21.7 26c10.02,9.06 21.15,15.78 33.39,20.16 12.25,4.37 24.73,6.56 37.45,6.56 9.06,0 17.33,-1.16 24.76,-3.46 7.43,-2.3 13.88,-5.65 19.24,-10.02 5.37,-4.37 9.54,-9.78 12.56,-16.22 2.98,-6.44 4.49,-13.79 4.49,-22.06z"/>
    <path class="fil3" d="M944.2 4281.39l-324.38 0 -20.39 44.32 344.77 0 0 -44.32zm0 99.27l-324.38 0 -20.39 -44.32 344.77 0 0 44.32z"/>
    <path class="fil3" d="M3701.63 4281.39l324.38 0 20.39 44.32 -344.77 0 0 -44.32zm0 99.27l324.38 0 20.39 -44.32 -344.77 0 0 44.32z"/>
   </g>
  </g>
 </g>
</svg>
