<?xml version="1.0" encoding="UTF-8"?>
<!DOCTYPE svg PUBLIC "-//W3C//DTD SVG 1.1//EN" "http://www.w3.org/Graphics/SVG/1.1/DTD/svg11.dtd">
<!-- Creator: CorelDRAW -->
<svg xmlns="http://www.w3.org/2000/svg" xml:space="preserve" width="13.4627in" height="1.34058in" version="1.1" style="shape-rendering:geometricPrecision; text-rendering:geometricPrecision; image-rendering:optimizeQuality; fill-rule:evenodd; clip-rule:evenodd"
viewBox="0 0 31870.39 3173.58"
 xmlns:xlink="http://www.w3.org/1999/xlink"
 xmlns:xodm="http://www.corel.com/coreldraw/odm/2003">
 <defs>
  <style type="text/css">
   <![CDATA[
    .fil1 {fill:#E31E24}
    .fil0 {fill:white;fill-rule:nonzero}
   ]]>
  </style>
 </defs>
 <g id="Layer_x0020_1">
  <metadata id="CorelCorpID_0Corel-Layer"/>
  <g id="_1403930451072">
   <path class="fil0" d="M-0 595.42l0 1982.84c0,328.18 267.08,595.32 595.32,595.32l635.74 0 120.86 0 140.52 0 593.7 0 175.41 0c447.77,0 814.14,-366.35 814.14,-814.12l0 -0.05c0,-358.39 -234.77,-664.56 -558.02,-772.55 323.24,-107.98 558.02,-414.21 558.02,-772.59l0 -0.06c0,-447.77 -366.38,-814.11 -814.14,-814.11l-175.41 0 -593.7 0 -140.52 0 -120.86 0 -635.74 0c-328.18,0 -595.32,266.24 -595.32,595.31l0 0zm28668.42 991.39c-41.58,-45.52 -82.78,-91.33 -123.83,-137.11 -75.39,-83.87 -267.6,-307.61 -379.84,-392.18l-76.58 0 0 237.27 -1595.61 0 -1019.85 0 -399.04 0 0 0 -186.37 0 0 762.53c0,613.41 502.74,1116.26 1116.26,1116.26l832.62 0 1015.35 0 0 -592.53 -1015.35 0 -832.62 0c-291.87,0 -530.85,-231.84 -530.85,-523.73l0 -74.4 0 0 0 0 0 -103.56 1019.85 0 1595.61 0 0 237.26 75.8 0c112.11,-84.1 305.09,-308.65 380.63,-392.8 41.1,-45.73 82.25,-91.54 123.83,-137.02zm-5245.04 1001.36c-291.92,0 -530.85,-238.96 -530.85,-530.85l0 -2057.21 -585.41 0 0 2057.21c0,613.47 502.71,1116.26 1116.26,1116.26l1078.98 0 379.54 0 0 -585.41 -379.54 0 -1078.98 0 0 0zm-3919.29 -1397.35l0 -74.45c0,-291.84 238.96,-530.86 530.88,-530.86l832.59 0 1015.37 0 0 -585.4 -1015.37 0 -832.59 0c-613.5,0 -1116.28,502.78 -1116.28,1116.26l0 338.17 0 1719.04 585.41 0 0 -1398.22 810.55 0 1568.29 0 0 -584.54 -1568.29 0 0 0 -810.55 0zm-1007.08 1982.76l0 -3173.46 -585.41 0 0 3173.46 585.41 0zm-1006.22 -3173.46l-3205.7 0 0 585.4 1309.7 0 0 2588.07 585.41 0 0 -2588.07 1310.6 0 0 -585.4zm-5883.09 3173.46l0 -2507.01c0,-43.83 35.54,-81.06 80.2,-81.06l1471.81 0c242.23,0 383.62,271.24 253,468.03 0,0 -0.84,0.84 -0.84,0.84 -9.94,15.7 -21.54,29.76 -34.75,42.99 0,0.78 0,0.78 0,0.78 -47.13,48.83 -357.88,220.2 -429.14,261.3 -132.12,76.28 -176.64,236.55 -119.89,378.71l573.02 1435.41 646.61 0 -546.57 -1380.03c-29.91,-75.7 48.2,-105.2 95.91,-132.3 442.61,-251.52 605.05,-854 277.01,-1298.92 -166.36,-225.62 -430.02,-362.21 -714.37,-362.21l-1547.04 0c-324.07,0 -590.38,263.83 -590.38,590.39l0 2583.07 585.41 0 0 0zm-4245.01 0l1030.23 -2417.73c45.81,-107.51 149.65,-170.34 266.22,-170.34 117.45,0 221.27,62.9 267.11,170.34l1030.23 2417.73 646.59 0 -1146.01 -2665.77c-135.84,-316.04 -453.13,-507.7 -797.91,-507.7 -343.97,0 -661.18,191.72 -797.05,507.7l-1146.01 2665.77 646.61 0 0 0zm-1501.2 -1899.44l-1054.22 0 -739.22 0 0 -1274.03 -585.38 0 0 3173.46 585.38 0 0 -1273.98 739.22 0 1054.22 0 0 1273.98 585.4 0 0 -3173.46 -585.4 0 0 1274.03zm-4509.56 -688.63l140.52 0 678.84 0c165.4,0 302.62,153.11 302.62,337.63 0,222.36 -150.44,286.87 -292.7,382.78 -90.92,60.95 -142.22,162.43 -142.22,280.48 0,118.05 51.3,219.57 142.22,281.36 142.26,95.91 292.7,160.53 292.7,382.83 0,184.46 -137.22,337.58 -302.62,337.58l-678.84 0 -140.52 0 -680.54 0c-47.13,0 -85.97,-43.31 -85.97,-95.9l0 -579.32 0 -652.15 0 -579.27c0,-52.6 38.84,-96.02 85.97,-96.02l680.54 0zm29938.22 1001.3c41.57,-45.52 82.77,-91.33 123.83,-137.11 75.38,-83.87 267.6,-307.61 379.84,-392.18l76.58 0 0 1059.1 -75.8 0c-112.12,-84.1 -305.09,-308.65 -380.63,-392.8 -41.1,-45.73 -82.26,-91.54 -123.83,-137.02z"/>
   <path class="fil1" d="M31705.25 593.12c-158.37,13.7 -397.63,279.94 -636.79,546.29 -142.63,158.8 -285.25,317.58 -434.65,447.4 149.45,129.88 292.02,288.56 434.65,447.35 239.16,266.35 478.42,532.6 636.79,546.3l0 592.96c-415.32,-7.24 -746.09,-375.38 -1076.58,-743.46 -245.56,-273.39 -491.13,-546.87 -649.39,-546.87 -158.21,0 -403.83,273.48 -649.39,546.87 -164.51,183.36 -328.92,366.3 -503.73,504.83l-7.4 5.88 -1.04 0.78 -8.51 6.62 -7.14 5.51 -1.31 1 -8.5 6.46 -6.93 5.2 -1.62 1.2 -8.56 6.3 -6.66 4.83 -1.89 1.37 -13.38 9.6 -1.58 1.11 -2.21 1.52 -8.61 5.98 -6.14 4.25 -2.46 1.68 -8.67 5.83 -5.93 3.93 -2.79 1.84 -14.17 9.19 -0.16 0.1 -3.05 1.94 -8.71 5.52 -5.41 3.36 -3.36 2.05 -8.77 5.3 -5.14 3.09 -3.67 2.15 -8.82 5.14 -4.88 2.83 -3.94 2.21 -8.86 4.99 -4.62 2.52 -13.18 7.08 -4.35 2.31 -4.57 2.37 -8.93 4.61 -4.09 2.05 -4.88 2.41 -9.03 4.36 -3.77 1.84 -1.52 0.68 -12.76 5.98 -3.51 1.58 -5.52 2.47 -9.13 3.99 -3.25 1.42 -1.63 0.68 -13.33 5.51 -2.99 1.21 -6.2 2.47 -9.18 3.57 -2.68 1 -6.56 2.41 -9.24 3.31 -2.41 0.89 -2.63 0.89 -13.49 4.57 -2.15 0.68 -16.53 5.2 -1.84 0.52 -7.56 2.21 -9.39 2.67 -1.53 0.42 -1.04 0.26 -16.33 4.25 -1.21 0.27 -17.53 4.09 -0.26 0.05 -0.89 0.21 -1.88 0.36 -16.33 3.42 -0.63 0.1 -18.58 3.36 -0.32 0.06 -0.48 0.05 -18.58 2.84 -9.71 1.26 -9.45 1.16 -0.31 0 -3.25 0.36 -15.01 1.47 -0.69 0.05 -0.62 0.06 -9.87 0.74 -8.92 0.58 -0.95 0.06 -18.58 0.78 -1.26 0.06 -17.59 0.26 -0.78 0 -1.63 0 -101.93 0 0 -592.55 101.93 0 1.63 -0.05c4.93,-0.1 10.03,-0.37 15.12,-0.95l4.2 -0.52 3.51 -0.52 1.89 -0.32c14.44,-2.41 29.5,-6.88 45.09,-13.02l1.84 -0.74 0.21 -0.1 7.41 -3.09 0.94 -0.37 1.42 -0.62 5.98 -2.67 1.26 -0.63 8.71 -4.25 2.15 -1.05 6.14 -3.15 0.58 -0.32 5.56 -3.04 3.36 -1.84 2.88 -1.63 6.2 -3.57 0.1 -0.06 6.3 -3.77 2.73 -1.68 3.63 -2.21 5.61 -3.57 0.84 -0.52 6.46 -4.2 2.05 -1.36 4.41 -2.95 4.99 -3.41 1.58 -1.04 6.61 -4.62 1.31 -0.94 5.3 -3.78 4.31 -3.15 2.36 -1.73 6.72 -4.99 0.63 -0.47 6.09 -4.62 3.68 -2.79 3.14 -2.46 6.72 -5.26 0.11 -0.1 6.87 -5.46 2.95 -2.36 3.93 -3.25 6.04 -4.94 0.89 -0.73 6.98 -5.83 2.2 -1.84 4.84 -4.09 5.35 -4.57 1.68 -1.47 7.09 -6.14 1.46 -1.26 5.62 -4.99 4.67 -4.09 2.53 -2.26 7.14 -6.46 0.68 -0.58 6.56 -5.98 3.89 -3.52 3.36 -3.15 7.14 -6.56 0.1 -0.15 7.3 -6.83 3.15 -2.94 4.2 -3.99 6.4 -6.09 0.94 -0.95 7.4 -7.08 2.31 -2.21 5.09 -4.93 5.62 -5.52 1.84 -1.78 7.46 -7.35 1.52 -1.46 5.94 -5.94 4.88 -4.83 2.62 -2.67 7.56 -7.56 0.68 -0.63 6.88 -6.98 4.04 -4.09 3.51 -3.63 7.46 -7.61 0.16 -0.16 7.61 -7.88 3.25 -3.31 4.41 -4.57 6.66 -6.88 1 -1.1 0.06 0c73.43,-76.58 149.61,-161.36 225.72,-246.09 142.63,-158.74 285.2,-317.47 434.65,-447.35 -149.45,-129.87 -292.02,-288.6 -434.65,-447.34 -245.56,-273.43 -491.17,-546.93 -649.39,-546.93l-1778.51 0 0 -0.21 -456.8 0c-254.69,0 -470.86,175.01 -521.42,415.22l-591.33 0c55.17,-563.1 534.06,-1007.55 1110.91,-1007.55l458.64 0 373.95 0 1015.37 0 389.18 0c421.31,0 755.32,371.86 1089.18,743.67 245.56,273.38 491.18,546.87 649.39,546.87 158.22,0 403.83,-273.54 649.39,-546.93 330.49,-368.08 661.26,-736.21 1076.58,-743.46l0 592.97z"/>
  </g>
 </g>
</svg>
