<?xml version="1.0" encoding="UTF-8"?>
<!DOCTYPE svg PUBLIC "-//W3C//DTD SVG 1.1//EN" "http://www.w3.org/Graphics/SVG/1.1/DTD/svg11.dtd">
<!-- Creator: CorelDRAW -->
<svg xmlns="http://www.w3.org/2000/svg" xml:space="preserve" width="16.1661in" height="1.60978in" version="1.1" style="shape-rendering:geometricPrecision; text-rendering:geometricPrecision; image-rendering:optimizeQuality; fill-rule:evenodd; clip-rule:evenodd"
viewBox="0 0 45955.28 4576.1"
 xmlns:xlink="http://www.w3.org/1999/xlink"
 xmlns:xodm="http://www.corel.com/coreldraw/odm/2003">
 <defs>
  <style type="text/css">
   <![CDATA[
    .fil1 {fill:#E31E24}
    .fil0 {fill:#002366;fill-rule:nonzero}
   ]]>
  </style>
 </defs>
 <g id="Layer_x0020_1">
  <metadata id="CorelCorpID_0Corel-Layer"/>
  <g id="_1403442071056">
   <path class="fil0" d="M-0 858.56l0 2859.14c0,473.22 385.11,858.4 858.4,858.4l916.7 0 174.28 0 202.63 0 856.08 0 252.93 0c645.65,0 1173.94,-528.25 1173.94,-1173.9l0 -0.08c0,-516.77 -338.53,-958.26 -804.63,-1113.97 466.1,-155.7 804.63,-597.26 804.63,-1114.04l0 -0.08c0,-645.65 -528.29,-1173.9 -1173.94,-1173.9l-252.93 0 -856.08 0 -202.63 0 -174.28 0 -916.7 0c-473.22,0 -858.4,383.91 -858.4,858.42l0 0zm41338.21 1429.53c-59.94,-65.64 -119.36,-131.7 -178.55,-197.71 -108.71,-120.94 -385.86,-443.55 -547.71,-565.5l-110.43 0 0 342.12 -2300.77 0 -1470.57 0 -575.4 0 0 0 -268.71 0 0 1099.52c0,884.52 724.91,1609.58 1609.57,1609.58l1200.58 0 1464.08 0 0 -854.4 -1464.08 0 -1200.58 0c-420.85,0 -765.46,-334.29 -765.46,-755.18l0 -107.27 0 0 0 0 0 -149.33 1470.57 0 2300.77 0 0 342.13 109.3 0c161.66,-121.27 439.91,-445.05 548.84,-566.4 59.27,-65.94 118.61,-132 178.55,-197.56zm-7563.05 1443.9c-420.93,0 -765.46,-344.57 -765.46,-765.47l0 -2966.38 -844.11 0 0 2966.38c0,884.59 724.88,1609.58 1609.57,1609.58l1555.83 0 547.28 0 0 -844.11 -547.28 0 -1555.83 0 0 0zm-5651.39 -2014.91l0 -107.35c0,-420.82 344.56,-765.46 765.49,-765.46l1200.54 0 1464.12 0 0 -844.12 -1464.12 0 -1200.54 0c-884.63,0 -1609.62,724.99 -1609.62,1609.58l0 487.62 0 2478.75 844.12 0 0 -2016.14 1168.76 0 2261.39 0 0 -842.88 -2261.39 0 0 0 -1168.76 0zm-1452.15 2859.03l0 -4575.96 -844.12 0 0 4575.96 844.12 0zm-1450.92 -4575.96l-4622.44 0 0 844.12 1888.5 0 0 3731.83 844.12 0 0 -3731.83 1889.81 0 0 -844.12zm-8483.08 4575.96l0 -3614.96c0,-63.2 51.24,-116.88 115.64,-116.88l2122.25 0c349.29,0 553.16,391.11 364.83,674.87 0,0 -1.21,1.2 -1.21,1.2 -14.33,22.65 -31.06,42.91 -50.11,62 0,1.13 0,1.13 0,1.13 -67.97,70.41 -516.06,317.52 -618.8,376.78 -190.52,109.98 -254.69,341.08 -172.88,546.07l826.26 2069.79 932.37 0 -788.11 -1989.92c-43.13,-109.15 69.5,-151.69 138.3,-190.77 638.23,-362.69 872.44,-1231.41 399.44,-1872.98 -239.87,-325.32 -620.08,-522.28 -1030.1,-522.28l-2230.73 0c-467.3,0 -851.29,380.43 -851.29,851.32l0 3724.64 844.12 0 0 0zm-6121.07 0l1485.53 -3486.22c66.06,-155.03 215.8,-245.61 383.88,-245.61 169.36,0 319.06,90.7 385.15,245.61l1485.53 3486.22 932.35 0 -1652.49 -3843.89c-195.88,-455.7 -653.38,-732.07 -1150.54,-732.07 -495.98,0 -953.38,276.45 -1149.29,732.07l-1652.49 3843.89 932.37 0 0 0zm-2164.65 -2738.88l-1520.12 0 -1065.91 0 0 -1837.08 -844.08 0 0 4575.96 844.08 0 0 -1837 1065.91 0 1520.12 0 0 1837 844.12 0 0 -4575.96 -844.12 0 0 1837.08zm-6502.52 -992.95l202.63 0 978.85 0c238.48,0 436.35,220.78 436.35,486.83 0,320.64 -216.92,413.66 -422.06,551.96 -131.1,87.88 -205.07,234.21 -205.07,404.42 0,170.21 73.97,316.62 205.07,405.71 205.14,138.3 422.06,231.47 422.06,552.02 0,265.98 -197.87,486.77 -436.35,486.77l-978.85 0 -202.63 0 -981.3 0c-67.97,0 -123.96,-62.46 -123.96,-138.31l0 -835.34 0 -940.36 0 -835.27c0,-75.85 55.99,-138.44 123.96,-138.44l981.3 0zm43169.2 1443.82c59.94,-65.64 119.36,-131.7 178.55,-197.71 108.69,-120.94 385.86,-443.55 547.71,-565.5l110.43 0 0 1527.17 -109.3 0c-161.68,-121.27 -439.92,-445.05 -548.84,-566.4 -59.27,-65.94 -118.61,-132 -178.55,-197.56z"/>
   <path class="fil1" d="M45717.15 855.24c-228.37,19.76 -573.36,403.66 -918.22,787.73 -205.65,228.97 -411.31,457.93 -626.73,645.12 215.5,187.26 421.08,416.07 626.73,645.05 344.86,384.06 689.86,767.96 918.22,787.73l0 855.01c-598.88,-10.45 -1075.82,-541.28 -1552.37,-1072.03 -354.08,-394.19 -708.17,-788.56 -936.38,-788.56 -228.14,0 -582.31,394.36 -936.39,788.56 -237.22,264.39 -474.28,528.18 -726.34,727.93l-10.67 8.48 -1.52 1.13 -12.25 9.54 -10.3 7.95 -1.89 1.44 -12.27 9.31 -9.98 7.49 -2.35 1.75 -12.34 9.08 -9.6 6.97 -2.73 1.97 -19.31 13.84 -2.26 1.59 -3.18 2.19 -12.42 8.63 -8.85 6.13 -3.56 2.43 -12.49 8.39 -8.55 5.69 -4.01 2.64 -20.45 13.25 -0.22 0.15 -4.39 2.81 -12.57 7.95 -7.79 4.85 -4.85 2.94 -12.65 7.64 -7.41 4.47 -5.3 3.11 -12.71 7.42 -7.04 4.08 -5.67 3.18 -12.79 7.19 -6.66 3.64 -19 10.22 -6.28 3.34 -6.59 3.4 -12.87 6.66 -5.9 2.95 -7.04 3.48 -13.02 6.28 -5.45 2.65 -2.19 0.98 -18.4 8.63 -5.07 2.27 -7.95 3.56 -13.17 5.75 -4.69 2.04 -2.35 0.98 -19.23 7.95 -4.31 1.75 -8.93 3.56 -13.25 5.15 -3.86 1.43 -9.46 3.48 -13.33 4.77 -3.48 1.29 -3.78 1.29 -19.45 6.59 -3.1 0.98 -23.85 7.49 -2.64 0.76 -10.9 3.18 -13.55 3.86 -2.19 0.6 -1.51 0.38 -23.55 6.13 -1.73 0.37 -25.28 5.91 -0.38 0.08 -1.29 0.3 -2.72 0.53 -23.55 4.92 -0.91 0.15 -26.79 4.85 -0.46 0.08 -0.67 0.08 -26.8 4.08 -14 1.81 -13.62 1.67 -0.46 0 -4.69 0.53 -21.64 2.13 -0.98 0.07 -0.91 0.08 -14.24 1.06 -12.87 0.83 -1.35 0.08 -26.8 1.13 -1.81 0.08 -25.36 0.38 -1.13 0 -2.35 0 -146.99 0 0 -854.41 146.99 0 2.35 -0.08c7.12,-0.15 14.46,-0.53 21.8,-1.37l6.05 -0.75 5.07 -0.76 2.72 -0.45c20.82,-3.49 42.54,-9.92 65.02,-18.78l2.65 -1.05 0.3 -0.16 10.67 -4.47 1.37 -0.53 2.05 -0.91 8.63 -3.86 1.81 -0.92 12.57 -6.12 3.1 -1.52 8.85 -4.53 0.84 -0.46 8.02 -4.39 4.83 -2.65 4.16 -2.35 8.93 -5.15 0.16 -0.07 9.09 -5.45 3.93 -2.43 5.23 -3.18 8.1 -5.15 1.21 -0.75 9.31 -6.05 2.94 -1.97 6.37 -4.24 7.19 -4.91 2.27 -1.52 9.54 -6.66 1.89 -1.37 7.64 -5.45 6.21 -4.53 3.4 -2.51 9.69 -7.19 0.91 -0.68 8.79 -6.66 5.29 -4.02 4.54 -3.55 9.69 -7.58 0.15 -0.15 9.92 -7.88 4.24 -3.4 5.67 -4.69 8.71 -7.12 1.29 -1.06 10.06 -8.39 3.18 -2.65 6.97 -5.91 7.71 -6.58 2.43 -2.12 10.22 -8.86 2.12 -1.81 8.1 -7.2 6.74 -5.9 3.63 -3.26 10.3 -9.31 0.98 -0.83 9.47 -8.63 5.6 -5.07 4.85 -4.54 10.3 -9.47 0.15 -0.22 10.52 -9.84 4.54 -4.24 6.05 -5.75 9.23 -8.77 1.37 -1.37 10.68 -10.22 3.32 -3.18 7.34 -7.12 8.1 -7.95 2.65 -2.57 10.74 -10.6 2.19 -2.12 8.55 -8.55 7.04 -6.97 3.78 -3.86 10.9 -10.89 0.98 -0.92 9.92 -10.06 5.83 -5.91 5.07 -5.22 10.76 -10.98 0.22 -0.22 10.97 -11.36 4.7 -4.77 6.36 -6.58 9.61 -9.92 1.43 -1.59 0.08 0c105.9,-110.44 215.72,-232.68 325.48,-354.84 205.66,-228.89 411.23,-457.79 626.73,-645.05 -215.5,-187.26 -421.07,-416.15 -626.73,-645.05 -354.08,-394.28 -708.25,-788.64 -936.39,-788.64l-2564.52 0 0 -0.3 -658.67 0c-367.26,0 -678.96,252.35 -751.85,598.72l-852.67 0c79.55,-811.95 770.09,-1452.83 1601.87,-1452.83l661.32 0 539.23 0 1464.11 0 561.18 0c607.51,0 1089.13,536.2 1570.53,1072.32 354.08,394.21 708.25,788.56 936.39,788.56 228.13,0 582.29,-394.43 936.38,-788.64 476.55,-530.74 953.49,-1061.58 1552.37,-1072.02l0 855.01z"/>
  </g>
 </g>
</svg>
