<svg xmlns="http://www.w3.org/2000/svg" xml:space="preserve" width="681" height="430" version="1.1" viewBox="265.80438232421875 3588.35888671875 18101.27764892578 11429.58837890625" xmlns:xlink="http://www.w3.org/1999/xlink" xmlns:xodm="http://www.corel.com/coreldraw/odm/2003" xmlns:inkscape="http://www.inkscape.org/namespaces/inkscape" style="">
 <defs>
  <style type="text/css">
   
    .fil1 {fill:none}
    .fil0 {fill:white}
   
  </style>
     <clipPath id="id0">
      <path d="M-0 0l18605.89 0 0 18605.89 -18605.89 0 0 -18605.89z"/>
     </clipPath>
 </defs>
 <g id="Layer_x0020_1">
  <metadata id="CorelCorpID_0Corel-Layer"/>
  <g id="_1642085289840">
   <g inkscape:groupmode="layer" inkscape:label="Layer 1">
    <g>
    </g>
    <g style="clip-path:url(#id0)">
     <g>
      <g>
       <path class="fil0" d="M12079.58 5122.37l57.78 67.56 -1050.86 903.87c55.13,67.47 106.7,137.79 154.03,211.16l614.87 -384.77c15.55,24.74 31.2,49.49 46.06,74.37l-615.24 384.43c26.16,43.61 50.45,88.05 73.71,133.43l913.53 -447.98c13.13,25.92 25.68,52.18 38.19,78.75l-913.74 447.72c23.26,50.42 44.41,101.11 64.35,153.02l681.18 -245.91c10.16,27.54 19.93,55.04 29.26,82.66l-681.08 245.46c12.07,35.67 23.13,72.3 33.62,108.77l1336.04 -353.29 22.22 86.01 -1336.07 353.43c20.73,86.22 36.98,174.05 47.66,263.87l720.13 -75.06c3.35,28.68 6.25,57.67 8.98,86.92l-720.12 75.19c4.38,50.42 6.91,100.84 7.49,151.84l1016.34 -0.68c0.13,15.52 0.68,30.62 0.68,45.93 0,13.92 -0.55,27.99 -0.68,41.43l-1015.99 1.04c-1.03,55.6 -3.8,110.86 -8.74,165.54l719.65 78.99c-2.63,28.79 -5.67,57.78 -9.54,87.05l-719.54 -78.99c-4.84,38.22 -10.37,76.23 -17.07,113.97l1355.06 271.14 -17.17 87.27 -1355.25 -271.01c-19.35,89.68 -43.88,177.39 -73.22,262.82l679.81 250.99c-9.78,27.62 -19.57,54.92 -29.8,82.09l-680.18 -250.97c-18.18,47.66 -38.09,93.93 -59.41,140.1l912.94 449.22c-12.28,26.37 -24.85,52.15 -38.09,78.28l-913.19 -448.98c-25.21,49.52 -51.68,97.84 -80.36,145.04l612 389.26c-14.93,25.21 -30.72,49.97 -46.48,74.03l-612.48 -389.47c-23.71,36.03 -48.59,71.95 -74.37,106.82l1093.6 850.9 -54.46 70.36 -1093.71 -850.9c-51,63.87 -105.33,124.79 -162.77,182.82l503.31 523.72c-20.48,20.46 -41.3,40.75 -62.27,60.66l-503.34 -523.49c-37.08,34.66 -75.06,67.91 -114.21,100.05l627.47 804.05c-22.59,17.96 -45.27,36.18 -68.17,53.98l-627.66 -804.04c-43.65,33.51 -89.02,65.2 -134.82,95.34l381.88 618.34c-24.29,16.02 -48.93,31.22 -73.9,45.85l-382.11 -617.9c-42.15,25.47 -85.22,49.73 -129.44,72.64l606.15 1248.67 -79.42 39.15 -606.49 -1249.14c-73.79,34.68 -149.56,65.17 -227.61,92.23l220.91 693.86c-27.38,9.22 -54.78,17.73 -82.64,26.47l-220.91 -693.86c-48.13,14.16 -96.85,27.16 -146.21,38.94l208.35 1000.33c-28.3,6.33 -56.43,12.28 -84.73,17.94l-209.19 -1000.44c-53.53,9.9 -107.89,18.42 -163.15,24.75l70.7 725.87c-28.79,3.1 -57.57,6.09 -86.61,8.5l-70.32 -725.65c-45.25,3.59 -91.07,5.66 -137.11,6.56l0 1390.53 -88.67 0 0 -1390.53c-48.45,-0.9 -96.7,-3.08 -144.14,-7.23l-72.62 724.94c-28.92,-2.63 -57.91,-5.61 -86.47,-8.96l72.85 -724.48c-50.76,-6.36 -100.39,-13.72 -149.74,-23.16l-205.52 1001.27c-28.65,-5.42 -56.88,-11.3 -85.32,-17.28l205.41 -1001.5c-53.91,-12.31 -107.09,-26.37 -159.8,-42.47l-222.55 692.83c-27.65,-8.51 -55.26,-17.49 -82.56,-26.71l222.66 -692.81c-42.02,-14.65 -83.46,-30.43 -124.55,-47.21l-548.59 1275.59 -81.38 -35.35 548.92 -1275.61c-76.12,-35.09 -150.02,-73.79 -221.3,-116.95l-381.39 619.94c-24.87,-15.07 -49.39,-30.62 -73.92,-46.03l381.31 -619.74c-42.36,-27.4 -83.83,-56.61 -124.13,-86.78l-621.22 809.2c-22.91,-17.49 -46.17,-35.8 -68.73,-53.75l621.22 -809.25c-42.93,-34.19 -84.5,-70.33 -125,-108.56l-502.44 524.85c-21.3,-19.78 -42.24,-39.58 -62.97,-60.18l502.89 -525.12c-31.65,-31.65 -62.42,-64.91 -92.1,-98.63l-1051.12 903.95 -57.57 -67.94 1050.67 -903.71c-55.15,-67.25 -106.4,-137.82 -153.81,-211.16l-615.35 384.99c-15.31,-24.54 -30.86,-49.53 -45.72,-74.27l615 -384.74c-25.54,-43.41 -50.42,-87.74 -73.55,-132.88l-913.44 447.26c-13.11,-25.89 -25.66,-51.92 -37.98,-78.73l913.55 -447.51c-23.26,-50.21 -44.54,-101.18 -64.13,-152.88l-681.32 245.54c-10.37,-26.92 -20.15,-54.44 -29.69,-81.63l681.42 -245.99c-12.1,-36.04 -22.78,-72.19 -33.62,-109.03l-1336.28 353.99 -22.67 -86.55 1336.73 -353.67c-20.95,-86.6 -37.19,-174.55 -48,-264.23l-720.24 75.51c-3.32,-28.78 -6.45,-58 -8.85,-86.78l720.24 -75.76c-4.39,-50.21 -6.81,-100.63 -7.85,-151.5l-1015.88 0.69c-0.24,-15.55 -0.45,-30.99 -0.45,-45.96 0,-14.03 0,-27.62 0.35,-41.89l1016.09 -0.24c1.17,-55.95 4.14,-111.45 8.98,-165.88l-720.23 -79c2.76,-28.99 6.11,-58.13 9.67,-87.05l719.54 78.89c4.84,-38.22 10.71,-76.34 17.39,-113.97l-1355.5 -271.01 17.04 -87.63 1355.6 271c19.7,-89.33 44.1,-176.94 73.22,-262.47l-680.04 -251.1c9.67,-27.62 19.8,-54.92 30.14,-82.09l679.84 251.21c18.66,-47.66 38.57,-94.28 59.51,-139.99l-912.94 -449.33c12.55,-26.37 24.98,-52.74 38.11,-78.41l913.42 449.11c25.09,-49.28 52.05,-97.87 80.6,-144.94l-612.48 -389.92c15.07,-24.66 30.83,-49.28 46.61,-73.81l612.48 389.92c23.95,-36.37 48.8,-72.51 74.72,-107.2l-1093.71 -850.55 54.33 -70.68 1093.47 851.14c51,-64.13 105.23,-125.37 163.15,-183.06l-503.55 -523.72c20.49,-20.49 41.44,-40.75 62.52,-60.66l503.31 523.59c36.87,-34.53 74.61,-68.15 113.87,-100.05l-627.34 -804.04c22.59,-18.42 45.27,-36.15 68.28,-53.99l627.55 803.69c43.65,-33.27 88.78,-64.93 134.82,-95.21l-382.11 -618.25c24.18,-15.76 49.16,-31.07 73.92,-45.83l382.01 617.9c42.47,-25.57 85.63,-49.84 129.73,-72.43l-605.92 -1248.88 79.34 -39.26 606.37 1249.12c73.89,-34.53 149.43,-65.52 227.49,-92.1l-220.82 -693.76c27.64,-9.19 55.15,-18.17 82.9,-26.57l220.69 693.86c48.14,-14.62 96.94,-27.43 146.43,-38.91l-208.59 -1000.57c28.2,-6.12 56.54,-11.98 85.08,-17.38l208.6 1000.22c53.52,-10.16 108.23,-18.44 163.36,-25.09l-70.78 -725.31c28.76,-3.21 57.89,-6.12 86.79,-8.3l70.35 725.17c45.59,-3.69 91.17,-5.63 137.24,-6.67l0 -1390.29 88.65 0 0 1390.18c48.21,1.03 96.14,3.46 143.9,7.25l72.75 -724.51c29.13,2.42 57.91,5.31 86.47,8.88l-72.51 724.48c50.29,5.98 100.26,13.82 149.67,22.91l205.48 -1001.16c28.42,5.66 56.99,11.53 85.09,17.65l-205.62 1001.02c54.12,11.96 107.54,26.34 159.79,42.24l222.66 -692.38c27.76,8.3 55.39,17.18 82.54,26.61l-222.29 692.59c42.02,14.76 83.24,30.28 124.42,47.35l548.61 -1275.75 81.49 35.69 -549.03 1275.51c75.99,34.77 149.91,73.68 221.06,116.5l381.5 -619.39c24.77,15.2 49.41,30.62 73.92,46.17l-381.39 619.25c42.44,27.65 84.01,56.41 124.34,87.29l621.33 -809.46c23.15,17.73 46.03,35.56 68.7,53.64l-621.22 809.12c42.96,34.77 84.53,70.81 124.82,108.45l503 -524.98c21.26,20.15 42.02,40.19 62.73,60.56l-503.11 524.87c31.88,32.11 62.52,64.94 92.58,98.66l1050.51 -903.39zm-2320.4 3545.22c267.45,0 486.07,194.09 504.14,439.55l-376 0c-13.34,-66.31 -65.6,-116.29 -128.15,-116.29 -62.62,0 -114.88,49.98 -128.01,116.29l-376.34 0c18.07,-245.46 236.8,-439.55 504.35,-439.55l0 0zm482.29 -2415.95l-1246.04 2483.65 179.49 0 0 371.85 -366.1 0 -206.42 0 -206.31 0 1313.85 -2618.78c-154.75,73.68 -304.98,171.65 -531.2,148.85 -319.49,-31.9 -513.37,-212.19 -557.46,-632.39 191.59,156.8 424.82,270.67 654.84,262.72 233.82,-8.06 316.7,-98.08 494.12,-176.84 111.21,-48.93 357.69,8.29 471.23,160.94l0 0zm-938.4 -769.17c1145.51,0 2074.45,934.6 2074.45,2086.68 0,596.38 -249,1134.24 -647.81,1514.38l0 -2795.95 -394.54 0 0 1148.14 -496.54 0 -199.3 396.73 695.94 0 0 1274.69 369.25 0c-369.01,340.65 -861.19,548.45 -1401.34,548.45 -540.29,0 -1032.34,-207.8 -1401.56,-548.45l362.87 0 0 -1274.69 581.41 0 199.4 -396.73 -780.92 0 0 -1148.14 -394.76 0 0 2789.73c-395.24,-380.01 -641.02,-915.38 -641.02,-1508.16 0,-1152.08 928.83,-2086.68 2074.47,-2086.68z"/>
      </g>
      <path class="fil0" d="M17784.29 14001.58l354.05 0c0,7.84 0.32,20.95 0.82,37.45 1.25,16.61 1.57,29.74 1.57,39.02 0,227.18 -47.84,396.27 -143.02,506.18 -94.86,110.22 -240.47,164.95 -436.58,164.95 -93.43,0 -173.59,-12.18 -239.83,-36.01 -67.2,-24.32 -124.48,-62.19 -172.61,-113.1 -66.08,-68.49 -112.49,-162.22 -139.52,-280.6 -27.36,-120.3 -41.12,-327.18 -41.12,-623.46 0,-202.7 8.48,-363.48 24.47,-483.17 16.32,-119.66 40.81,-208.75 74.88,-267.31 52.81,-90.05 117.11,-155.65 195.67,-196.14 77.89,-40.64 177.1,-61.13 298.33,-61.13 197.75,0 342.21,52.18 432.14,156.31 90.24,103.66 135.82,270.69 136.62,500.42l-353.57 0 0 -47.21c0,-106.35 -17.44,-185.39 -51.99,-237.73 -33.93,-52.47 -85.78,-78.23 -155.97,-78.23 -87.34,0 -146.72,36.18 -178.57,108.32 -31.17,72.32 -47.82,272.61 -47.82,600.25 0,353.59 16.16,569.2 46.54,645.7 30.73,76.79 90.24,115.36 177.1,115.36 81.12,0 137.77,-30.25 170.09,-90.08 32.01,-60.01 47.98,-171.17 47.98,-333.09l0 -26.71 0.31 0zm-2326.64 700.88l0 -1966.2 374.98 0 508.45 1374.73 -9.75 -1374.73 343.14 0 0 1966.2 -370.49 0 -512.91 -1376.97 10.08 1376.97 -343.49 0zm-697.06 -1966.2l364.11 0 0 1966.2 -364.11 0 0 -1966.2zm-1345.92 1966.2l0 -332.47 686.16 -1328 -652.4 0 0 -305.73 1040.04 0 0 302.35 -678.16 1331.38 706.63 0 0 332.47 -1102.27 0zm-2111.13 0l0 -1966.2 374.67 0 508.74 1374.73 -9.92 -1374.73 342.99 0 0 1966.2 -370.49 0 -512.43 -1376.97 9.43 1376.97 -342.99 0zm-1564.8 0l440.58 -1966.2 488.11 0 444.28 1966.2 -392.29 0 -95.82 -494.65 -419.01 0 -93.75 494.65 -372.11 0zm522.82 -789.85l309.74 0 -155.99 -824.38 -153.74 824.38zm-1212.36 789.85l0 -1642.06 -418.49 0 0 -323.98 1201.14 0 0 323.98 -418.21 0 0 1642.21 -364.44 0 0 -0.15zm-1738.85 -689.85l363.95 0 0 125.91c0,120.62 15.37,203.36 45.27,247.51 30.09,43.67 82.24,65.6 155.68,65.6 77.1,0 135.5,-19.38 176.15,-59.06 40,-39.02 60.14,-97.42 60.14,-173.72 0,-58.4 -13.92,-109.41 -42.23,-151.51 -27.51,-41.59 -88.32,-96.29 -181.28,-162.56l-186.53 -132.61c-161.58,-112.61 -263.81,-205.56 -307.15,-278.52 -43.83,-73.28 -65.6,-165.6 -65.6,-275.82 0,-165.44 48.48,-294.85 145.74,-388.92 97.92,-93.27 231.83,-140.29 403.16,-140.29 181.43,0 319.81,49.9 416.58,150.05 96.96,99.19 144.96,241.93 144.96,428.6 0,19.19 0,33.28 -0.63,43.2 -0.34,10.58 -1.28,19.37 -2.23,27.05l-345.91 0 0 -52.02c0,-106.85 -17.25,-183 -51.84,-229.89 -34.71,-45.42 -92.31,-68.15 -171.17,-68.15 -58.55,0 -104.17,16.97 -137.58,51.52 -33.27,34.87 -50.07,82.56 -50.07,143.83 0,83.01 75.03,174.23 224.6,275.34l3.86 1.91 200.31 136.65c143.15,95.79 239.96,185.39 290.99,270.19 50.24,84.63 75.68,192.14 75.68,323.34 0,178.67 -50.24,317.07 -152.15,413.37 -101.42,97.15 -246.69,145.61 -435.01,145.61 -196.61,0 -342.51,-50.55 -438.83,-152.47 -95.82,-102.22 -143.48,-258.38 -143.48,-467.46 0,-22.24 1.43,-58.42 4.62,-109.77l0 -6.88zm-1516.01 -1276.34l364.28 0 0 1324.98c0,152.18 19.06,254.69 55.52,308.75 36.79,54.42 102.07,81.63 195.98,81.63 93.12,0 157.43,-27.54 193.42,-82.24 36.15,-54.41 54.09,-158.39 54.09,-313.09l0 -1320.03 358.83 0 0 1357.14c0,132.15 -7.2,228.45 -22.06,289.08 -14.41,60.95 -39.21,114.4 -74.4,160.3 -52.97,68.78 -121.92,120.33 -208.14,154.72 -85.75,34.69 -188.48,51.84 -306.39,51.84 -223.64,0 -380.91,-48.46 -473.2,-146.25 -91.7,-97.09 -137.76,-266.83 -137.76,-509.69l0 -1357.14 -0.16 0zm-1527.67 1966.2l0 -1966.2 585.04 0c119.02,0 213.76,10.08 284.62,30.07 70.57,20.84 128.94,54.25 174.39,100.18 68.96,67.17 116.95,151.98 145.74,254.52 28.02,102.84 42.08,261.58 42.08,478.52 0,278.66 -9.44,475.95 -28.63,591.45 -19.69,115.34 -53.13,213.39 -99.99,294.7 -43.83,80.3 -106.88,137.07 -186.38,169.07 -80.33,31.52 -219.02,47.84 -416.45,47.84l-500.42 0 0 -0.15zm355.96 -290.55l161.1 0c82.4,0 140,-5.26 172.8,-17.09 33.12,-12.18 59.19,-32.8 79.18,-61.9 33.92,-51.22 57.75,-120.97 71.69,-209.77 15.2,-88.81 22.22,-231.17 22.22,-426.98 0,-190.36 -8.64,-329.08 -25.76,-415.97 -17.28,-87.03 -45.43,-151.96 -86.22,-196.14 -21.11,-23.05 -48.8,-38.22 -82.09,-47.01 -33.43,-9.46 -85.58,-13.45 -156.61,-13.45l-156.48 0 0 1388.32 0.16 0zm-1906.04 290.55l0 -1966.2 375.17 0 508.74 1374.73 -9.92 -1374.73 342.7 0 0 1966.2 -370.84 0 -512.43 -1376.97 10.39 1376.97 -343.81 0zm-696.55 -1966.2l364.12 0 0 1966.2 -364.12 0 0 -1966.2zm-1554.89 1966.2l0 -1966.2 361.72 0 0 770.95 498.67 0 0 -770.95 361.08 0 0 1966.2 -361.08 0 0 -892.05 -498.67 0 0 892.05 -361.72 0z"/>
     </g>
    </g>
    <polygon class="fil1" points="-0,0 18605.89,0 18605.89,18605.89 -0,18605.89 "/>
   </g>
  </g>
 </g>
</svg>