<svg version="1.1" id="Layer_1" xmlns="http://www.w3.org/2000/svg" xmlns:xlink="http://www.w3.org/1999/xlink" x="0px" y="0px" viewBox="0 0 279.5 57.1" style="enable-background:new 0 0 279.5 57.1;" xml:space="preserve">
 <style type="text/css">
  .st0{fill:#74BB44;}
	.st1{fill-rule:evenodd;clip-rule:evenodd;fill:#0064A4;}
	.st2{fill-rule:evenodd;clip-rule:evenodd;fill:#74BB44;}
 </style>
 <g>
  <path class="st0" d="M100.8,44.6l0.1-0.3l0.4-0.2l1.5-0.5l0.1,0h0.1l0.3,0.1l0.1,0.4l0,2h1.1l0.3,0.1l0.1,0.4v1.2l-0.1,0.4
		l-0.3,0.1h-1.1l0,5.2l-0.1,0.4l-0.4,0.1h-1.5c-0.3,0-0.5-0.2-0.5-0.5l0-5.2h-0.5c-0.3,0-0.5-0.2-0.5-0.5v-1.2
		c0-0.3,0.2-0.5,0.5-0.5h0.5L100.8,44.6">
  </path>
  <path class="st0" d="M106.3,46.3l0-0.2l0.1-0.2l0.3-0.1h1l0.2,0l0.1,0.1l0.1,0.2l0.1,0.2l0.1,0.1l0.1,0.2l0.1,0.2l0.1,0.1l0.4-0.4
		l0.4-0.4l0.4-0.3l0.6-0.1l0.6,0.1l0.5,0.2l0.5,0.2l0.5,0.4c0.3,0.2,0.3,0.4,0.2,0.7l-0.6,1l-0.3,0.2l-0.4-0.1l-0.6-0.4l-0.7-0.1
		l-0.4,0.1l-0.3,0.2l-0.3,0.3l-0.3,0.4v4.7l-0.1,0.4l-0.4,0.1h-1.5c-0.3,0-0.5-0.2-0.5-0.5V46.3">
  </path>
  <path class="st0" d="M122.7,53.6l0,0.2l-0.1,0.2l-0.2,0.1l-0.2,0h-1.3l-0.2,0l-0.1-0.1l-0.1-0.2l-0.1-0.2l-0.2-0.5l-0.4,0.4
		l-0.5,0.4l-0.5,0.3l-0.6,0.1c-0.4,0-0.8,0-1.1-0.1c-0.4-0.1-0.7-0.2-1-0.4c-0.3-0.2-0.6-0.4-0.8-0.7c-0.3-0.3-0.5-0.5-0.7-0.9
		c-0.2-0.3-0.3-0.7-0.4-1c-0.1-0.4-0.1-0.7-0.1-1.1c0-0.6,0.1-1.1,0.3-1.7c0.2-0.5,0.5-1,0.9-1.3c0.4-0.4,0.8-0.7,1.3-0.9
		c0.5-0.2,1.1-0.3,1.6-0.3c0.3,0,0.5,0,0.7,0.1l0.6,0.3l0.5,0.4l0.4,0.5l0.2-0.8l0.1-0.3l0.1-0.1l0.1-0.1l0.2,0h1l0.2,0l0.2,0.1
		l0.1,0.2l0,0.2V53.6 M116.3,49.9c0,0.3,0,0.6,0.1,0.8l0.4,0.6l0.6,0.4c0.2,0.1,0.5,0.2,0.8,0.2c0.3,0,0.6-0.1,0.8-0.2l0.6-0.4
		l0.4-0.6c0.1-0.2,0.1-0.5,0.1-0.8c0-0.3,0-0.5-0.1-0.8l-0.4-0.7l-0.6-0.4c-0.2-0.1-0.5-0.2-0.8-0.2c-0.3,0-0.5,0.1-0.8,0.2
		l-0.6,0.4l-0.4,0.7C116.4,49.4,116.3,49.7,116.3,49.9">
  </path>
  <path class="st0" d="M124.9,46l0.2-0.1l0.2,0h1l0.2,0l0.1,0.1l0.1,0.2l0.1,0.2l0.2,0.8l0.3-0.5l0.5-0.5l0.7-0.4
		c0.3-0.1,0.6-0.2,0.9-0.2c0.5,0,0.9,0.1,1.3,0.3c0.4,0.2,0.7,0.4,1,0.8c0.3,0.3,0.5,0.7,0.6,1.1c0.2,0.4,0.2,0.9,0.2,1.4v4.2
		l-0.1,0.4L132,54h-1.5l-0.4-0.1l-0.1-0.4v-4.2l-0.1-0.5l-0.3-0.4l-0.5-0.3l-0.5-0.1l-0.5,0.1l-0.4,0.3l-0.3,0.4l-0.2,0.5v4.2l0,0.2
		l-0.1,0.2l-0.2,0.1l-0.2,0h-1.5l-0.4-0.1l-0.1-0.4v-7.2l0.1-0.2L124.9,46L124.9,46">
  </path>
  <path class="st0" d="M135.8,51.5l0.4,0.3l0.4,0.2l0.3,0.1l0.2,0l0.3,0l0.4-0.1l0.3-0.2l0.1-0.3l-0.1-0.3l-0.2-0.2l-0.3-0.1
		l-0.4-0.1c-0.5-0.1-0.9-0.3-1.3-0.5c-0.3-0.2-0.6-0.4-0.8-0.6c-0.2-0.2-0.3-0.5-0.4-0.8c-0.1-0.3-0.1-0.6-0.1-0.9
		c0-0.4,0.1-0.7,0.2-1c0.1-0.3,0.3-0.5,0.6-0.7c0.3-0.2,0.6-0.4,0.9-0.5c0.4-0.1,0.8-0.2,1.2-0.2c0.3,0,0.5,0,0.8,0.1l0.7,0.2
		l0.6,0.4l0.6,0.5l0.1,0.2l-0.1,0.2l-0.5,0.4l-0.5,0.4l-0.2,0.1l-0.1,0l-0.1-0.1l-0.1-0.1l-0.5-0.3l-0.5-0.1l-0.5,0.1l-0.2,0.3
		l0.1,0.3l0.3,0.2l0.3,0.1l0.3,0.1c0.4,0.1,0.7,0.3,1.1,0.4c0.3,0.1,0.6,0.3,0.8,0.5c0.2,0.2,0.4,0.5,0.5,0.8
		c0.1,0.3,0.2,0.7,0.2,1.1c0,0.4-0.1,0.8-0.3,1.1c-0.2,0.3-0.4,0.6-0.7,0.8c-0.3,0.2-0.6,0.4-1.1,0.5c-0.4,0.1-0.8,0.2-1.3,0.2
		c-0.3,0-0.5,0-0.8-0.1c-0.3,0-0.5-0.1-0.8-0.2l-0.7-0.4l-0.6-0.6l-0.1-0.2l0-0.2l0-0.2l0.1-0.1l0.8-0.8l0.3-0.1L135.8,51.5">
  </path>
  <path class="st0" d="M143.3,46c0-0.4,0.1-0.8,0.3-1.1c0.2-0.4,0.4-0.7,0.7-0.9c0.3-0.3,0.6-0.5,1-0.6c0.4-0.2,0.8-0.2,1.2-0.2h0.1
		l0.3,0.1l0.1,0.4v1.2l-0.1,0.4l-0.3,0.2h-0.1l-0.3,0l-0.2,0.1l-0.2,0.2l-0.1,0.2v0.7h1l0.3,0.1l0.1,0.4v1.2l-0.1,0.4l-0.3,0.1h-1
		v4.6l-0.2,0.4l-0.4,0.1h-1.4l-0.4-0.1l-0.1-0.3v-4.6h-0.7l-0.4-0.1l-0.1-0.4v-1.2l0.1-0.4l0.4-0.1h0.7V46">
  </path>
  <path class="st0" d="M148.3,49.9c0-0.4,0.1-0.8,0.2-1.1c0.1-0.4,0.2-0.7,0.4-1c0.2-0.3,0.4-0.6,0.7-0.9c0.3-0.3,0.5-0.5,0.9-0.6
		c0.3-0.2,0.7-0.3,1-0.4c0.4-0.1,0.7-0.1,1.1-0.1c0.6,0,1.1,0.1,1.6,0.3c0.5,0.2,1,0.5,1.3,0.9c0.4,0.4,0.7,0.8,0.9,1.3
		c0.2,0.5,0.3,1.1,0.3,1.7c0,0.4-0.1,0.8-0.1,1.1c-0.1,0.4-0.2,0.7-0.4,1c-0.2,0.3-0.4,0.6-0.7,0.9c-0.3,0.3-0.5,0.5-0.9,0.7
		c-0.3,0.2-0.7,0.3-1,0.4c-0.4,0.1-0.7,0.1-1.1,0.1c-0.4,0-0.8,0-1.1-0.1c-0.4-0.1-0.7-0.2-1-0.4c-0.3-0.2-0.6-0.4-0.9-0.7
		c-0.3-0.3-0.5-0.5-0.7-0.9c-0.2-0.3-0.3-0.7-0.4-1C148.4,50.7,148.3,50.3,148.3,49.9 M150.7,49.9c0,0.3,0,0.6,0.1,0.8l0.4,0.6
		l0.6,0.4c0.2,0.1,0.5,0.2,0.8,0.2c0.3,0,0.5-0.1,0.8-0.2l0.6-0.4l0.4-0.6c0.1-0.2,0.1-0.5,0.1-0.8c0-0.3,0-0.5-0.1-0.8l-0.4-0.7
		l-0.6-0.4c-0.2-0.1-0.5-0.2-0.8-0.2c-0.3,0-0.5,0.1-0.8,0.2l-0.6,0.4l-0.4,0.7C150.7,49.4,150.7,49.7,150.7,49.9">
  </path>
  <path class="st0" d="M158.6,46.3l0.1-0.2l0.1-0.2l0.3-0.1h1l0.2,0l0.1,0.1l0.1,0.2l0.1,0.2l0,0.1l0.1,0.2l0.1,0.2l0.1,0.1l0.4-0.4
		l0.4-0.4l0.4-0.3l0.6-0.1l0.6,0.1l0.5,0.2l0.5,0.2l0.5,0.4c0.3,0.2,0.4,0.4,0.2,0.7l-0.6,1l-0.3,0.2l-0.4-0.1L163,48l-0.6-0.1
		l-0.4,0.1l-0.3,0.2l-0.3,0.3l-0.3,0.4v4.7l-0.1,0.4l-0.4,0.1h-1.4c-0.3,0-0.5-0.2-0.5-0.5V46.3">
  </path>
  <path class="st0" d="M166.6,46l0.2-0.1l0.2,0h1l0.2,0l0.1,0.1l0.1,0.2l0.1,0.2l0.2,0.8l0.2-0.5l0.4-0.5l0.6-0.4
		c0.2-0.1,0.5-0.2,0.9-0.2c0.5,0,1,0.1,1.4,0.4c0.4,0.2,0.8,0.5,1,0.9l0.3-0.4l0.5-0.4l0.7-0.3c0.3-0.1,0.5-0.1,0.8-0.1
		c0.5,0,0.9,0.1,1.3,0.3c0.4,0.2,0.7,0.4,1,0.8c0.3,0.3,0.5,0.7,0.6,1.1c0.1,0.4,0.2,0.9,0.2,1.4v4.2l-0.1,0.4l-0.3,0.1h-1.5
		l-0.4-0.1l-0.1-0.4v-4.3l-0.1-0.5l-0.2-0.4l-0.4-0.3L175,48l-0.5,0.1l-0.4,0.3l-0.3,0.4l-0.1,0.5v4.2l-0.1,0.4l-0.3,0.1h-1.5
		l-0.4-0.1l-0.1-0.4v-4.3l-0.1-0.5l-0.2-0.4l-0.4-0.3l-0.5-0.1l-0.5,0.1l-0.4,0.3l-0.3,0.4l-0.1,0.5v4.2l0,0.2l-0.1,0.2l-0.2,0.1
		l-0.2,0H167l-0.4-0.1l-0.1-0.4v-7.2l0.1-0.2L166.6,46L166.6,46">
  </path>
  <path class="st0" d="M180.7,43.1l0.1-0.4l0.4-0.1h1.5l0.4,0.1l0.1,0.4v1.3l0,0.2l-0.1,0.2l-0.2,0.1l-0.2,0.1h-1.5
		c-0.3,0-0.5-0.2-0.5-0.5V43.1 M180.7,46.4l0.1-0.4l0.4-0.1h1.5l0.2,0L183,46l0.1,0.2l0.1,0.2v7.2l-0.1,0.4l-0.4,0.1h-1.5
		c-0.3,0-0.5-0.2-0.5-0.5V46.4z">
  </path>
  <path class="st0" d="M185.4,46l0.2-0.1l0.2,0h1l0.2,0l0.1,0.1l0.1,0.2l0.1,0.2l0.2,0.8l0.3-0.5l0.5-0.5l0.7-0.4
		c0.3-0.1,0.6-0.2,0.9-0.2c0.5,0,0.9,0.1,1.3,0.3c0.4,0.2,0.7,0.4,1,0.8c0.3,0.3,0.5,0.7,0.7,1.1c0.2,0.4,0.2,0.9,0.2,1.4v4.2
		l-0.1,0.4l-0.3,0.1H191l-0.4-0.1l-0.1-0.4v-4.2l-0.1-0.5l-0.3-0.4l-0.5-0.3l-0.5-0.1l-0.5,0.1l-0.4,0.3l-0.3,0.4l-0.2,0.5v4.2
		l0,0.2l-0.1,0.2l-0.2,0.1l-0.2,0h-1.5l-0.4-0.1l-0.1-0.4v-7.2l0.1-0.2L185.4,46L185.4,46">
  </path>
  <path class="st0" d="M200.9,53.8l0.1-0.5l0-0.6l-0.4,0.4l-0.4,0.4l-0.5,0.3l-0.7,0.1c-0.6,0-1.1-0.1-1.6-0.3
		c-0.5-0.2-0.9-0.5-1.3-0.8c-0.4-0.4-0.6-0.8-0.8-1.3c-0.2-0.5-0.3-1-0.3-1.6c0-0.6,0.1-1.1,0.3-1.6c0.2-0.5,0.5-1,0.8-1.3
		c0.4-0.4,0.8-0.7,1.3-0.9c0.5-0.2,1-0.3,1.6-0.3c0.3,0,0.5,0,0.7,0.1l0.6,0.3l0.5,0.4l0.4,0.5l0.2-0.8l0.1-0.2l0.1-0.1l0.1-0.1
		l0.2,0h1l0.2,0l0.2,0.1l0.1,0.2l0,0.2v6.6c0,0.7-0.1,1.3-0.3,1.8c-0.2,0.5-0.5,1-0.9,1.3c-0.4,0.4-0.8,0.6-1.3,0.8
		c-0.5,0.2-1.1,0.3-1.7,0.3c-0.2,0-0.5,0-0.7-0.1c-0.3,0-0.5-0.1-0.8-0.2c-0.3-0.1-0.5-0.2-0.8-0.3l-0.7-0.4l-0.1-0.1l-0.1-0.2v-0.2
		l0.1-0.2l0.6-0.8l0.3-0.2l0.4,0.2l0.4,0.2l0.4,0.1l0.4,0.1l0.4,0l0.6-0.1l0.6-0.2l0.5-0.4L200.9,53.8 M197.3,49.9
		c0,0.3,0,0.6,0.1,0.8l0.4,0.6l0.6,0.4c0.2,0.1,0.5,0.2,0.8,0.2c0.3,0,0.5,0,0.8-0.1l0.6-0.4l0.4-0.6c0.1-0.2,0.2-0.5,0.2-0.8v-0.2
		l-0.2-0.7l-0.4-0.6l-0.6-0.4c-0.2-0.1-0.5-0.2-0.8-0.2c-0.3,0-0.5,0.1-0.8,0.2l-0.6,0.4l-0.4,0.6C197.3,49.4,197.3,49.7,197.3,49.9
		">
  </path>
  <path class="st0" d="M216.8,53.1c-0.4,0.3-0.8,0.6-1.3,0.8c-0.5,0.2-1,0.3-1.5,0.3c-0.6,0-1.1-0.1-1.7-0.3c-0.5-0.2-1-0.5-1.4-0.9
		c-0.4-0.4-0.7-0.8-0.9-1.3c-0.2-0.5-0.3-1.1-0.3-1.7c0-0.4,0-0.7,0.1-1.1c0.1-0.3,0.2-0.7,0.4-1c0.2-0.3,0.4-0.6,0.6-0.9
		c0.2-0.3,0.5-0.5,0.8-0.7c0.3-0.2,0.6-0.3,1-0.4c0.4-0.1,0.7-0.2,1.1-0.2c0.4,0,0.7,0,1,0.1c0.3,0.1,0.7,0.2,0.9,0.4
		c0.3,0.2,0.6,0.4,0.8,0.6c0.2,0.2,0.5,0.5,0.6,0.8c0.2,0.3,0.3,0.6,0.4,0.9c0.1,0.3,0.1,0.7,0.1,1l0,0.5l-0.1,0.3l-0.3,0.2
		c-0.1,0-0.3,0.1-0.6,0.1h-4.6c0,0.3,0.1,0.5,0.3,0.7l0.5,0.4l0.5,0.2l0.5,0.1l0.5,0l0.5-0.1l0.4-0.2l0.3-0.2l0.2-0.1l0.2,0l0.2,0.1
		l0.2,0.2l0.7,0.8l0.1,0.1l0,0.1l-0.1,0.2L216.8,53.1 M213.7,47.7l-0.5,0.1l-0.4,0.3l-0.4,0.4l-0.3,0.4h3.3l-0.3-0.5l-0.4-0.4
		l-0.5-0.3L213.7,47.7z">
  </path>
  <polygon class="st0" points="219.6,43.9 219.7,43.6 220,43.4 221.6,43.4 221.8,43.5 221.9,43.6 222,43.7 222,43.9 222,53.5 
		221.9,53.9 221.5,54 220,54 219.7,53.9 219.6,53.5 	">
  </polygon>
  <path class="st0" d="M230.9,53.1c-0.4,0.3-0.8,0.6-1.3,0.8c-0.5,0.2-1,0.3-1.5,0.3c-0.6,0-1.1-0.1-1.7-0.3c-0.5-0.2-1-0.5-1.4-0.9
		c-0.4-0.4-0.7-0.8-0.9-1.3c-0.2-0.5-0.3-1.1-0.3-1.7c0-0.4,0-0.7,0.1-1.1c0.1-0.3,0.2-0.7,0.4-1c0.2-0.3,0.4-0.6,0.6-0.9
		c0.2-0.3,0.5-0.5,0.8-0.7c0.3-0.2,0.6-0.3,1-0.4c0.4-0.1,0.7-0.2,1.1-0.2c0.4,0,0.7,0,1,0.1c0.3,0.1,0.7,0.2,0.9,0.4
		c0.3,0.2,0.6,0.4,0.8,0.6c0.2,0.2,0.5,0.5,0.6,0.8c0.2,0.3,0.3,0.6,0.4,0.9c0.1,0.3,0.1,0.7,0.1,1l0,0.5l-0.1,0.3l-0.3,0.2
		c-0.1,0-0.3,0.1-0.6,0.1h-4.6c0,0.3,0.1,0.5,0.3,0.7l0.5,0.4l0.5,0.2l0.5,0.1l0.5,0L229,52l0.4-0.2l0.3-0.2l0.2-0.1l0.2,0l0.2,0.1
		l0.2,0.2l0.7,0.8l0.1,0.1l0,0.1l-0.1,0.2L230.9,53.1 M227.8,47.7l-0.5,0.1l-0.4,0.3l-0.4,0.4l-0.3,0.4h3.3l-0.3-0.5l-0.4-0.4
		l-0.5-0.3L227.8,47.7z">
  </path>
  <path class="st0" d="M233.9,46l0.2-0.1l0.2,0h1l0.2,0l0.1,0.1l0.1,0.2l0.1,0.2l0.2,0.8l0.2-0.5l0.4-0.5l0.6-0.4
		c0.2-0.1,0.5-0.2,0.9-0.2c0.5,0,1,0.1,1.4,0.4c0.4,0.2,0.8,0.5,1,0.9l0.3-0.4l0.5-0.4l0.7-0.3c0.3-0.1,0.5-0.1,0.8-0.1
		c0.5,0,0.9,0.1,1.3,0.3c0.4,0.2,0.7,0.4,1,0.8c0.3,0.3,0.5,0.7,0.6,1.1c0.1,0.4,0.2,0.9,0.2,1.4v4.2l-0.1,0.4l-0.3,0.1h-1.5
		l-0.4-0.1l-0.1-0.4v-4.3l-0.1-0.5l-0.2-0.4l-0.4-0.3l-0.5-0.1l-0.5,0.1l-0.4,0.3l-0.3,0.4l-0.1,0.5v4.2l-0.1,0.4l-0.3,0.1h-1.5
		l-0.4-0.1l-0.1-0.4v-4.3l-0.1-0.5l-0.2-0.4l-0.4-0.3l-0.5-0.1l-0.5,0.1l-0.4,0.3l-0.3,0.4l-0.1,0.5v4.2l0,0.2l-0.1,0.2l-0.2,0.1
		l-0.2,0h-1.5l-0.4-0.1l-0.1-0.4v-7.2l0-0.2L233.9,46L233.9,46">
  </path>
  <path class="st0" d="M254.8,53.1c-0.4,0.3-0.8,0.6-1.3,0.8c-0.5,0.2-1,0.3-1.5,0.3c-0.6,0-1.1-0.1-1.7-0.3c-0.5-0.2-1-0.5-1.4-0.9
		c-0.4-0.4-0.7-0.8-0.9-1.3c-0.2-0.5-0.3-1.1-0.3-1.7c0-0.4,0-0.7,0.1-1.1c0.1-0.3,0.2-0.7,0.4-1c0.2-0.3,0.4-0.6,0.6-0.9
		c0.2-0.3,0.5-0.5,0.8-0.7c0.3-0.2,0.6-0.3,1-0.4c0.4-0.1,0.7-0.2,1.1-0.2c0.4,0,0.7,0,1,0.1c0.3,0.1,0.7,0.2,0.9,0.4
		c0.3,0.2,0.6,0.4,0.8,0.6c0.2,0.2,0.5,0.5,0.6,0.8c0.2,0.3,0.3,0.6,0.4,0.9c0.1,0.3,0.1,0.7,0.1,1l0,0.5l-0.1,0.3l-0.3,0.2
		c-0.1,0-0.3,0.1-0.6,0.1H250c0,0.3,0.1,0.5,0.3,0.7l0.5,0.4l0.5,0.2l0.5,0.1l0.5,0l0.5-0.1l0.4-0.2l0.3-0.2l0.2-0.1l0.2,0l0.2,0.1
		l0.2,0.2l0.7,0.8l0.1,0.1l0,0.1l-0.1,0.2L254.8,53.1 M251.7,47.7l-0.5,0.1l-0.4,0.3l-0.4,0.4l-0.3,0.4h3.3l-0.3-0.5l-0.4-0.4
		l-0.5-0.3L251.7,47.7z">
  </path>
  <path class="st0" d="M257.7,46l0.2-0.1l0.2,0h1l0.2,0l0.1,0.1l0.1,0.2l0.1,0.2l0.2,0.8l0.3-0.5l0.5-0.5l0.7-0.4
		c0.3-0.1,0.6-0.2,0.9-0.2c0.5,0,0.9,0.1,1.3,0.3c0.4,0.2,0.7,0.4,1,0.8c0.3,0.3,0.5,0.7,0.7,1.1c0.2,0.4,0.2,0.9,0.2,1.4v4.2
		l-0.1,0.4l-0.3,0.1h-1.5l-0.4-0.1l-0.1-0.4v-4.2l-0.1-0.5l-0.3-0.4l-0.5-0.3l-0.5-0.1l-0.5,0.1l-0.4,0.3l-0.3,0.4l-0.2,0.5v4.2
		l0,0.2l-0.1,0.2l-0.2,0.1l-0.2,0h-1.5l-0.4-0.1l-0.1-0.4v-7.2l0.1-0.2L257.7,46L257.7,46">
  </path>
  <path class="st0" d="M267.9,44.6l0.1-0.3l0.4-0.2l1.5-0.5l0.1,0h0.1l0.3,0.1l0.1,0.4l0,2h1.1l0.3,0.1l0.1,0.4v1.2l-0.1,0.4
		l-0.3,0.1h-1.1l0,5.2l-0.1,0.4l-0.4,0.1h-1.5c-0.3,0-0.5-0.2-0.5-0.5l0-5.2h-0.5c-0.3,0-0.5-0.2-0.5-0.5v-1.2
		c0-0.3,0.2-0.5,0.5-0.5h0.5L267.9,44.6">
  </path>
  <path class="st0" d="M274.6,51.5l0.4,0.3l0.4,0.2l0.3,0.1l0.2,0l0.3,0l0.4-0.1l0.3-0.2l0.1-0.3l-0.1-0.3l-0.2-0.2l-0.3-0.1
		l-0.4-0.1c-0.5-0.1-0.9-0.3-1.3-0.5c-0.3-0.2-0.6-0.4-0.8-0.6c-0.2-0.2-0.3-0.5-0.4-0.8c-0.1-0.3-0.1-0.6-0.1-0.9
		c0-0.4,0.1-0.7,0.2-1c0.1-0.3,0.3-0.5,0.6-0.7c0.3-0.2,0.6-0.4,0.9-0.5c0.4-0.1,0.8-0.2,1.2-0.2c0.3,0,0.5,0,0.8,0.1l0.7,0.2
		l0.6,0.4l0.6,0.5l0.1,0.2l-0.1,0.2l-0.5,0.4l-0.5,0.4l-0.2,0.1l-0.1,0l-0.1-0.1l-0.1-0.1l-0.5-0.3l-0.5-0.1l-0.5,0.1l-0.2,0.3
		l0.1,0.3l0.3,0.2l0.3,0.1l0.3,0.1c0.4,0.1,0.7,0.3,1.1,0.4c0.3,0.1,0.6,0.3,0.8,0.5c0.2,0.2,0.4,0.5,0.6,0.8
		c0.1,0.3,0.2,0.7,0.2,1.1c0,0.4-0.1,0.8-0.3,1.1c-0.2,0.3-0.4,0.6-0.7,0.8c-0.3,0.2-0.7,0.4-1.1,0.5c-0.4,0.1-0.8,0.2-1.3,0.2
		c-0.3,0-0.5,0-0.8-0.1c-0.3,0-0.5-0.1-0.8-0.2l-0.7-0.4l-0.6-0.6l-0.1-0.2l0-0.2l0-0.2l0.1-0.1l0.8-0.8l0.3-0.1L274.6,51.5">
  </path>
  <path class="st1" d="M124.6,17.6V10c0-1.5,0.2-1.7,1.7-1.7c1.1,0,2.2,0,3.3,0c1.2,0,1.7,0.5,1.7,1.7c0,6.2,0,12.4,0,18.6
		c0,2.5,0,4.9,0,7.4c0,1.2-0.3,1.5-1.5,1.5c-1.1,0-2.3,0-3.4,0c-0.5,0-0.9-0.2-1.1-0.7c-0.2-0.6-0.5-1.2-0.8-1.9l-0.7,0.7
		c-1.8,1.8-3.9,2.8-6.6,2.3c-3.3-0.6-5.8-2.3-7.5-5.1c-1.7-2.9-2.1-6-1.4-9.2c0.8-3.7,2.9-6.5,6.5-8c2.5-1,5.1-1.4,7.6,0.2
		c0.6,0.4,1.1,0.9,1.6,1.4C124.1,17.1,124.3,17.3,124.6,17.6 M114.4,26.2c0,3.5,2.2,5.6,5.1,5.6c3.2,0,5.5-2.3,5.6-5.5
		c0.1-3.3-2.5-5.7-5.5-5.7C116.6,20.6,114.4,22.9,114.4,26.2">
  </path>
  <path class="st1" d="M151.8,18.1c0.3-0.9,0.6-1.8,0.9-2.6c0.1-0.3,0.5-0.7,0.8-0.7c1.1-0.1,2.1-0.1,3.2,0c0.9,0.1,1.2,0.6,1.2,1.6
		c0,2.1,0,4.2,0,6.3c0,4.3,0,8.6,0,12.9c0,1.4-0.4,1.7-1.7,1.7c-1,0-2-0.1-3,0c-0.9,0.1-1.3-0.4-1.5-1.1c-0.2-0.5-0.4-0.9-0.6-1.5
		c-0.5,0.5-0.9,0.8-1.3,1.2c-1.7,1.5-3.6,2.1-5.9,1.7c-2.6-0.5-4.8-1.5-6.6-3.4c-2.7-2.8-3.7-6.2-3.1-10c0.5-3.2,2.1-5.8,4.7-7.7
		c1.5-1,3.1-1.7,5-2c3.2-0.5,5.6,0.6,7.5,3.1L151.8,18.1 M145.5,20.6c-2.8,0-5.2,2.4-5.1,5.6c0,3.4,2,5.6,5.1,5.6
		c3.2,0,5.5-2.3,5.6-5.6C151.2,23.1,148.6,20.6,145.5,20.6">
  </path>
  <path class="st1" d="M166.8,18.3c0.2-0.3,0.4-0.4,0.5-0.6c1.6-2.2,3.7-3.2,6.5-3.1c4.4,0.2,7.5,3.8,8.1,7.6
		c0.1,0.8,0.2,1.7,0.2,2.5c0,3.7,0,7.5,0,11.2c0,1.1-0.3,1.4-1.4,1.4h-4c-1.1,0-1.2-0.1-1.2-1.2c0-3.7,0-7.5,0-11.2
		c0-2.1-1.6-3.8-3.8-4.1c-1.6-0.2-3.7,1.4-4.1,3.2c-0.1,0.3,0,0.6,0,0.8v10.9c0,1.4-0.3,1.7-1.7,1.7c-1.3,0-2.5,0-3.8,0
		c-1,0-1.4-0.3-1.4-1.3c0-6.6,0-13.2,0-19.9c0-0.8,0.5-1.3,1.4-1.3c0.9,0,1.8,0,2.6,0c0.7,0,1.1,0.3,1.3,0.9
		C166.3,16.6,166.5,17.3,166.8,18.3">
  </path>
  <path class="st1" d="M73.3,27.6c0.3-0.8,0.6-1.6,0.8-2.5C75,22,76,19,77,15.9c0.2-0.7,0.6-1,1.4-1c1.6,0,3.2,0.1,4.7,0
		c1.2,0,1.2,0.7,0.9,1.4c-0.8,2.1-1.7,4.2-2.6,6.2c-1.8,4.2-3.6,8.5-5.3,12.7c-1,2.5-0.8,2.1-3,2.1c-2.2,0-2.2,0-3-2
		c-2.5-6.2-5.1-12.4-7.6-18.6c-0.4-1-0.3-1.9,1.2-1.8c1.2,0.1,2.4,0,3.6,0c1.9-0.1,1.7,0.3,2.2,1.7c1.2,3.6,2.3,7.2,3.5,10.8
		L73.3,27.6">
  </path>
  <path class="st1" d="M193.1,29.3c0,2.1,0,4.3,0,6.4c0,1.3-0.3,1.6-1.6,1.6c-1.2,0-2.4,0-3.6,0c-1.3,0-1.7-0.3-1.7-1.7
		c0-1.9,0-3.9,0-5.8c0-2.4,0-4.8,0-7.2c0-0.6-0.1-0.9-0.8-0.9c-1.5,0-1.9-0.3-1.9-1.8c0-0.9,0-1.9,0-2.8c0-1.2,0.4-1.6,1.6-1.6
		c1.1-0.1,1.1-0.1,1.1-1.1c0-0.9,0-1.8,0-2.7c0-0.7,0.3-1.2,1-1.5c1.4-0.5,2.7-1,4.1-1.5c1.3-0.4,1.8,0,1.8,1.4c0,1.6,0,3.1,0,4.7
		c0,0.6,0.2,0.8,0.8,0.8c0.7,0,1.3,0,2,0c1,0.1,1.5,0.4,1.5,1.4c0,1.2,0,2.3,0,3.5c0,1-0.5,1.4-1.5,1.4c-0.6,0-1.3,0-1.9,0
		c-0.6,0-0.9,0.2-0.8,0.8C193.1,24.9,193.1,27.1,193.1,29.3">
  </path>
  <path class="st1" d="M3.8,18.6c3,0.2,5.9,0.5,8.9,1.2c2.8,0.7,5.5,1.6,8,3.2c2.2,1.4,4,3.2,4.7,5.8c0.1,0.5,0.2,1.1,0.4,1.7
		c0.5,2.6,2.6,3.7,4.7,4.2c3.2,0.7,6.2,0,9.3-0.7c4.4-1,8.6-2.8,12.7-4.5c0.3-0.1,0.8-0.2,1,0c0.2,0.2,0.4,0.7,0.3,1.1
		c-0.1,0.8-0.2,1.6-0.4,2.4c-0.2,1.1-1,1.8-2,2.1c-3.4,1.1-6.7,2.4-10.2,3.3c-2.8,0.8-5.7,1.3-8.7,1.1c-2.1-0.1-4.1-0.5-5.8-2
		c-1.1-1-1.7-2.4-1.9-3.8c-0.3-2.4-1.5-4.1-3.3-5.4c-2.6-2-5.7-3-8.8-3.8c-3.6-0.8-7.2-1.1-10.9-1.1c-1.1,0-1.5-0.5-1.3-1.6
		c0.1-0.6,0.2-1.1,0.4-1.6c0.4-1.2,0.7-1.5,2.1-1.5H3.8">
  </path>
  <path class="st1" d="M7.2,11c4.9,0.6,9.7,1.6,13.9,4.5c2,1.4,3.6,3.1,4.3,5.5c0.3,0.9,0.3,1.8,0.7,2.7c1,2.1,2.9,3,5,3.2
		c4.7,0.5,9.1-0.7,13.5-2.2c2.2-0.8,4.4-1.7,6.5-2.6c0.6-0.3,1.8-0.7,2.4-0.1c0.3,0.3,0.3,1.1,0.4,1.5c0.3,1.7-0.2,2.7-1.8,3.3
		c-3.5,1.4-7,2.7-10.7,3.6c-2.7,0.7-5.4,1.2-8.2,1.2c-2.1,0-4.2-0.3-6-1.7c-1.4-1.1-2.1-2.6-2.3-4.2c-0.3-1.9-1.2-3.5-2.5-4.7
		c-2.6-2.4-5.8-3.5-9.2-4.3c-2.7-0.6-5.4-1-8.1-1.1c-0.3,0-0.7-0.1-1-0.2c-0.6-0.2-1-0.8-0.7-1.4c0.4-0.8,0.8-1.6,1.4-2.2
		C5.4,11,6.3,11,7.2,11">
  </path>
  <path class="st2" d="M33.6,47.2c-2.1,0.1-4.1-0.1-5.9-1.2c-1.4-0.8-2.3-2-2.6-3.6c-0.4-2.3-1.2-4.4-3.1-6c-1.7-1.4-3.7-2.4-5.8-3.1
		c-3-1-6.1-1.7-9.3-1.9c-1.6-0.1-3.2-0.2-4.8-0.3c-1.5-0.1-1.9-0.4-2-1.9c0-0.5-0.1-0.9-0.1-1.4c-0.1-0.9,0.3-1.5,1.3-1.5
		c2.2,0.1,4.3,0.1,6.5,0.4c2.3,0.3,4.5,0.8,6.7,1.3c2.9,0.8,5.5,2,7.9,4c1.9,1.6,3,3.7,3.4,6.2c0.4,2.3,2.1,3.6,4.3,4.1
		c3,0.7,5.9,0.2,8.8-0.4c3.4-0.7,6.7-1.9,9.9-3.2c0.5-0.2,1.1-0.5,1.6-0.6l0.8,0.1l0,0.7c-0.8,1.3-1.5,2.7-2.4,3.9
		c-0.9,1.3-2.4,1.8-3.8,2.3c-3,0.9-6,1.7-9.1,2C35.2,47.3,34.4,47.2,33.6,47.2">
  </path>
  <path class="st2" d="M8.3,39.4c0.4,0.4,0.8,0.7,1.2,1.1c2.8,2.2,5.6,4.4,8.3,6.7c2.1,1.8,4,3.8,5.3,6.6c-1.2-0.3-2.3-0.4-3.3-0.8
		c-3.5-1-6.7-2.6-9.6-4.8c-3.7-2.9-6.7-6.3-8.2-10.8c-0.2-0.5-0.3-0.9-0.3-1.4C1.7,35,2.2,34.4,3,34.4c1.6,0.1,3.3,0.2,4.8,0.6
		c2.5,0.6,4.9,1.2,7.3,2c2.9,0.9,5.5,2.4,7.7,4.5c1.9,1.8,3,4.1,3.6,6.6c0.4,1.9,0.6,3.7,0.8,5.7c-2.1-3.6-4.7-6.8-7.9-9.3
		c-3.3-2.5-6.8-4.4-10.8-5.4L8.3,39.4">
  </path>
  <path class="st1" d="M33.5,23.8c-1.8-0.1-3.6-0.4-5.3-1.1c-1.9-0.8-3-2.7-3.3-4.7c-0.4-2.5-1.8-4.3-3.7-5.7
		c-2.5-1.8-5.3-2.7-8.3-3.4c-1.1-0.3-2.3-0.5-3.4-0.8C8.6,7.8,8.4,7.2,9.2,6.6c1.1-0.9,2-2.2,3.6-2.1c1,0,2,0.3,3,0.6
		c3,1,5.8,2.4,7.9,4.9c1.2,1.4,1.7,3.1,2.1,4.9c0.4,2.2,1.9,3.4,4,4c2.4,0.7,4.9,0.5,7.3,0.1c4.4-0.7,8.5-2.2,12.5-3.8
		c1.1-0.4,1.8-0.2,2.3,0.9c0.1,0.3,0.2,0.7,0.4,1c0.3,0.6,0.5,1.5-0.1,2c-0.3,0.3-0.7,0.4-1,0.5c-1.6,0.6-3.2,1.2-4.9,1.7
		C42.3,22.6,37.8,24,33.5,23.8">
  </path>
  <path class="st2" d="M33.6,16.2c-2.1,0-4.2-0.3-6-1.4c-1.7-1-2.4-2.7-2.7-4.5c-0.3-2.3-1.5-4-3.2-5.3c-0.9-0.7-1.9-1.1-2.8-1.8
		c-0.5-0.3-0.9-0.8-1.3-1.3c0.4-0.3,0.8-0.6,1.3-0.8c2.5-0.9,3.5-0.3,5.1,1.6c1,1.3,1.4,2.9,1.7,4.5c0.4,2,1.8,3.2,3.7,3.8
		c2.6,0.8,5.3,0.7,7.9,0.1c2.9-0.7,5.7-1.5,8.5-2.3c0.8-0.2,1.5,0,2,0.6c0.4,0.5,0.9,1.1,1.3,1.7c0.4,0.6,0.2,1.4-0.5,1.6
		c-2.2,0.7-4.3,1.5-6.5,2.1c-2,0.5-4.1,0.8-6.1,1.2C35.2,16.1,34.4,16.1,33.6,16.2">
  </path>
  <path class="st2" d="M33.3,8.8c-2.1-0.1-4.2-0.4-5.9-1.8c-1.6-1.2-2.2-2.9-2.6-4.8c-0.1-0.5-0.2-0.9-0.3-1.4l0.1-0.8
		C25,0,25.4,0,25.8,0.1l0.5,0.5c1,2,2.8,2.7,4.8,3c2.4,0.4,4.7,0,7.1-0.3c0.9-0.1,1.9,0.1,2.8,0.4c0.9,0.3,1.6,1,2.4,1.5
		c0.7,0.5,0.7,1.2-0.2,1.5c-1.6,0.5-3.2,1-4.8,1.4C36.6,8.4,35,8.6,33.3,8.8">
  </path>
  <path class="st2" d="M28.7,54c1.5-1.9,3.4-3.2,5.4-4.2c2.1-1.1,4.4-1.7,6.8-2c0.7-0.1,1.4,0,2.1,0.2c0.3,0.1,0.6,0.5,0.9,0.7
		l-0.6,0.6c-3.1,1.9-6.5,3.2-10.1,4c-1.2,0.3-2.4,0.5-3.6,0.7C29.3,54,29,54,28.7,54">
  </path>
  <path class="st1" d="M222,16.1c0-0.7-0.3-1.2-1-1.2c-1.1-0.1-2.2-0.1-3.3,0c-0.4,0-0.8,0.6-1,0.9c-0.3,0.7-0.5,1.5-0.9,2.4
		c-0.3-0.3-0.4-0.5-0.6-0.7c-1.7-2.1-3.9-3.2-6.7-2.9c-3.3,0.4-6,1.8-8.1,4.4c-1.3,1.7-2,3.5-2.3,5.6c-0.3,2.1,0,4,0.7,5.9
		c1.2,3,3.3,5.2,6.4,6.4c1.8,0.7,3.7,1.2,5.7,0.6c1.3-0.4,2.4-1.2,3.4-2.2c0.2-0.2,0.4-0.4,0.7-0.6c0.3,0.7,0.5,1.2,0.7,1.8
		c0.2,0.5,0.6,0.8,1.1,0.7c1.1,0,2.2,0,3.3,0c1.4,0,1.7-0.3,1.7-1.7c0-5.8,0-11.6,0-17.5C222,17.5,222.1,16.8,222,16.1 M209.6,31.8
		c-3-0.1-5.1-2.2-5.1-5.5c0-3.3,2.3-5.8,5.3-5.7c3,0.1,5.5,2.6,5.4,5.7C215.2,29.6,212.6,31.9,209.6,31.8">
  </path>
  <path class="st1" d="M99.3,28.3c1.4,0,2.9,0,4.3-0.1c1.4-0.1,1.9-0.5,1.9-1.9c0.2-4.4-1.6-7.9-5.3-10.2c-2.9-1.8-6-2.1-9.2-1
		c-4.1,1.4-6.6,4.4-7.4,8.7c-0.7,3.4-0.1,6.6,2.1,9.3c2.8,3.5,6.4,5,10.9,4.5c2.5-0.3,4.7-1.4,6.5-3.1c0.6-0.6,0.6-1.2,0.1-1.8
		c-0.6-0.7-1.2-1.4-1.8-2c-0.7-0.7-1.2-0.7-2-0.1c-2,1.5-4.2,2-6.6,1.2c-1.6-0.5-2.8-2.1-2.8-3.5h0.8C93.7,28.3,96.5,28.3,99.3,28.3
		 M95.2,20c1.5,0.1,3.4,1.6,3.9,3.2h-8.8C91.1,21.1,93,19.9,95.2,20">
  </path>
 </g>
</svg>